<?xml version="1.0" encoding="utf-8"?>
<!-- Generator: Adobe Illustrator 15.0.2, SVG Export Plug-In . SVG Version: 6.00 Build 0)  -->
<!DOCTYPE svg PUBLIC "-//W3C//DTD SVG 1.1//EN" "http://www.w3.org/Graphics/SVG/1.1/DTD/svg11.dtd">
<svg version="1.1" id="Layer_2" xmlns="http://www.w3.org/2000/svg" xmlns:xlink="http://www.w3.org/1999/xlink" x="0px" y="0px"
	 width="650px" height="45px" viewBox="0 0 650 45" enable-background="new 0 0 650 45" xml:space="preserve">
<line fill="none" stroke="#DCE4EF" stroke-width="2" stroke-miterlimit="10" x1="0.041" y1="10.181" x2="649.651" y2="10.181"/>
<g display="none">
	<circle display="inline" fill="#FFFFFF" cx="49.881" cy="10.005" r="7.5"/>
	<path display="inline" fill="#DCE4EF" d="M49.881,3.505c3.59,0,6.5,2.91,6.5,6.5s-2.91,6.5-6.5,6.5c-3.59,0-6.5-2.91-6.5-6.5
		S46.291,3.505,49.881,3.505 M49.881,1.505c-4.687,0-8.5,3.813-8.5,8.5s3.813,8.5,8.5,8.5s8.5-3.813,8.5-8.5
		S54.568,1.505,49.881,1.505L49.881,1.505z"/>
</g>
<g display="none">
	<circle display="inline" fill="#FFFFFF" cx="187.464" cy="10.005" r="7.5"/>
	<path display="inline" fill="#DCE4EF" d="M187.464,3.505c3.59,0,6.5,2.91,6.5,6.5s-2.91,6.5-6.5,6.5c-3.59,0-6.5-2.91-6.5-6.5
		S183.874,3.505,187.464,3.505 M187.464,1.505c-4.687,0-8.5,3.813-8.5,8.5s3.813,8.5,8.5,8.5s8.5-3.813,8.5-8.5
		S192.151,1.505,187.464,1.505L187.464,1.505z"/>
</g>
<g display="none">
	<circle display="inline" fill="#FFFFFF" cx="325.047" cy="10.005" r="7.5"/>
	<path display="inline" fill="#DCE4EF" d="M325.047,3.505c3.59,0,6.5,2.91,6.5,6.5s-2.91,6.5-6.5,6.5s-6.5-2.91-6.5-6.5
		S321.458,3.505,325.047,3.505 M325.047,1.505c-4.687,0-8.5,3.813-8.5,8.5s3.813,8.5,8.5,8.5c4.688,0,8.5-3.813,8.5-8.5
		S329.734,1.505,325.047,1.505L325.047,1.505z"/>
</g>
<g display="none">
	<circle display="inline" fill="#FFFFFF" cx="462.631" cy="10.005" r="7.5"/>
	<path display="inline" fill="#DCE4EF" d="M462.631,3.505c3.59,0,6.5,2.91,6.5,6.5s-2.91,6.5-6.5,6.5s-6.5-2.91-6.5-6.5
		S459.041,3.505,462.631,3.505 M462.631,1.505c-4.687,0-8.5,3.813-8.5,8.5s3.813,8.5,8.5,8.5c4.688,0,8.5-3.813,8.5-8.5
		S467.318,1.505,462.631,1.505L462.631,1.505z"/>
</g>
<g display="none">
	<circle display="inline" fill="#FFFFFF" cx="600.214" cy="10.005" r="7.5"/>
	<path display="inline" fill="#DCE4EF" d="M600.214,3.505c3.59,0,6.5,2.91,6.5,6.5s-2.91,6.5-6.5,6.5s-6.5-2.91-6.5-6.5
		S596.624,3.505,600.214,3.505 M600.214,1.505c-4.687,0-8.5,3.813-8.5,8.5s3.813,8.5,8.5,8.5c4.688,0,8.5-3.813,8.5-8.5
		S604.901,1.505,600.214,1.505L600.214,1.505z"/>
</g>
<g>
	<path fill="#0070BB" d="M34.715,41.844h2.482v-7.99h-1.972v-0.9c0.499-0.091,0.932-0.201,1.3-0.332
		c0.368-0.13,0.7-0.286,0.995-0.467h1.071v9.689h2.244V43h-6.12V41.844z"/>
	<path fill="#0070BB" d="M42.518,40.229c0-0.351,0.06-0.677,0.179-0.977c0.119-0.301,0.272-0.572,0.459-0.816
		c0.187-0.243,0.402-0.459,0.646-0.646c0.244-0.187,0.496-0.348,0.756-0.484v-0.067c-0.396-0.283-0.748-0.626-1.054-1.028
		c-0.306-0.402-0.459-0.893-0.459-1.471c0-0.42,0.079-0.799,0.238-1.14c0.159-0.34,0.374-0.631,0.646-0.875s0.595-0.434,0.969-0.569
		c0.374-0.137,0.782-0.204,1.224-0.204c0.476,0,0.901,0.07,1.275,0.212c0.374,0.143,0.694,0.341,0.96,0.596
		c0.266,0.255,0.47,0.561,0.612,0.918c0.142,0.356,0.212,0.745,0.212,1.164c0,0.283-0.048,0.556-0.145,0.816
		s-0.215,0.504-0.357,0.73c-0.142,0.228-0.3,0.431-0.476,0.612s-0.348,0.334-0.518,0.459v0.068c0.238,0.136,0.47,0.292,0.697,0.467
		c0.227,0.176,0.428,0.374,0.604,0.596c0.176,0.221,0.317,0.473,0.425,0.756c0.108,0.284,0.162,0.606,0.162,0.97
		c0,0.407-0.085,0.787-0.255,1.139s-0.408,0.657-0.714,0.918c-0.306,0.261-0.675,0.465-1.105,0.612
		c-0.431,0.146-0.907,0.221-1.428,0.221c-0.51,0-0.983-0.074-1.419-0.221c-0.437-0.147-0.811-0.354-1.122-0.621
		c-0.312-0.266-0.558-0.58-0.739-0.943C42.609,41.057,42.518,40.66,42.518,40.229z M43.776,40.093c0,0.307,0.06,0.584,0.178,0.833
		c0.119,0.25,0.283,0.468,0.493,0.654c0.209,0.188,0.456,0.332,0.74,0.434c0.283,0.103,0.589,0.153,0.918,0.153
		c0.634,0,1.147-0.176,1.538-0.527c0.391-0.351,0.587-0.81,0.587-1.377c0-0.351-0.08-0.651-0.238-0.9s-0.374-0.468-0.646-0.655
		c-0.272-0.187-0.586-0.356-0.943-0.51c-0.357-0.152-0.729-0.309-1.114-0.467c-0.431,0.294-0.79,0.637-1.079,1.028
		C43.921,39.149,43.776,39.595,43.776,40.093z M46.836,37.084c0.362-0.328,0.643-0.674,0.841-1.037
		c0.198-0.362,0.297-0.742,0.297-1.139c0-0.544-0.164-1-0.493-1.369c-0.329-0.368-0.793-0.552-1.394-0.552
		c-0.51,0-0.93,0.158-1.258,0.476s-0.493,0.742-0.493,1.275c0,0.328,0.068,0.609,0.204,0.841c0.136,0.232,0.32,0.439,0.552,0.621
		s0.499,0.343,0.799,0.484S46.507,36.959,46.836,37.084z"/>
	<path fill="#0070BB" d="M50.951,42.167c0.816-0.816,1.541-1.553,2.176-2.21s1.167-1.267,1.598-1.827
		c0.431-0.562,0.759-1.077,0.986-1.548c0.227-0.47,0.34-0.926,0.34-1.368c0-0.623-0.17-1.133-0.51-1.53
		c-0.34-0.396-0.856-0.595-1.547-0.595c-0.454,0-0.873,0.128-1.258,0.383s-0.737,0.563-1.054,0.927l-0.799-0.8
		c0.453-0.498,0.935-0.897,1.445-1.198c0.51-0.3,1.122-0.45,1.836-0.45c1.008,0,1.802,0.292,2.38,0.875
		c0.578,0.584,0.867,1.357,0.867,2.321c0,0.51-0.111,1.022-0.332,1.538c-0.221,0.516-0.527,1.049-0.918,1.598
		c-0.391,0.55-0.856,1.122-1.394,1.717c-0.539,0.596-1.13,1.228-1.776,1.896c0.294-0.022,0.601-0.045,0.918-0.067
		c0.317-0.022,0.617-0.034,0.901-0.034h3.145V43h-7.004V42.167z"/>
	<path fill="#0070BB" d="M59.416,40.229c0-0.351,0.06-0.677,0.179-0.977c0.119-0.301,0.272-0.572,0.459-0.816
		c0.187-0.243,0.402-0.459,0.646-0.646c0.244-0.187,0.496-0.348,0.756-0.484v-0.067c-0.396-0.283-0.748-0.626-1.054-1.028
		c-0.306-0.402-0.459-0.893-0.459-1.471c0-0.42,0.079-0.799,0.238-1.14c0.159-0.34,0.374-0.631,0.646-0.875s0.595-0.434,0.969-0.569
		c0.374-0.137,0.782-0.204,1.224-0.204c0.476,0,0.901,0.07,1.275,0.212c0.374,0.143,0.694,0.341,0.96,0.596
		c0.266,0.255,0.47,0.561,0.612,0.918c0.142,0.356,0.212,0.745,0.212,1.164c0,0.283-0.048,0.556-0.145,0.816
		s-0.215,0.504-0.357,0.73c-0.142,0.228-0.3,0.431-0.476,0.612s-0.348,0.334-0.518,0.459v0.068c0.238,0.136,0.47,0.292,0.697,0.467
		c0.227,0.176,0.428,0.374,0.604,0.596c0.176,0.221,0.317,0.473,0.425,0.756c0.108,0.284,0.162,0.606,0.162,0.97
		c0,0.407-0.085,0.787-0.255,1.139s-0.408,0.657-0.714,0.918c-0.306,0.261-0.675,0.465-1.105,0.612
		c-0.431,0.146-0.907,0.221-1.428,0.221c-0.51,0-0.983-0.074-1.419-0.221c-0.437-0.147-0.811-0.354-1.122-0.621
		c-0.312-0.266-0.558-0.58-0.739-0.943C59.507,41.057,59.416,40.66,59.416,40.229z M60.674,40.093c0,0.307,0.06,0.584,0.178,0.833
		c0.119,0.25,0.283,0.468,0.493,0.654c0.209,0.188,0.456,0.332,0.74,0.434c0.283,0.103,0.589,0.153,0.918,0.153
		c0.634,0,1.147-0.176,1.538-0.527c0.391-0.351,0.587-0.81,0.587-1.377c0-0.351-0.08-0.651-0.238-0.9s-0.374-0.468-0.646-0.655
		c-0.272-0.187-0.586-0.356-0.943-0.51c-0.357-0.152-0.729-0.309-1.114-0.467c-0.431,0.294-0.79,0.637-1.079,1.028
		C60.819,39.149,60.674,39.595,60.674,40.093z M63.734,37.084c0.362-0.328,0.643-0.674,0.841-1.037
		c0.198-0.362,0.297-0.742,0.297-1.139c0-0.544-0.164-1-0.493-1.369c-0.329-0.368-0.793-0.552-1.394-0.552
		c-0.51,0-0.93,0.158-1.258,0.476s-0.493,0.742-0.493,1.275c0,0.328,0.068,0.609,0.204,0.841c0.136,0.232,0.32,0.439,0.552,0.621
		s0.499,0.343,0.799,0.484S63.405,36.959,63.734,37.084z"/>
</g>
<g>
	<path fill="#0070BB" d="M584.008,41.844h2.482v-7.99h-1.972v-0.9c0.499-0.091,0.933-0.201,1.3-0.332
		c0.369-0.13,0.7-0.286,0.995-0.467h1.071v9.689h2.244V43h-6.121V41.844z"/>
	<path fill="#0070BB" d="M592.764,41.181c0.227,0.261,0.495,0.471,0.807,0.629c0.313,0.159,0.639,0.238,0.979,0.238
		c0.385,0,0.748-0.079,1.088-0.238c0.34-0.158,0.64-0.422,0.9-0.79s0.471-0.847,0.629-1.437c0.158-0.589,0.244-1.32,0.256-2.193
		c-0.341,0.432-0.737,0.771-1.19,1.021c-0.454,0.249-0.907,0.374-1.36,0.374c-0.941,0-1.688-0.277-2.244-0.833
		c-0.555-0.556-0.832-1.395-0.832-2.517c0-0.521,0.084-0.994,0.254-1.419s0.4-0.791,0.689-1.097s0.629-0.544,1.02-0.714
		s0.802-0.255,1.232-0.255c0.533,0,1.028,0.107,1.487,0.323c0.459,0.215,0.856,0.541,1.19,0.978
		c0.334,0.436,0.595,0.979,0.781,1.632c0.188,0.651,0.281,1.414,0.281,2.286c0,1.088-0.113,2.015-0.34,2.779
		c-0.227,0.766-0.533,1.389-0.918,1.87c-0.386,0.482-0.824,0.833-1.318,1.054c-0.492,0.222-1.012,0.332-1.555,0.332
		c-0.578,0-1.086-0.108-1.521-0.323c-0.438-0.215-0.803-0.487-1.097-0.815L592.764,41.181z M595.109,37.73
		c0.352,0,0.729-0.111,1.131-0.332s0.784-0.592,1.146-1.113c-0.09-1.065-0.34-1.87-0.748-2.414
		c-0.407-0.544-0.957-0.816-1.648-0.816c-0.261,0-0.508,0.058-0.739,0.17c-0.232,0.114-0.434,0.275-0.604,0.485
		c-0.171,0.209-0.304,0.462-0.399,0.756c-0.097,0.295-0.145,0.618-0.145,0.969c0,0.715,0.164,1.275,0.492,1.684
		C593.925,37.526,594.43,37.73,595.109,37.73z"/>
	<path fill="#0070BB" d="M602.844,40.195c0.137-0.851,0.326-1.658,0.57-2.423s0.555-1.505,0.936-2.219
		c0.379-0.714,0.835-1.444,1.367-2.192h-5.405v-1.207h6.987v0.867c-0.646,0.815-1.171,1.598-1.572,2.346
		c-0.402,0.748-0.723,1.51-0.961,2.286s-0.411,1.599-0.519,2.465c-0.108,0.867-0.185,1.828-0.229,2.882h-1.445
		C602.617,41.98,602.709,41.045,602.844,40.195z"/>
	<path fill="#0070BB" d="M608.709,40.229c0-0.351,0.06-0.677,0.179-0.977c0.119-0.301,0.272-0.572,0.459-0.816
		c0.187-0.243,0.402-0.459,0.646-0.646c0.244-0.187,0.496-0.348,0.757-0.484v-0.067c-0.396-0.283-0.748-0.626-1.054-1.028
		c-0.307-0.402-0.459-0.893-0.459-1.471c0-0.42,0.079-0.799,0.238-1.14c0.158-0.34,0.373-0.631,0.646-0.875s0.595-0.434,0.97-0.569
		c0.373-0.137,0.781-0.204,1.223-0.204c0.477,0,0.902,0.07,1.275,0.212c0.375,0.143,0.694,0.341,0.961,0.596
		c0.266,0.255,0.471,0.561,0.611,0.918c0.143,0.356,0.213,0.745,0.213,1.164c0,0.283-0.049,0.556-0.145,0.816
		s-0.215,0.504-0.357,0.73c-0.141,0.228-0.3,0.431-0.476,0.612s-0.349,0.334-0.519,0.459v0.068c0.238,0.136,0.471,0.292,0.697,0.467
		c0.227,0.176,0.428,0.374,0.604,0.596c0.176,0.221,0.316,0.473,0.425,0.756c0.108,0.284,0.161,0.606,0.161,0.97
		c0,0.407-0.084,0.787-0.254,1.139s-0.408,0.657-0.715,0.918c-0.306,0.261-0.674,0.465-1.104,0.612
		c-0.431,0.146-0.907,0.221-1.429,0.221c-0.51,0-0.982-0.074-1.419-0.221c-0.437-0.147-0.811-0.354-1.122-0.621
		c-0.313-0.266-0.559-0.58-0.739-0.943C608.8,41.057,608.709,40.66,608.709,40.229z M609.967,40.093
		c0,0.307,0.061,0.584,0.179,0.833c0.119,0.25,0.283,0.468,0.493,0.654c0.209,0.188,0.456,0.332,0.74,0.434
		c0.282,0.103,0.588,0.153,0.918,0.153c0.634,0,1.146-0.176,1.537-0.527c0.392-0.351,0.588-0.81,0.588-1.377
		c0-0.351-0.08-0.651-0.238-0.9c-0.159-0.249-0.375-0.468-0.646-0.655c-0.271-0.187-0.586-0.356-0.943-0.51
		c-0.357-0.152-0.729-0.309-1.113-0.467c-0.432,0.294-0.791,0.637-1.08,1.028C610.111,39.149,609.967,39.595,609.967,40.093z
		 M613.027,37.084c0.362-0.328,0.643-0.674,0.842-1.037c0.197-0.362,0.297-0.742,0.297-1.139c0-0.544-0.164-1-0.492-1.369
		c-0.33-0.368-0.794-0.552-1.395-0.552c-0.51,0-0.93,0.158-1.258,0.476c-0.329,0.317-0.493,0.742-0.493,1.275
		c0,0.328,0.067,0.609,0.204,0.841c0.136,0.232,0.32,0.439,0.553,0.621s0.498,0.343,0.799,0.484
		C612.384,36.826,612.698,36.959,613.027,37.084z"/>
</g>
<g>
	<path fill="#0070BB" d="M309.362,41.844h2.482v-7.99h-1.972v-0.9c0.499-0.091,0.932-0.201,1.3-0.332
		c0.368-0.13,0.7-0.286,0.995-0.467h1.071v9.689h2.244V43h-6.12V41.844z"/>
	<path fill="#0070BB" d="M317.165,40.229c0-0.351,0.06-0.677,0.179-0.977c0.119-0.301,0.272-0.572,0.459-0.816
		c0.187-0.243,0.402-0.459,0.646-0.646c0.244-0.187,0.496-0.348,0.756-0.484v-0.067c-0.396-0.283-0.748-0.626-1.054-1.028
		c-0.306-0.402-0.459-0.893-0.459-1.471c0-0.42,0.079-0.799,0.238-1.14c0.159-0.34,0.374-0.631,0.646-0.875s0.595-0.434,0.969-0.569
		c0.374-0.137,0.782-0.204,1.224-0.204c0.476,0,0.901,0.07,1.275,0.212c0.374,0.143,0.694,0.341,0.96,0.596
		c0.266,0.255,0.47,0.561,0.612,0.918c0.142,0.356,0.212,0.745,0.212,1.164c0,0.283-0.048,0.556-0.145,0.816
		s-0.215,0.504-0.357,0.73c-0.142,0.228-0.3,0.431-0.476,0.612s-0.348,0.334-0.518,0.459v0.068c0.238,0.136,0.47,0.292,0.697,0.467
		c0.227,0.176,0.428,0.374,0.604,0.596c0.176,0.221,0.317,0.473,0.425,0.756c0.108,0.284,0.162,0.606,0.162,0.97
		c0,0.407-0.085,0.787-0.255,1.139s-0.408,0.657-0.714,0.918c-0.306,0.261-0.675,0.465-1.105,0.612
		c-0.431,0.146-0.907,0.221-1.428,0.221c-0.51,0-0.983-0.074-1.419-0.221c-0.437-0.147-0.811-0.354-1.122-0.621
		c-0.312-0.266-0.558-0.58-0.739-0.943C317.255,41.057,317.165,40.66,317.165,40.229z M318.423,40.093
		c0,0.307,0.06,0.584,0.178,0.833c0.119,0.25,0.283,0.468,0.493,0.654c0.209,0.188,0.456,0.332,0.74,0.434
		c0.283,0.103,0.589,0.153,0.918,0.153c0.634,0,1.147-0.176,1.538-0.527c0.391-0.351,0.587-0.81,0.587-1.377
		c0-0.351-0.08-0.651-0.238-0.9s-0.374-0.468-0.646-0.655c-0.272-0.187-0.586-0.356-0.943-0.51
		c-0.357-0.152-0.729-0.309-1.114-0.467c-0.431,0.294-0.79,0.637-1.079,1.028C318.567,39.149,318.423,39.595,318.423,40.093z
		 M321.483,37.084c0.362-0.328,0.643-0.674,0.841-1.037c0.198-0.362,0.297-0.742,0.297-1.139c0-0.544-0.164-1-0.493-1.369
		c-0.329-0.368-0.793-0.552-1.394-0.552c-0.51,0-0.93,0.158-1.258,0.476s-0.493,0.742-0.493,1.275c0,0.328,0.068,0.609,0.204,0.841
		c0.136,0.232,0.32,0.439,0.552,0.621s0.499,0.343,0.799,0.484S321.154,36.959,321.483,37.084z"/>
	<path fill="#0070BB" d="M325.613,40.229c0-0.351,0.061-0.677,0.18-0.977c0.119-0.301,0.271-0.572,0.459-0.816
		c0.187-0.243,0.402-0.459,0.646-0.646c0.243-0.187,0.495-0.348,0.757-0.484v-0.067c-0.396-0.283-0.748-0.626-1.055-1.028
		c-0.306-0.402-0.459-0.893-0.459-1.471c0-0.42,0.08-0.799,0.238-1.14c0.158-0.34,0.374-0.631,0.646-0.875
		c0.271-0.244,0.595-0.434,0.969-0.569c0.374-0.137,0.781-0.204,1.224-0.204c0.476,0,0.901,0.07,1.275,0.212
		c0.374,0.143,0.694,0.341,0.96,0.596c0.267,0.255,0.471,0.561,0.612,0.918c0.142,0.356,0.212,0.745,0.212,1.164
		c0,0.283-0.048,0.556-0.145,0.816c-0.096,0.261-0.215,0.504-0.356,0.73c-0.142,0.228-0.3,0.431-0.476,0.612
		s-0.349,0.334-0.519,0.459v0.068c0.237,0.136,0.47,0.292,0.696,0.467c0.227,0.176,0.428,0.374,0.604,0.596
		c0.176,0.221,0.317,0.473,0.426,0.756c0.107,0.284,0.161,0.606,0.161,0.97c0,0.407-0.085,0.787-0.255,1.139
		s-0.408,0.657-0.714,0.918s-0.675,0.465-1.104,0.612c-0.432,0.146-0.908,0.221-1.429,0.221c-0.51,0-0.983-0.074-1.419-0.221
		c-0.438-0.147-0.811-0.354-1.123-0.621c-0.312-0.266-0.558-0.58-0.738-0.943C325.705,41.057,325.613,40.66,325.613,40.229z
		 M326.872,40.093c0,0.307,0.06,0.584,0.179,0.833c0.119,0.25,0.283,0.468,0.492,0.654c0.21,0.188,0.457,0.332,0.74,0.434
		c0.283,0.103,0.589,0.153,0.918,0.153c0.635,0,1.147-0.176,1.538-0.527c0.392-0.351,0.587-0.81,0.587-1.377
		c0-0.351-0.08-0.651-0.238-0.9s-0.374-0.468-0.646-0.655c-0.271-0.187-0.586-0.356-0.943-0.51
		c-0.356-0.152-0.729-0.309-1.113-0.467c-0.431,0.294-0.79,0.637-1.079,1.028C327.017,39.149,326.872,39.595,326.872,40.093z
		 M329.932,37.084c0.363-0.328,0.644-0.674,0.842-1.037c0.198-0.362,0.297-0.742,0.297-1.139c0-0.544-0.164-1-0.492-1.369
		c-0.329-0.368-0.793-0.552-1.395-0.552c-0.51,0-0.93,0.158-1.258,0.476s-0.492,0.742-0.492,1.275c0,0.328,0.067,0.609,0.203,0.841
		c0.137,0.232,0.32,0.439,0.553,0.621s0.498,0.343,0.799,0.484S329.604,36.959,329.932,37.084z"/>
	<path fill="#0070BB" d="M334.521,40.756c0.328,0.34,0.711,0.641,1.148,0.901c0.436,0.261,0.977,0.391,1.623,0.391
		c0.656,0,1.195-0.179,1.615-0.535c0.418-0.357,0.629-0.842,0.629-1.454c0-0.316-0.061-0.608-0.179-0.875
		c-0.119-0.267-0.314-0.496-0.587-0.688c-0.271-0.192-0.629-0.34-1.07-0.442c-0.442-0.102-0.986-0.152-1.633-0.152v-1.071
		c0.578,0,1.063-0.051,1.454-0.153c0.391-0.102,0.708-0.243,0.952-0.425c0.243-0.181,0.416-0.396,0.518-0.646
		c0.103-0.25,0.153-0.516,0.153-0.8c0-0.532-0.167-0.952-0.501-1.258c-0.335-0.306-0.791-0.459-1.369-0.459
		c-0.453,0-0.869,0.103-1.249,0.306c-0.38,0.204-0.733,0.471-1.063,0.8l-0.748-0.885c0.419-0.396,0.881-0.722,1.386-0.978
		c0.504-0.255,1.079-0.382,1.725-0.382c0.477,0,0.912,0.063,1.31,0.187c0.396,0.125,0.739,0.304,1.028,0.536
		s0.513,0.519,0.672,0.858c0.158,0.34,0.238,0.73,0.238,1.173c0,0.657-0.182,1.195-0.545,1.615
		c-0.362,0.419-0.838,0.742-1.428,0.969v0.068c0.328,0.079,0.635,0.195,0.918,0.348c0.283,0.153,0.533,0.347,0.748,0.578
		c0.215,0.232,0.383,0.502,0.502,0.808c0.119,0.307,0.178,0.646,0.178,1.021c0,0.476-0.094,0.906-0.28,1.292
		c-0.187,0.385-0.442,0.711-0.765,0.978c-0.323,0.266-0.7,0.47-1.131,0.611s-0.895,0.213-1.394,0.213
		c-0.431,0-0.825-0.043-1.182-0.128s-0.683-0.198-0.978-0.34s-0.559-0.303-0.791-0.484c-0.232-0.181-0.439-0.374-0.62-0.578
		L334.521,40.756z"/>
</g>
</svg>
