<?xml version="1.0" encoding="UTF-8"?>
<!-- Generator: Adobe Illustrator 20.0.0, SVG Export Plug-In . SVG Version: 6.00 Build 0)  -->
<svg version="1.1" id="Layer_2" xmlns="http://www.w3.org/2000/svg" xmlns:xlink="http://www.w3.org/1999/xlink" x="0px" y="0px" width="650px" height="45px" viewBox="0 0 650 45" enable-background="new 0 0 650 45" xml:space="preserve">
<line fill="none" stroke="#DCE4EF" stroke-width="2" stroke-miterlimit="10" x1="0.041" y1="10.181" x2="649.651" y2="10.181"/>
<g display="none">
	<circle display="inline" fill="#FFFFFF" cx="49.881" cy="10.005" r="7.5"/>
	<path display="inline" fill="#DCE4EF" d="M49.881,3.505c3.59,0,6.5,2.91,6.5,6.5c0,3.59-2.91,6.5-6.5,6.5c-3.59,0-6.5-2.91-6.5-6.5   C43.381,6.415,46.291,3.505,49.881,3.505 M49.881,1.505c-4.687,0-8.5,3.813-8.5,8.5s3.813,8.5,8.5,8.5s8.5-3.813,8.5-8.5   S54.568,1.505,49.881,1.505L49.881,1.505z"/>
</g>
<g display="none">
	<circle display="inline" fill="#FFFFFF" cx="187.464" cy="10.005" r="7.5"/>
	<path display="inline" fill="#DCE4EF" d="M187.464,3.505c3.59,0,6.5,2.91,6.5,6.5s-2.91,6.5-6.5,6.5c-3.59,0-6.5-2.91-6.5-6.5   S183.874,3.505,187.464,3.505 M187.464,1.505c-4.687,0-8.5,3.813-8.5,8.5s3.813,8.5,8.5,8.5s8.5-3.813,8.5-8.5   S192.151,1.505,187.464,1.505L187.464,1.505z"/>
</g>
<g display="none">
	<circle display="inline" fill="#FFFFFF" cx="325.047" cy="10.005" r="7.5"/>
	<path display="inline" fill="#DCE4EF" d="M325.047,3.505c3.59,0,6.5,2.91,6.5,6.5s-2.91,6.5-6.5,6.5s-6.5-2.91-6.5-6.5   S321.458,3.505,325.047,3.505 M325.047,1.505c-4.687,0-8.5,3.813-8.5,8.5s3.813,8.5,8.5,8.5s8.5-3.813,8.5-8.5   S329.734,1.505,325.047,1.505L325.047,1.505z"/>
</g>
<g display="none">
	<circle display="inline" fill="#FFFFFF" cx="462.631" cy="10.005" r="7.5"/>
	<path display="inline" fill="#DCE4EF" d="M462.631,3.505c3.59,0,6.5,2.91,6.5,6.5s-2.91,6.5-6.5,6.5c-3.59,0-6.5-2.91-6.5-6.5   S459.041,3.505,462.631,3.505 M462.631,1.505c-4.687,0-8.5,3.813-8.5,8.5s3.813,8.5,8.5,8.5s8.5-3.813,8.5-8.5   S467.318,1.505,462.631,1.505L462.631,1.505z"/>
</g>
<g display="none">
	<circle display="inline" fill="#FFFFFF" cx="600.214" cy="10.005" r="7.5"/>
	<path display="inline" fill="#DCE4EF" d="M600.214,3.505c3.59,0,6.5,2.91,6.5,6.5s-2.91,6.5-6.5,6.5c-3.59,0-6.5-2.91-6.5-6.5   S596.624,3.505,600.214,3.505 M600.214,1.505c-4.687,0-8.5,3.813-8.5,8.5s3.813,8.5,8.5,8.5s8.5-3.813,8.5-8.5   S604.901,1.505,600.214,1.505L600.214,1.505z"/>
</g>
<g>
	<path fill="#0070BB" d="M584.336,42.179c3.264-3.246,5.1-5.201,5.1-6.952c0-1.24-0.68-2.125-2.057-2.125   c-0.901,0-1.684,0.578-2.313,1.31l-0.799-0.799c0.901-0.986,1.87-1.649,3.281-1.649c2.006,0,3.246,1.275,3.246,3.196   c0,2.039-1.853,4.063-4.419,6.748c0.595-0.051,1.258-0.103,1.818-0.103h3.145v1.207h-7.003V42.179z"/>
	<path fill="#0070BB" d="M592.853,37.556c0-3.638,1.309-5.593,3.484-5.593c2.159,0,3.468,1.955,3.468,5.593s-1.309,5.66-3.468,5.66   C594.161,43.216,592.853,41.194,592.853,37.556z M598.445,37.556c0-3.179-0.851-4.471-2.108-4.471   c-1.274,0-2.124,1.292-2.124,4.471s0.85,4.538,2.124,4.538C597.595,42.094,598.445,40.735,598.445,37.556z"/>
	<path fill="#0070BB" d="M601.896,41.857h2.482v-7.989h-1.972v-0.901c0.985-0.17,1.699-0.441,2.294-0.799h1.071v9.689h2.244v1.155   h-6.12V41.857z"/>
	<path fill="#0070BB" d="M609.683,42.179c3.264-3.246,5.1-5.201,5.1-6.952c0-1.24-0.68-2.125-2.057-2.125   c-0.901,0-1.684,0.578-2.313,1.31l-0.799-0.799c0.901-0.986,1.87-1.649,3.281-1.649c2.006,0,3.246,1.275,3.246,3.196   c0,2.039-1.853,4.063-4.419,6.748c0.595-0.051,1.258-0.103,1.818-0.103h3.145v1.207h-7.003V42.179z"/>
</g>
<g>
	<path fill="#0070BB" d="M446.708,42.18c3.264-3.247,5.099-5.201,5.099-6.952c0-1.241-0.68-2.125-2.057-2.125   c-0.9,0-1.683,0.578-2.312,1.309l-0.799-0.799c0.9-0.985,1.87-1.648,3.28-1.648c2.006,0,3.247,1.274,3.247,3.195   c0,2.04-1.853,4.063-4.42,6.748c0.595-0.051,1.258-0.102,1.819-0.102h3.145v1.207h-7.003V42.18z"/>
	<path fill="#0070BB" d="M455.225,37.556c0-3.638,1.309-5.592,3.484-5.592c2.159,0,3.468,1.954,3.468,5.592   s-1.309,5.661-3.468,5.661C456.533,43.217,455.225,41.194,455.225,37.556z M460.816,37.556c0-3.179-0.85-4.47-2.107-4.47   c-1.275,0-2.125,1.291-2.125,4.47s0.85,4.539,2.125,4.539C459.967,42.095,460.816,40.735,460.816,37.556z"/>
	<path fill="#0070BB" d="M464.269,41.857h2.481v-7.989h-1.972v-0.9c0.986-0.17,1.7-0.442,2.295-0.799h1.07v9.688h2.244v1.156h-6.119   V41.857z"/>
	<path fill="#0070BB" d="M472.122,37.556c0-3.638,1.309-5.592,3.484-5.592c2.159,0,3.468,1.954,3.468,5.592   s-1.309,5.661-3.468,5.661C473.431,43.217,472.122,41.194,472.122,37.556z M477.715,37.556c0-3.179-0.851-4.47-2.108-4.47   c-1.274,0-2.124,1.291-2.124,4.47s0.85,4.539,2.124,4.539C476.864,42.095,477.715,40.735,477.715,37.556z"/>
</g>
<g>
	<path fill="#0070BB" d="M308.079,42.18c3.264-3.247,5.099-5.201,5.099-6.952c0-1.241-0.68-2.125-2.057-2.125   c-0.901,0-1.683,0.578-2.312,1.309l-0.799-0.799c0.901-0.985,1.87-1.648,3.281-1.648c2.006,0,3.247,1.274,3.247,3.195   c0,2.04-1.853,4.063-4.419,6.748c0.595-0.051,1.258-0.102,1.819-0.102h3.145v1.207h-7.003V42.18z"/>
	<path fill="#0070BB" d="M316.595,37.556c0-3.638,1.309-5.592,3.484-5.592c2.159,0,3.468,1.954,3.468,5.592   s-1.309,5.661-3.468,5.661C317.904,43.217,316.595,41.194,316.595,37.556z M322.188,37.556c0-3.179-0.85-4.47-2.108-4.47   c-1.275,0-2.125,1.291-2.125,4.47s0.85,4.539,2.125,4.539C321.337,42.095,322.188,40.735,322.188,37.556z"/>
	<path fill="#0070BB" d="M325.044,37.556c0-3.638,1.309-5.592,3.485-5.592c2.159,0,3.468,1.954,3.468,5.592   s-1.309,5.661-3.468,5.661C326.354,43.217,325.044,41.194,325.044,37.556z M330.637,37.556c0-3.179-0.85-4.47-2.107-4.47   c-1.275,0-2.125,1.291-2.125,4.47s0.85,4.539,2.125,4.539C329.787,42.095,330.637,40.735,330.637,37.556z"/>
	<path fill="#0070BB" d="M333.493,37.556c0-3.638,1.309-5.592,3.484-5.592c2.159,0,3.468,1.954,3.468,5.592   s-1.309,5.661-3.468,5.661C334.802,43.217,333.493,41.194,333.493,37.556z M339.086,37.556c0-3.179-0.851-4.47-2.108-4.47   c-1.274,0-2.124,1.291-2.124,4.47s0.85,4.539,2.124,4.539C338.235,42.095,339.086,40.735,339.086,37.556z"/>
</g>
<g>
	<path fill="#0070BB" d="M172.113,41.857h2.482v-7.989h-1.972v-0.9c0.986-0.17,1.7-0.442,2.294-0.799h1.071v9.688h2.244v1.156h-6.12   V41.857z"/>
	<path fill="#0070BB" d="M180.868,41.194c0.442,0.527,1.105,0.867,1.785,0.867c1.53,0,2.822-1.189,2.873-4.657   c-0.68,0.866-1.648,1.394-2.549,1.394c-1.87,0-3.077-1.122-3.077-3.349c0-2.074,1.462-3.484,3.196-3.484   c2.142,0,3.74,1.733,3.74,5.218c0,4.352-1.972,6.035-4.13,6.035c-1.156,0-2.023-0.493-2.618-1.14L180.868,41.194z M185.492,36.299   c-0.187-2.107-1.02-3.229-2.397-3.229c-1.054,0-1.887,0.952-1.887,2.38c0,1.411,0.663,2.295,2.006,2.295   C183.911,37.744,184.761,37.336,185.492,36.299z"/>
	<path fill="#0070BB" d="M189.317,41.194c0.442,0.527,1.105,0.867,1.785,0.867c1.53,0,2.822-1.189,2.873-4.657   c-0.68,0.866-1.648,1.394-2.549,1.394c-1.87,0-3.077-1.122-3.077-3.349c0-2.074,1.462-3.484,3.196-3.484   c2.142,0,3.74,1.733,3.74,5.218c0,4.352-1.972,6.035-4.13,6.035c-1.156,0-2.023-0.493-2.618-1.14L189.317,41.194z M193.941,36.299   c-0.187-2.107-1.02-3.229-2.397-3.229c-1.054,0-1.887,0.952-1.887,2.38c0,1.411,0.663,2.295,2.006,2.295   C192.36,37.744,193.21,37.336,193.941,36.299z"/>
	<path fill="#0070BB" d="M204.089,40.021h-1.479v2.992h-1.326v-2.992h-4.878v-0.918l4.641-6.935h1.563v6.73h1.479V40.021z    M201.285,38.899v-3.145c0-0.578,0.051-1.513,0.085-2.091h-0.068c-0.272,0.527-0.578,1.003-0.884,1.53l-2.533,3.705H201.285z"/>
</g>
<g>
	<path fill="#0070BB" d="M34.485,41.857h2.482v-7.989h-1.972v-0.901c0.986-0.17,1.7-0.441,2.294-0.799h1.071v9.689h2.244v1.155   h-6.12V41.857z"/>
	<path fill="#0070BB" d="M43.24,41.194c0.442,0.526,1.105,0.866,1.785,0.866c1.53,0,2.822-1.189,2.873-4.657   c-0.68,0.867-1.648,1.394-2.549,1.394c-1.87,0-3.077-1.121-3.077-3.349c0-2.073,1.462-3.484,3.196-3.484   c2.142,0,3.74,1.734,3.74,5.219c0,4.352-1.972,6.034-4.13,6.034c-1.156,0-2.023-0.493-2.618-1.139L43.24,41.194z M47.863,36.299   c-0.187-2.108-1.02-3.229-2.397-3.229c-1.054,0-1.887,0.951-1.887,2.379c0,1.411,0.663,2.295,2.006,2.295   C46.282,37.743,47.132,37.336,47.863,36.299z"/>
	<path fill="#0070BB" d="M56.193,33.375h-5.405v-1.207h6.986v0.867c-2.567,3.28-3.094,5.745-3.281,9.978h-1.445   C53.236,38.933,54.052,36.349,56.193,33.375z"/>
	<path fill="#0070BB" d="M64.642,33.375h-5.405v-1.207h6.986v0.867c-2.567,3.28-3.094,5.745-3.281,9.978h-1.445   C61.685,38.933,62.5,36.349,64.642,33.375z"/>
</g>
</svg>