<?xml version="1.0" encoding="utf-8"?>
<!-- Generator: Adobe Illustrator 15.0.2, SVG Export Plug-In . SVG Version: 6.00 Build 0)  -->
<!DOCTYPE svg PUBLIC "-//W3C//DTD SVG 1.1//EN" "http://www.w3.org/Graphics/SVG/1.1/DTD/svg11.dtd">
<svg version="1.1" id="Layer_2" xmlns="http://www.w3.org/2000/svg" xmlns:xlink="http://www.w3.org/1999/xlink" x="0px" y="0px"
	 width="650px" height="45px" viewBox="0 0 650 45" enable-background="new 0 0 650 45" xml:space="preserve">
<line fill="none" stroke="#DCE4EF" stroke-width="2" stroke-miterlimit="10" x1="0.041" y1="10.181" x2="649.651" y2="10.181"/>
<g display="none">
	<circle display="inline" fill="#FFFFFF" cx="49.881" cy="10.005" r="7.5"/>
	<path display="inline" fill="#DCE4EF" d="M49.881,3.505c3.59,0,6.5,2.91,6.5,6.5s-2.91,6.5-6.5,6.5c-3.59,0-6.5-2.91-6.5-6.5
		S46.291,3.505,49.881,3.505 M49.881,1.505c-4.687,0-8.5,3.813-8.5,8.5s3.813,8.5,8.5,8.5s8.5-3.813,8.5-8.5
		S54.568,1.505,49.881,1.505L49.881,1.505z"/>
</g>
<g display="none">
	<circle display="inline" fill="#FFFFFF" cx="187.464" cy="10.005" r="7.5"/>
	<path display="inline" fill="#DCE4EF" d="M187.464,3.505c3.59,0,6.5,2.91,6.5,6.5s-2.91,6.5-6.5,6.5c-3.59,0-6.5-2.91-6.5-6.5
		S183.874,3.505,187.464,3.505 M187.464,1.505c-4.687,0-8.5,3.813-8.5,8.5s3.813,8.5,8.5,8.5s8.5-3.813,8.5-8.5
		S192.151,1.505,187.464,1.505L187.464,1.505z"/>
</g>
<g display="none">
	<circle display="inline" fill="#FFFFFF" cx="325.047" cy="10.005" r="7.5"/>
	<path display="inline" fill="#DCE4EF" d="M325.047,3.505c3.59,0,6.5,2.91,6.5,6.5s-2.91,6.5-6.5,6.5s-6.5-2.91-6.5-6.5
		S321.458,3.505,325.047,3.505 M325.047,1.505c-4.687,0-8.5,3.813-8.5,8.5s3.813,8.5,8.5,8.5c4.688,0,8.5-3.813,8.5-8.5
		S329.734,1.505,325.047,1.505L325.047,1.505z"/>
</g>
<g display="none">
	<circle display="inline" fill="#FFFFFF" cx="462.631" cy="10.005" r="7.5"/>
	<path display="inline" fill="#DCE4EF" d="M462.631,3.505c3.59,0,6.5,2.91,6.5,6.5s-2.91,6.5-6.5,6.5s-6.5-2.91-6.5-6.5
		S459.041,3.505,462.631,3.505 M462.631,1.505c-4.687,0-8.5,3.813-8.5,8.5s3.813,8.5,8.5,8.5c4.688,0,8.5-3.813,8.5-8.5
		S467.318,1.505,462.631,1.505L462.631,1.505z"/>
</g>
<g display="none">
	<circle display="inline" fill="#FFFFFF" cx="600.214" cy="10.005" r="7.5"/>
	<path display="inline" fill="#DCE4EF" d="M600.214,3.505c3.59,0,6.5,2.91,6.5,6.5s-2.91,6.5-6.5,6.5s-6.5-2.91-6.5-6.5
		S596.624,3.505,600.214,3.505 M600.214,1.505c-4.687,0-8.5,3.813-8.5,8.5s3.813,8.5,8.5,8.5c4.688,0,8.5-3.813,8.5-8.5
		S604.901,1.505,600.214,1.505L600.214,1.505z"/>
</g>
<g>
	<path fill="#0070BB" d="M29.641,30.568c0.397,0.42,0.861,0.757,1.394,1.012c0.533,0.256,1.094,0.383,1.683,0.383
		c0.737,0,1.309-0.167,1.717-0.501c0.408-0.335,0.612-0.772,0.612-1.317c0-0.283-0.048-0.523-0.145-0.723
		c-0.097-0.199-0.229-0.367-0.399-0.511c-0.17-0.142-0.369-0.269-0.595-0.382c-0.226-0.113-0.47-0.232-0.731-0.357l-1.598-0.697
		c-0.261-0.111-0.524-0.248-0.79-0.406c-0.267-0.159-0.51-0.353-0.731-0.578c-0.221-0.227-0.399-0.496-0.535-0.809
		c-0.136-0.312-0.204-0.672-0.204-1.08c0-0.418,0.087-0.81,0.264-1.172c0.175-0.363,0.422-0.678,0.739-0.944
		c0.317-0.266,0.688-0.473,1.114-0.62c0.425-0.147,0.892-0.222,1.402-0.222c0.668,0,1.283,0.128,1.844,0.383
		c0.561,0.255,1.04,0.587,1.437,0.995l-0.748,0.918c-0.34-0.328-0.72-0.586-1.139-0.773c-0.419-0.187-0.884-0.28-1.394-0.28
		c-0.635,0-1.142,0.146-1.521,0.435c-0.38,0.289-0.57,0.688-0.57,1.197c0,0.272,0.057,0.502,0.17,0.688
		c0.113,0.188,0.257,0.353,0.433,0.493c0.176,0.143,0.374,0.267,0.595,0.374c0.221,0.108,0.439,0.206,0.654,0.298l1.598,0.68
		c0.317,0.137,0.618,0.292,0.901,0.469c0.283,0.176,0.527,0.379,0.731,0.611s0.366,0.504,0.485,0.814
		c0.119,0.313,0.178,0.673,0.178,1.08c0,0.441-0.088,0.855-0.263,1.24c-0.176,0.387-0.428,0.724-0.757,1.012
		c-0.329,0.289-0.728,0.517-1.198,0.681c-0.471,0.165-1,0.247-1.589,0.247c-0.782,0-1.505-0.146-2.168-0.441
		s-1.238-0.697-1.725-1.207L29.641,30.568z"/>
	<path fill="#0070BB" d="M38.736,25.877h-1.224v-1.054l1.292-0.085l0.17-2.313h1.173v2.313h2.227v1.139h-2.227v4.59
		c0,0.51,0.094,0.904,0.281,1.182c0.187,0.278,0.518,0.418,0.994,0.418c0.147,0,0.306-0.023,0.476-0.068s0.323-0.098,0.459-0.153
		l0.272,1.056c-0.227,0.078-0.473,0.148-0.739,0.211c-0.267,0.063-0.53,0.095-0.791,0.095c-0.442,0-0.813-0.067-1.114-0.204
		c-0.301-0.136-0.544-0.322-0.731-0.561s-0.32-0.527-0.399-0.867c-0.08-0.34-0.119-0.715-0.119-1.122V25.877z"/>
	<path fill="#0070BB" d="M43.462,28.886c0-0.68,0.104-1.288,0.314-1.827c0.209-0.537,0.487-0.994,0.833-1.367
		c0.345-0.375,0.739-0.66,1.181-0.859c0.442-0.197,0.901-0.297,1.377-0.297c0.521,0,0.989,0.091,1.403,0.271
		c0.414,0.182,0.759,0.441,1.037,0.781c0.277,0.34,0.49,0.748,0.637,1.225s0.221,1.01,0.221,1.599c0,0.306-0.017,0.562-0.051,0.765
		h-5.576c0.057,0.896,0.332,1.604,0.824,2.125c0.493,0.521,1.136,0.782,1.93,0.782c0.396,0,0.762-0.06,1.096-0.179
		s0.655-0.274,0.961-0.469l0.493,0.918c-0.363,0.229-0.765,0.427-1.207,0.597s-0.946,0.255-1.513,0.255
		c-0.556,0-1.074-0.1-1.556-0.298c-0.482-0.198-0.901-0.481-1.258-0.851c-0.357-0.367-0.638-0.817-0.842-1.352
		C43.564,30.173,43.462,29.566,43.462,28.886z M49.242,28.257c0-0.85-0.179-1.498-0.536-1.946c-0.357-0.446-0.858-0.672-1.504-0.672
		c-0.295,0-0.575,0.061-0.841,0.18c-0.267,0.119-0.507,0.289-0.723,0.51c-0.215,0.222-0.394,0.492-0.536,0.816
		c-0.142,0.322-0.235,0.693-0.28,1.112H49.242z"/>
	<path fill="#0070BB" d="M53.9,33.697v2.787h-1.394V24.738h1.156l0.119,0.951h0.051c0.374-0.316,0.785-0.59,1.232-0.815
		c0.447-0.228,0.915-0.34,1.402-0.34c0.533,0,1.003,0.1,1.411,0.297c0.408,0.199,0.748,0.481,1.02,0.851s0.479,0.812,0.621,1.326
		c0.141,0.516,0.212,1.096,0.212,1.742c0,0.703-0.097,1.329-0.289,1.879c-0.193,0.551-0.454,1.018-0.782,1.402
		c-0.329,0.385-0.708,0.677-1.139,0.875c-0.431,0.197-0.884,0.298-1.36,0.298c-0.385,0-0.768-0.085-1.147-0.255
		c-0.379-0.17-0.762-0.402-1.147-0.697L53.9,33.697z M53.9,31.164c0.374,0.316,0.736,0.541,1.088,0.672
		c0.351,0.13,0.663,0.195,0.935,0.195c0.34,0,0.654-0.077,0.943-0.229c0.289-0.153,0.538-0.368,0.748-0.646
		c0.209-0.277,0.374-0.62,0.493-1.028s0.178-0.867,0.178-1.377c0-0.453-0.04-0.867-0.119-1.241c-0.08-0.374-0.207-0.693-0.383-0.96
		c-0.176-0.267-0.402-0.474-0.68-0.62s-0.609-0.222-0.995-0.222c-0.352,0-0.706,0.097-1.063,0.289s-0.74,0.471-1.147,0.833v4.334
		H53.9z"/>
	<path fill="#0070BB" d="M65.324,31.844h2.482v-7.99h-1.972v-0.899c0.499-0.091,0.932-0.201,1.3-0.332
		c0.368-0.13,0.7-0.286,0.995-0.467H69.2v9.688h2.244V33h-6.12V31.844z"/>
</g>
<g>
	<path fill="#0070BB" d="M578.934,30.568c0.397,0.42,0.861,0.757,1.396,1.012c0.533,0.256,1.094,0.383,1.684,0.383
		c0.736,0,1.31-0.167,1.718-0.501c0.407-0.335,0.61-0.772,0.61-1.317c0-0.283-0.048-0.523-0.145-0.723
		c-0.097-0.197-0.229-0.367-0.398-0.511c-0.17-0.142-0.369-0.269-0.596-0.382c-0.228-0.113-0.471-0.232-0.73-0.357l-1.599-0.697
		c-0.261-0.111-0.524-0.248-0.79-0.406c-0.267-0.159-0.51-0.353-0.731-0.578c-0.221-0.227-0.398-0.496-0.534-0.809
		c-0.137-0.312-0.204-0.672-0.204-1.08c0-0.418,0.088-0.81,0.264-1.172c0.176-0.363,0.422-0.678,0.739-0.944s0.688-0.473,1.114-0.62
		c0.424-0.147,0.892-0.222,1.401-0.222c0.668,0,1.283,0.128,1.845,0.383c0.561,0.255,1.039,0.587,1.437,0.995l-0.748,0.918
		c-0.34-0.328-0.72-0.586-1.139-0.773c-0.419-0.187-0.884-0.28-1.395-0.28c-0.635,0-1.143,0.146-1.521,0.435
		c-0.381,0.289-0.57,0.688-0.57,1.197c0,0.272,0.057,0.502,0.17,0.688c0.113,0.188,0.258,0.353,0.435,0.493
		c0.176,0.143,0.374,0.267,0.596,0.374c0.221,0.108,0.438,0.206,0.654,0.298l1.598,0.68c0.317,0.137,0.617,0.292,0.9,0.469
		c0.282,0.176,0.526,0.379,0.73,0.611s0.366,0.504,0.485,0.814c0.118,0.313,0.178,0.673,0.178,1.08c0,0.441-0.088,0.855-0.264,1.24
		c-0.176,0.387-0.428,0.724-0.756,1.012c-0.329,0.289-0.729,0.517-1.199,0.681c-0.471,0.165-1,0.247-1.589,0.247
		c-0.782,0-1.505-0.146-2.168-0.441s-1.238-0.697-1.727-1.207L578.934,30.568z"/>
	<path fill="#0070BB" d="M588.029,25.877h-1.226v-1.054l1.293-0.085l0.17-2.313h1.173v2.313h2.228v1.139h-2.228v4.59
		c0,0.51,0.094,0.904,0.28,1.182c0.188,0.278,0.519,0.418,0.994,0.418c0.147,0,0.308-0.023,0.478-0.068s0.321-0.098,0.459-0.153
		l0.271,1.056c-0.227,0.078-0.473,0.148-0.739,0.211c-0.266,0.063-0.529,0.095-0.79,0.095c-0.441,0-0.813-0.067-1.113-0.204
		c-0.3-0.136-0.544-0.322-0.731-0.561c-0.187-0.238-0.32-0.527-0.397-0.867c-0.08-0.34-0.119-0.715-0.119-1.122L588.029,25.877
		L588.029,25.877z"/>
	<path fill="#0070BB" d="M592.756,28.886c0-0.68,0.104-1.288,0.314-1.827c0.209-0.537,0.485-0.994,0.832-1.367
		c0.346-0.375,0.739-0.66,1.182-0.859c0.442-0.197,0.901-0.297,1.377-0.297c0.521,0,0.988,0.091,1.402,0.271
		c0.414,0.182,0.76,0.441,1.037,0.781c0.276,0.34,0.489,0.748,0.638,1.225c0.146,0.477,0.222,1.01,0.222,1.599
		c0,0.306-0.018,0.562-0.052,0.765h-5.575c0.057,0.896,0.331,1.604,0.824,2.125c0.492,0.521,1.136,0.782,1.93,0.782
		c0.396,0,0.762-0.06,1.096-0.179s0.654-0.274,0.962-0.469l0.491,0.918c-0.361,0.229-0.764,0.427-1.207,0.597
		c-0.44,0.17-0.944,0.255-1.512,0.255c-0.557,0-1.074-0.1-1.557-0.298c-0.481-0.198-0.9-0.481-1.258-0.851
		c-0.358-0.369-0.638-0.817-0.843-1.352C592.857,30.173,592.756,29.566,592.756,28.886z M598.535,28.257
		c0-0.85-0.18-1.498-0.535-1.946c-0.357-0.446-0.859-0.672-1.505-0.672c-0.295,0-0.575,0.061-0.841,0.18
		c-0.269,0.119-0.508,0.289-0.724,0.51c-0.216,0.222-0.395,0.492-0.536,0.816c-0.141,0.322-0.234,0.693-0.279,1.112H598.535z"/>
	<path fill="#0070BB" d="M603.193,33.697v2.787h-1.396V24.738h1.156l0.119,0.951h0.051c0.374-0.316,0.785-0.59,1.232-0.815
		c0.446-0.226,0.915-0.34,1.401-0.34c0.533,0,1.003,0.1,1.411,0.297c0.407,0.199,0.748,0.481,1.021,0.851
		c0.271,0.368,0.479,0.812,0.619,1.326c0.142,0.516,0.212,1.096,0.212,1.742c0,0.703-0.096,1.329-0.288,1.879
		c-0.192,0.551-0.453,1.018-0.781,1.402c-0.329,0.385-0.709,0.677-1.14,0.875c-0.432,0.197-0.885,0.298-1.36,0.298
		c-0.385,0-0.769-0.085-1.146-0.255c-0.381-0.17-0.763-0.402-1.147-0.697L603.193,33.697z M603.193,31.164
		c0.373,0.316,0.735,0.541,1.088,0.672c0.351,0.13,0.662,0.195,0.935,0.195c0.34,0,0.654-0.077,0.943-0.229
		c0.289-0.153,0.538-0.368,0.748-0.646s0.374-0.62,0.493-1.028c0.118-0.407,0.178-0.867,0.178-1.377
		c0-0.453-0.039-0.867-0.118-1.241s-0.207-0.693-0.383-0.96s-0.402-0.474-0.681-0.62c-0.277-0.146-0.608-0.222-0.994-0.222
		c-0.353,0-0.705,0.097-1.063,0.289c-0.355,0.192-0.739,0.471-1.146,0.833V31.164z"/>
	<path fill="#0070BB" d="M620.057,23.973c-0.227-0.26-0.496-0.467-0.807-0.619c-0.313-0.153-0.639-0.229-0.979-0.229
		c-0.373,0-0.73,0.079-1.07,0.237s-0.642,0.42-0.901,0.781c-0.261,0.363-0.47,0.836-0.629,1.42s-0.243,1.308-0.255,2.168
		c0.34-0.42,0.736-0.75,1.189-0.994c0.452-0.243,0.9-0.365,1.344-0.365c0.939,0,1.69,0.277,2.252,0.833
		c0.561,0.556,0.842,1.394,0.842,2.516c0,0.521-0.085,0.995-0.255,1.421c-0.17,0.424-0.402,0.789-0.697,1.096
		s-0.635,0.545-1.021,0.715s-0.8,0.255-1.24,0.255c-0.533,0-1.025-0.108-1.479-0.323s-0.848-0.541-1.182-0.978
		c-0.335-0.437-0.599-0.979-0.791-1.632c-0.193-0.651-0.289-1.414-0.289-2.287c0-1.088,0.113-2.014,0.34-2.779
		c0.228-0.766,0.533-1.389,0.918-1.869c0.386-0.482,0.824-0.833,1.318-1.055c0.492-0.221,1.011-0.331,1.555-0.331
		c0.59,0,1.098,0.11,1.521,0.331c0.426,0.222,0.791,0.496,1.097,0.824L620.057,23.973z M617.83,32.1c0.271,0,0.521-0.058,0.748-0.17
		c0.227-0.113,0.425-0.274,0.595-0.484c0.17-0.209,0.304-0.459,0.399-0.748c0.095-0.289,0.145-0.614,0.145-0.979
		c0-0.714-0.164-1.273-0.492-1.683c-0.33-0.408-0.834-0.612-1.514-0.612c-0.34,0-0.711,0.11-1.113,0.332
		c-0.401,0.221-0.784,0.586-1.147,1.096c0.092,1.065,0.338,1.873,0.74,2.424C616.592,31.825,617.139,32.1,617.83,32.1z"/>
</g>
<g>
	<path fill="#0070BB" d="M469.076,30.568c0.396,0.42,0.86,0.757,1.394,1.012c0.532,0.256,1.095,0.383,1.684,0.383
		c0.736,0,1.31-0.167,1.718-0.501c0.407-0.335,0.612-0.772,0.612-1.317c0-0.283-0.05-0.523-0.146-0.723
		c-0.097-0.197-0.229-0.367-0.399-0.511c-0.171-0.142-0.368-0.269-0.596-0.382c-0.227-0.113-0.47-0.232-0.73-0.357l-1.599-0.697
		c-0.261-0.111-0.522-0.248-0.79-0.406c-0.267-0.159-0.511-0.353-0.73-0.578c-0.22-0.227-0.399-0.496-0.535-0.809
		c-0.137-0.312-0.204-0.672-0.204-1.08c0-0.418,0.087-0.81,0.264-1.172c0.176-0.363,0.423-0.678,0.739-0.944
		c0.317-0.266,0.688-0.473,1.113-0.62c0.426-0.147,0.893-0.222,1.402-0.222c0.669,0,1.282,0.128,1.845,0.383
		c0.562,0.255,1.04,0.587,1.437,0.995l-0.748,0.918c-0.34-0.328-0.72-0.586-1.139-0.773c-0.42-0.187-0.885-0.28-1.395-0.28
		c-0.636,0-1.143,0.146-1.521,0.435s-0.569,0.688-0.569,1.197c0,0.272,0.058,0.502,0.172,0.688c0.111,0.188,0.257,0.353,0.433,0.493
		c0.176,0.143,0.374,0.267,0.595,0.374c0.223,0.108,0.439,0.206,0.654,0.298l1.599,0.68c0.317,0.137,0.618,0.292,0.901,0.469
		c0.283,0.176,0.527,0.379,0.729,0.611c0.204,0.232,0.365,0.504,0.484,0.814c0.119,0.313,0.179,0.673,0.179,1.08
		c0,0.441-0.088,0.855-0.263,1.24c-0.176,0.387-0.429,0.724-0.758,1.012c-0.328,0.289-0.729,0.517-1.197,0.681
		c-0.471,0.165-1.001,0.247-1.59,0.247c-0.782,0-1.505-0.146-2.168-0.441c-0.662-0.295-1.238-0.697-1.725-1.207L469.076,30.568z"/>
	<path fill="#0070BB" d="M478.17,25.877h-1.223v-1.054l1.291-0.085l0.17-2.313h1.174v2.313h2.227v1.139h-2.227v4.59
		c0,0.51,0.094,0.904,0.28,1.182c0.187,0.278,0.519,0.418,0.994,0.418c0.146,0,0.306-0.023,0.476-0.068s0.324-0.098,0.459-0.153
		l0.272,1.056c-0.228,0.078-0.475,0.148-0.739,0.211c-0.268,0.063-0.53,0.095-0.791,0.095c-0.441,0-0.813-0.067-1.113-0.204
		c-0.3-0.136-0.544-0.322-0.729-0.561c-0.188-0.238-0.32-0.527-0.4-0.867c-0.079-0.34-0.119-0.715-0.119-1.122L478.17,25.877
		L478.17,25.877z"/>
	<path fill="#0070BB" d="M482.896,28.886c0-0.68,0.104-1.288,0.313-1.827c0.21-0.537,0.487-0.994,0.834-1.367
		c0.345-0.375,0.738-0.66,1.181-0.859c0.442-0.197,0.901-0.297,1.377-0.297c0.521,0,0.989,0.091,1.403,0.271
		c0.413,0.182,0.758,0.441,1.037,0.781c0.277,0.34,0.489,0.748,0.637,1.225c0.146,0.477,0.222,1.01,0.222,1.599
		c0,0.306-0.018,0.562-0.052,0.765h-5.575c0.057,0.896,0.332,1.604,0.823,2.125c0.494,0.521,1.138,0.782,1.931,0.782
		c0.396,0,0.763-0.06,1.097-0.179c0.335-0.119,0.655-0.274,0.961-0.469l0.493,0.918c-0.363,0.229-0.766,0.427-1.207,0.597
		c-0.442,0.17-0.947,0.255-1.514,0.255c-0.556,0-1.074-0.1-1.556-0.298s-0.9-0.481-1.258-0.851
		c-0.356-0.367-0.639-0.817-0.842-1.352C482.998,30.173,482.896,29.566,482.896,28.886z M488.677,28.257
		c0-0.85-0.179-1.498-0.536-1.946c-0.355-0.446-0.856-0.672-1.504-0.672c-0.295,0-0.575,0.061-0.842,0.18
		c-0.266,0.119-0.507,0.289-0.723,0.51c-0.215,0.222-0.395,0.492-0.535,0.816c-0.141,0.322-0.235,0.693-0.28,1.112H488.677z"/>
	<path fill="#0070BB" d="M493.334,33.697v2.787h-1.394V24.738h1.154l0.119,0.951h0.052c0.374-0.316,0.784-0.59,1.232-0.815
		c0.447-0.228,0.915-0.34,1.402-0.34c0.531,0,1.003,0.1,1.41,0.297c0.408,0.199,0.748,0.481,1.021,0.851
		c0.271,0.368,0.479,0.812,0.621,1.326c0.141,0.516,0.213,1.096,0.213,1.742c0,0.703-0.098,1.329-0.289,1.879
		c-0.193,0.551-0.454,1.018-0.783,1.402c-0.328,0.385-0.708,0.677-1.139,0.875c-0.431,0.197-0.884,0.298-1.359,0.298
		c-0.386,0-0.768-0.085-1.147-0.255c-0.379-0.17-0.763-0.402-1.146-0.697L493.334,33.697z M493.334,31.164
		c0.375,0.316,0.736,0.541,1.088,0.672c0.353,0.13,0.664,0.195,0.937,0.195c0.34,0,0.653-0.077,0.942-0.229
		c0.289-0.153,0.538-0.368,0.748-0.646c0.209-0.277,0.374-0.62,0.493-1.028c0.118-0.408,0.179-0.867,0.179-1.377
		c0-0.453-0.04-0.867-0.119-1.241s-0.207-0.693-0.383-0.96s-0.401-0.474-0.68-0.62c-0.277-0.146-0.609-0.222-0.994-0.222
		c-0.352,0-0.706,0.097-1.063,0.289c-0.357,0.192-0.74,0.471-1.148,0.833V31.164L493.334,31.164z"/>
	<path fill="#0070BB" d="M504.521,30.807c0.316,0.329,0.693,0.618,1.13,0.867c0.438,0.25,0.973,0.374,1.606,0.374
		c0.328,0,0.637-0.06,0.926-0.179c0.289-0.118,0.541-0.286,0.758-0.501c0.216-0.216,0.386-0.478,0.511-0.782
		c0.124-0.306,0.187-0.646,0.187-1.02c0-0.748-0.21-1.332-0.63-1.752c-0.419-0.42-0.979-0.629-1.682-0.629
		c-0.375,0-0.695,0.058-0.961,0.17c-0.268,0.113-0.564,0.277-0.894,0.492l-0.748-0.476l0.357-5.219h5.422v1.207h-4.198l-0.289,3.214
		c0.262-0.136,0.521-0.244,0.782-0.323c0.26-0.079,0.555-0.119,0.884-0.119c0.464,0,0.901,0.068,1.311,0.204
		c0.407,0.136,0.764,0.343,1.069,0.62c0.308,0.277,0.548,0.63,0.724,1.055c0.176,0.426,0.264,0.932,0.264,1.521
		c0,0.589-0.103,1.109-0.307,1.563c-0.203,0.454-0.477,0.836-0.815,1.147c-0.341,0.313-0.729,0.55-1.165,0.714
		c-0.436,0.165-0.893,0.247-1.368,0.247c-0.431,0-0.824-0.043-1.182-0.128s-0.68-0.195-0.969-0.331s-0.55-0.292-0.782-0.468
		s-0.438-0.359-0.621-0.553L504.521,30.807z"/>
</g>
<g>
	<path fill="#0070BB" d="M359.217,30.568c0.396,0.42,0.861,0.757,1.396,1.012c0.531,0.256,1.094,0.383,1.683,0.383
		c0.737,0,1.311-0.167,1.718-0.501c0.407-0.335,0.611-0.772,0.611-1.317c0-0.283-0.049-0.523-0.146-0.723
		c-0.096-0.199-0.229-0.367-0.398-0.511c-0.17-0.142-0.368-0.269-0.595-0.382c-0.228-0.113-0.472-0.232-0.731-0.357l-1.599-0.697
		c-0.261-0.111-0.523-0.248-0.789-0.406c-0.269-0.159-0.511-0.353-0.732-0.578c-0.221-0.227-0.397-0.496-0.535-0.809
		c-0.136-0.312-0.202-0.672-0.202-1.08c0-0.418,0.087-0.81,0.264-1.172c0.175-0.363,0.422-0.678,0.738-0.944
		c0.317-0.266,0.688-0.473,1.113-0.62c0.426-0.147,0.893-0.222,1.402-0.222c0.669,0,1.283,0.128,1.845,0.383
		c0.562,0.255,1.039,0.587,1.437,0.995l-0.748,0.918c-0.34-0.328-0.719-0.586-1.14-0.773c-0.419-0.187-0.884-0.28-1.394-0.28
		c-0.635,0-1.142,0.146-1.521,0.435c-0.379,0.289-0.568,0.688-0.568,1.197c0,0.272,0.057,0.502,0.17,0.688
		c0.113,0.188,0.258,0.353,0.434,0.493c0.177,0.143,0.373,0.267,0.596,0.374c0.222,0.108,0.438,0.206,0.653,0.298l1.6,0.68
		c0.315,0.137,0.616,0.292,0.899,0.469c0.283,0.176,0.527,0.379,0.73,0.611c0.205,0.232,0.366,0.504,0.484,0.814
		c0.118,0.313,0.18,0.673,0.18,1.08c0,0.441-0.088,0.855-0.265,1.24c-0.176,0.387-0.428,0.724-0.757,1.012
		c-0.329,0.289-0.728,0.517-1.198,0.681c-0.471,0.165-1,0.247-1.59,0.247c-0.78,0-1.504-0.146-2.168-0.441
		c-0.662-0.295-1.237-0.697-1.725-1.207L359.217,30.568z"/>
	<path fill="#0070BB" d="M368.313,25.877h-1.225v-1.054l1.292-0.085l0.17-2.313h1.173v2.313h2.228v1.139h-2.228v4.59
		c0,0.51,0.095,0.904,0.281,1.182c0.188,0.278,0.519,0.418,0.994,0.418c0.146,0,0.306-0.023,0.476-0.068
		c0.171-0.045,0.323-0.098,0.459-0.153l0.272,1.056c-0.227,0.078-0.474,0.148-0.74,0.211c-0.266,0.063-0.528,0.095-0.79,0.095
		c-0.441,0-0.813-0.067-1.114-0.204c-0.3-0.136-0.543-0.322-0.729-0.561c-0.188-0.238-0.32-0.527-0.399-0.867
		c-0.078-0.34-0.118-0.715-0.118-1.122L368.313,25.877L368.313,25.877z"/>
	<path fill="#0070BB" d="M373.038,28.886c0-0.68,0.104-1.288,0.313-1.827c0.21-0.537,0.487-0.994,0.833-1.367
		c0.347-0.375,0.739-0.66,1.183-0.859c0.44-0.197,0.899-0.297,1.377-0.297c0.521,0,0.988,0.091,1.402,0.271
		c0.413,0.182,0.759,0.441,1.036,0.781s0.49,0.748,0.638,1.225c0.146,0.477,0.222,1.01,0.222,1.599c0,0.306-0.017,0.562-0.052,0.765
		h-5.575c0.057,0.896,0.331,1.604,0.824,2.125c0.493,0.521,1.136,0.782,1.93,0.782c0.396,0,0.763-0.06,1.097-0.179
		s0.654-0.274,0.961-0.469l0.492,0.918c-0.363,0.229-0.765,0.427-1.207,0.597c-0.44,0.17-0.945,0.255-1.513,0.255
		c-0.556,0-1.074-0.1-1.556-0.298c-0.482-0.198-0.9-0.481-1.259-0.851c-0.357-0.369-0.638-0.817-0.842-1.352
		C373.14,30.173,373.038,29.566,373.038,28.886z M378.818,28.257c0-0.85-0.181-1.498-0.536-1.946
		c-0.356-0.446-0.858-0.672-1.505-0.672c-0.295,0-0.574,0.061-0.842,0.18c-0.267,0.119-0.507,0.289-0.723,0.51
		c-0.216,0.222-0.394,0.492-0.536,0.816c-0.141,0.322-0.233,0.693-0.278,1.112H378.818z"/>
	<path fill="#0070BB" d="M383.476,33.697v2.787h-1.394V24.738h1.155l0.119,0.951h0.052c0.373-0.316,0.784-0.59,1.231-0.815
		c0.447-0.228,0.914-0.34,1.402-0.34c0.532,0,1.002,0.1,1.41,0.297c0.408,0.199,0.748,0.481,1.021,0.851
		c0.273,0.369,0.479,0.812,0.62,1.326c0.142,0.516,0.213,1.096,0.213,1.742c0,0.703-0.097,1.329-0.289,1.879
		c-0.192,0.551-0.452,1.018-0.781,1.402s-0.708,0.677-1.14,0.875c-0.431,0.197-0.884,0.298-1.359,0.298
		c-0.386,0-0.769-0.085-1.147-0.255s-0.763-0.402-1.146-0.697L383.476,33.697z M383.476,31.164c0.374,0.316,0.736,0.541,1.089,0.672
		c0.351,0.13,0.662,0.195,0.935,0.195c0.34,0,0.654-0.077,0.943-0.229c0.289-0.153,0.539-0.368,0.748-0.646
		c0.21-0.277,0.375-0.62,0.493-1.028s0.179-0.867,0.179-1.377c0-0.453-0.039-0.867-0.119-1.241c-0.079-0.374-0.207-0.693-0.383-0.96
		c-0.177-0.267-0.402-0.474-0.681-0.62c-0.276-0.146-0.608-0.222-0.994-0.222c-0.352,0-0.704,0.097-1.063,0.289
		s-0.74,0.471-1.147,0.833V31.164L383.476,31.164z"/>
	<path fill="#0070BB" d="M401.529,30.008h-1.479V33h-1.326v-2.992h-4.879V29.09l4.642-6.936h1.563v6.731h1.479V30.008z
		 M398.725,28.886v-3.145c0-0.296,0.009-0.644,0.025-1.046s0.037-0.75,0.06-1.045h-0.066c-0.137,0.261-0.278,0.516-0.426,0.765
		c-0.146,0.249-0.302,0.504-0.459,0.765l-2.533,3.706H398.725z"/>
</g>
<g>
	<path fill="#0070BB" d="M139.5,30.568c0.397,0.42,0.861,0.757,1.394,1.012c0.533,0.256,1.094,0.383,1.683,0.383
		c0.737,0,1.309-0.167,1.717-0.501c0.408-0.335,0.612-0.772,0.612-1.317c0-0.283-0.048-0.523-0.145-0.723
		c-0.097-0.199-0.229-0.367-0.399-0.511c-0.17-0.142-0.369-0.269-0.595-0.382s-0.47-0.232-0.731-0.357l-1.598-0.697
		c-0.261-0.111-0.524-0.248-0.79-0.406c-0.267-0.159-0.51-0.353-0.731-0.578c-0.221-0.227-0.399-0.496-0.535-0.809
		c-0.136-0.312-0.204-0.672-0.204-1.08c0-0.418,0.087-0.81,0.264-1.172c0.175-0.363,0.422-0.678,0.739-0.944
		c0.317-0.266,0.688-0.473,1.114-0.62c0.425-0.147,0.892-0.222,1.402-0.222c0.668,0,1.283,0.128,1.844,0.383
		c0.561,0.255,1.04,0.587,1.437,0.995l-0.748,0.918c-0.34-0.328-0.72-0.586-1.139-0.773c-0.419-0.187-0.884-0.28-1.394-0.28
		c-0.635,0-1.142,0.146-1.521,0.435c-0.38,0.289-0.57,0.688-0.57,1.197c0,0.272,0.057,0.502,0.17,0.688
		c0.113,0.188,0.257,0.353,0.433,0.493c0.176,0.143,0.374,0.267,0.595,0.374c0.221,0.108,0.439,0.206,0.654,0.298l1.598,0.68
		c0.317,0.137,0.618,0.292,0.901,0.469c0.283,0.176,0.527,0.379,0.731,0.611s0.366,0.504,0.485,0.814
		c0.119,0.313,0.178,0.673,0.178,1.08c0,0.441-0.088,0.855-0.263,1.24c-0.176,0.387-0.428,0.724-0.757,1.012
		c-0.329,0.289-0.728,0.517-1.198,0.681c-0.471,0.165-1,0.247-1.589,0.247c-0.782,0-1.505-0.146-2.168-0.441
		s-1.238-0.697-1.725-1.207L139.5,30.568z"/>
	<path fill="#0070BB" d="M148.594,25.877h-1.224v-1.054l1.292-0.085l0.17-2.313h1.173v2.313h2.227v1.139h-2.227v4.59
		c0,0.51,0.094,0.904,0.281,1.182c0.187,0.278,0.518,0.418,0.994,0.418c0.147,0,0.306-0.023,0.476-0.068s0.323-0.098,0.459-0.153
		l0.272,1.056c-0.227,0.078-0.473,0.148-0.739,0.211c-0.267,0.063-0.53,0.095-0.791,0.095c-0.442,0-0.813-0.067-1.114-0.204
		c-0.301-0.136-0.544-0.322-0.731-0.561s-0.32-0.527-0.399-0.867c-0.08-0.34-0.119-0.715-0.119-1.122L148.594,25.877L148.594,25.877
		z"/>
	<path fill="#0070BB" d="M153.321,28.886c0-0.68,0.104-1.288,0.314-1.827c0.209-0.537,0.487-0.994,0.833-1.367
		c0.345-0.375,0.739-0.66,1.181-0.859c0.442-0.197,0.901-0.297,1.377-0.297c0.521,0,0.989,0.091,1.403,0.271
		c0.414,0.182,0.759,0.441,1.037,0.781c0.277,0.34,0.49,0.748,0.637,1.225s0.221,1.01,0.221,1.599c0,0.306-0.017,0.562-0.051,0.765
		h-5.576c0.057,0.896,0.332,1.604,0.824,2.125c0.493,0.521,1.136,0.782,1.93,0.782c0.396,0,0.762-0.06,1.096-0.179
		s0.655-0.274,0.961-0.469l0.493,0.918c-0.363,0.229-0.765,0.427-1.207,0.597s-0.946,0.255-1.513,0.255
		c-0.556,0-1.074-0.1-1.556-0.298s-0.901-0.481-1.258-0.851c-0.357-0.367-0.638-0.817-0.842-1.352
		C153.422,30.173,153.321,29.566,153.321,28.886z M159.101,28.257c0-0.85-0.179-1.498-0.536-1.946
		c-0.357-0.446-0.858-0.672-1.504-0.672c-0.295,0-0.575,0.061-0.841,0.18c-0.267,0.119-0.507,0.289-0.723,0.51
		c-0.215,0.222-0.394,0.492-0.536,0.816c-0.142,0.322-0.235,0.693-0.28,1.112H159.101z"/>
	<path fill="#0070BB" d="M163.758,33.697v2.787h-1.394V24.738h1.156l0.119,0.951h0.051c0.374-0.316,0.785-0.59,1.232-0.815
		c0.447-0.228,0.915-0.34,1.402-0.34c0.533,0,1.003,0.1,1.411,0.297c0.408,0.199,0.748,0.481,1.02,0.851s0.479,0.812,0.621,1.326
		c0.141,0.516,0.212,1.096,0.212,1.742c0,0.703-0.097,1.329-0.289,1.879c-0.193,0.551-0.454,1.018-0.782,1.402
		c-0.329,0.385-0.708,0.677-1.139,0.875c-0.431,0.197-0.884,0.298-1.36,0.298c-0.385,0-0.768-0.085-1.147-0.255
		s-0.762-0.402-1.147-0.697L163.758,33.697z M163.758,31.164c0.374,0.316,0.736,0.541,1.088,0.672
		c0.351,0.13,0.663,0.195,0.935,0.195c0.34,0,0.654-0.077,0.943-0.229c0.289-0.153,0.538-0.368,0.748-0.646
		c0.209-0.277,0.374-0.62,0.493-1.028c0.119-0.408,0.178-0.867,0.178-1.377c0-0.453-0.04-0.867-0.119-1.241
		c-0.08-0.374-0.207-0.693-0.383-0.96c-0.176-0.267-0.402-0.474-0.68-0.62s-0.609-0.222-0.995-0.222
		c-0.352,0-0.706,0.097-1.063,0.289s-0.74,0.471-1.147,0.833v4.334H163.758z"/>
	<path fill="#0070BB" d="M174.52,32.167c0.816-0.815,1.541-1.553,2.176-2.21c0.635-0.657,1.167-1.268,1.598-1.827
		c0.431-0.562,0.759-1.077,0.986-1.548c0.227-0.471,0.34-0.926,0.34-1.368c0-0.623-0.17-1.133-0.51-1.53
		c-0.34-0.396-0.856-0.595-1.547-0.595c-0.454,0-0.873,0.128-1.258,0.384c-0.385,0.254-0.737,0.563-1.054,0.926l-0.799-0.799
		c0.453-0.498,0.935-0.897,1.445-1.199c0.51-0.3,1.122-0.45,1.836-0.45c1.008,0,1.802,0.292,2.38,0.875
		c0.578,0.584,0.867,1.357,0.867,2.32c0,0.511-0.111,1.022-0.332,1.539c-0.221,0.516-0.527,1.049-0.918,1.598
		c-0.391,0.55-0.856,1.122-1.394,1.717c-0.539,0.596-1.13,1.229-1.776,1.896c0.294-0.022,0.601-0.045,0.918-0.067
		s0.617-0.034,0.901-0.034h3.145V33h-7.004V32.167L174.52,32.167z"/>
</g>
<g>
	<path fill="#0070BB" d="M249.33,30.581c0.396,0.419,0.864,0.756,1.402,1.011c0.539,0.256,1.097,0.383,1.675,0.383
		c0.736,0,1.309-0.167,1.717-0.501c0.408-0.335,0.612-0.773,0.612-1.318c0-0.282-0.048-0.523-0.145-0.722
		c-0.097-0.198-0.227-0.368-0.391-0.511c-0.165-0.142-0.36-0.269-0.586-0.382c-0.227-0.113-0.471-0.232-0.731-0.357l-1.598-0.697
		c-0.261-0.112-0.527-0.249-0.799-0.407c-0.272-0.159-0.516-0.352-0.731-0.578s-0.391-0.496-0.527-0.808
		c-0.136-0.312-0.204-0.672-0.204-1.08c0-0.419,0.088-0.81,0.264-1.173c0.176-0.362,0.419-0.677,0.731-0.943
		c0.312-0.266,0.68-0.473,1.105-0.62c0.425-0.147,0.893-0.222,1.402-0.222c0.669,0,1.287,0.128,1.853,0.383
		c0.567,0.255,1.048,0.587,1.445,0.995l-0.765,0.918c-0.34-0.329-0.717-0.587-1.13-0.774c-0.414-0.187-0.881-0.28-1.403-0.28
		c-0.623,0-1.125,0.145-1.504,0.434s-0.569,0.688-0.569,1.198c0,0.272,0.054,0.502,0.162,0.688c0.107,0.188,0.252,0.352,0.433,0.493
		c0.181,0.143,0.38,0.267,0.595,0.374c0.215,0.108,0.436,0.207,0.663,0.298l1.581,0.68c0.317,0.136,0.618,0.292,0.901,0.468
		s0.527,0.38,0.731,0.612s0.366,0.504,0.484,0.815c0.119,0.313,0.179,0.672,0.179,1.08c0,0.441-0.088,0.855-0.264,1.24
		c-0.176,0.386-0.428,0.723-0.756,1.012c-0.329,0.289-0.726,0.516-1.19,0.68c-0.465,0.165-0.992,0.247-1.581,0.247
		c-0.782,0-1.507-0.147-2.176-0.442c-0.669-0.294-1.247-0.696-1.734-1.207L249.33,30.581z"/>
	<path fill="#0070BB" d="M258.476,25.889h-1.224v-1.054l1.292-0.085l0.17-2.313h1.173v2.313h2.227v1.139h-2.227v4.59
		c0,0.51,0.094,0.904,0.281,1.182c0.187,0.278,0.518,0.417,0.994,0.417c0.147,0,0.306-0.023,0.476-0.068s0.323-0.097,0.459-0.153
		l0.272,1.055c-0.227,0.079-0.473,0.149-0.739,0.212c-0.267,0.063-0.53,0.094-0.791,0.094c-0.442,0-0.813-0.068-1.114-0.204
		s-0.544-0.323-0.731-0.561c-0.187-0.238-0.32-0.527-0.399-0.867c-0.08-0.34-0.119-0.714-0.119-1.122V25.889z"/>
	<path fill="#0070BB" d="M263.202,28.897c0-0.68,0.104-1.289,0.314-1.827c0.209-0.538,0.487-0.994,0.833-1.368
		c0.345-0.374,0.739-0.66,1.181-0.859c0.442-0.197,0.901-0.297,1.377-0.297c0.521,0,0.989,0.091,1.403,0.271
		c0.414,0.182,0.759,0.442,1.037,0.782c0.277,0.34,0.49,0.748,0.637,1.224c0.147,0.477,0.221,1.01,0.221,1.599
		c0,0.306-0.017,0.561-0.051,0.765h-5.576c0.057,0.896,0.332,1.604,0.824,2.125c0.493,0.521,1.136,0.782,1.93,0.782
		c0.396,0,0.762-0.06,1.096-0.179c0.334-0.119,0.655-0.274,0.961-0.468l0.493,0.918c-0.363,0.228-0.765,0.426-1.207,0.596
		c-0.442,0.17-0.946,0.255-1.513,0.255c-0.556,0-1.074-0.1-1.556-0.298c-0.482-0.198-0.901-0.481-1.258-0.85
		c-0.357-0.368-0.638-0.818-0.842-1.352C263.303,30.185,263.202,29.578,263.202,28.897z M268.981,28.269
		c0-0.85-0.179-1.498-0.536-1.946c-0.357-0.447-0.858-0.672-1.504-0.672c-0.295,0-0.575,0.06-0.841,0.179
		c-0.267,0.119-0.507,0.289-0.723,0.51c-0.215,0.222-0.394,0.493-0.536,0.816s-0.235,0.694-0.28,1.113H268.981z"/>
	<path fill="#0070BB" d="M273.64,33.709v2.788h-1.394V24.75h1.156l0.119,0.952h0.051c0.374-0.317,0.785-0.59,1.232-0.816
		c0.447-0.227,0.915-0.34,1.402-0.34c0.533,0,1.003,0.1,1.411,0.297c0.408,0.199,0.748,0.482,1.02,0.851s0.479,0.811,0.621,1.326
		c0.141,0.516,0.212,1.096,0.212,1.742c0,0.703-0.097,1.329-0.289,1.879c-0.193,0.55-0.454,1.017-0.782,1.402
		c-0.329,0.385-0.708,0.677-1.139,0.875c-0.431,0.198-0.884,0.298-1.36,0.298c-0.385,0-0.768-0.085-1.147-0.255
		s-0.762-0.402-1.147-0.697L273.64,33.709z M273.64,31.176c0.374,0.317,0.736,0.541,1.088,0.672c0.351,0.13,0.663,0.195,0.935,0.195
		c0.34,0,0.654-0.077,0.943-0.229c0.289-0.153,0.538-0.368,0.748-0.646c0.209-0.277,0.374-0.62,0.493-1.028
		c0.119-0.408,0.178-0.867,0.178-1.377c0-0.453-0.04-0.867-0.119-1.241c-0.08-0.374-0.207-0.694-0.383-0.96
		c-0.176-0.267-0.402-0.474-0.68-0.621c-0.278-0.146-0.609-0.221-0.995-0.221c-0.352,0-0.706,0.097-1.063,0.289
		s-0.74,0.471-1.147,0.833V31.176z"/>
	<path fill="#0070BB" d="M284.876,30.768c0.329,0.34,0.711,0.641,1.148,0.901c0.436,0.261,0.977,0.391,1.623,0.391
		c0.657,0,1.196-0.179,1.615-0.535c0.419-0.357,0.629-0.842,0.629-1.454c0-0.316-0.06-0.608-0.178-0.875
		c-0.119-0.267-0.314-0.496-0.587-0.688c-0.272-0.192-0.629-0.34-1.071-0.442c-0.442-0.102-0.986-0.152-1.632-0.152v-1.071
		c0.578,0,1.063-0.051,1.454-0.153c0.391-0.102,0.708-0.243,0.952-0.425c0.244-0.181,0.417-0.396,0.519-0.646
		c0.102-0.25,0.153-0.516,0.153-0.8c0-0.532-0.167-0.952-0.501-1.258s-0.791-0.459-1.368-0.459c-0.454,0-0.87,0.103-1.25,0.306
		c-0.38,0.204-0.734,0.471-1.063,0.8l-0.748-0.885c0.419-0.396,0.881-0.722,1.385-0.978c0.504-0.255,1.08-0.382,1.726-0.382
		c0.476,0,0.912,0.063,1.309,0.187c0.396,0.125,0.739,0.304,1.028,0.536s0.513,0.519,0.672,0.858c0.158,0.34,0.238,0.73,0.238,1.173
		c0,0.657-0.182,1.195-0.544,1.615c-0.363,0.419-0.839,0.742-1.428,0.969v0.068c0.329,0.079,0.635,0.195,0.918,0.348
		c0.283,0.153,0.533,0.347,0.748,0.578c0.215,0.232,0.383,0.502,0.501,0.808c0.119,0.307,0.179,0.646,0.179,1.021
		c0,0.476-0.094,0.906-0.281,1.292c-0.187,0.385-0.442,0.711-0.765,0.978c-0.323,0.266-0.7,0.47-1.131,0.611
		s-0.895,0.213-1.394,0.213c-0.431,0-0.825-0.043-1.182-0.128s-0.683-0.198-0.978-0.34c-0.295-0.142-0.559-0.303-0.791-0.484
		c-0.232-0.181-0.439-0.374-0.621-0.578L284.876,30.768z"/>
</g>
</svg>
