<?xml version="1.0" encoding="utf-8"?>
<!-- Generator: Adobe Illustrator 15.0.2, SVG Export Plug-In . SVG Version: 6.00 Build 0)  -->
<!DOCTYPE svg PUBLIC "-//W3C//DTD SVG 1.1//EN" "http://www.w3.org/Graphics/SVG/1.1/DTD/svg11.dtd">
<svg version="1.1" id="Layer_2" xmlns="http://www.w3.org/2000/svg" xmlns:xlink="http://www.w3.org/1999/xlink" x="0px" y="0px"
	 width="650px" height="45px" viewBox="0 0 650 45" enable-background="new 0 0 650 45" xml:space="preserve">
<line fill="none" stroke="#DCE4EF" stroke-width="2" stroke-miterlimit="10" x1="0.041" y1="10.181" x2="649.651" y2="10.181"/>
<g display="none">
	<circle display="inline" fill="#FFFFFF" cx="49.881" cy="10.005" r="7.5"/>
	<path display="inline" fill="#DCE4EF" d="M49.881,3.505c3.59,0,6.5,2.91,6.5,6.5s-2.91,6.5-6.5,6.5c-3.59,0-6.5-2.91-6.5-6.5
		S46.291,3.505,49.881,3.505 M49.881,1.505c-4.687,0-8.5,3.813-8.5,8.5s3.813,8.5,8.5,8.5s8.5-3.813,8.5-8.5
		S54.568,1.505,49.881,1.505L49.881,1.505z"/>
</g>
<g display="none">
	<circle display="inline" fill="#FFFFFF" cx="187.464" cy="10.005" r="7.5"/>
	<path display="inline" fill="#DCE4EF" d="M187.464,3.505c3.59,0,6.5,2.91,6.5,6.5s-2.91,6.5-6.5,6.5c-3.59,0-6.5-2.91-6.5-6.5
		S183.874,3.505,187.464,3.505 M187.464,1.505c-4.687,0-8.5,3.813-8.5,8.5s3.813,8.5,8.5,8.5s8.5-3.813,8.5-8.5
		S192.151,1.505,187.464,1.505L187.464,1.505z"/>
</g>
<g display="none">
	<circle display="inline" fill="#FFFFFF" cx="325.047" cy="10.005" r="7.5"/>
	<path display="inline" fill="#DCE4EF" d="M325.047,3.505c3.59,0,6.5,2.91,6.5,6.5s-2.91,6.5-6.5,6.5s-6.5-2.91-6.5-6.5
		S321.458,3.505,325.047,3.505 M325.047,1.505c-4.687,0-8.5,3.813-8.5,8.5s3.813,8.5,8.5,8.5c4.688,0,8.5-3.813,8.5-8.5
		S329.734,1.505,325.047,1.505L325.047,1.505z"/>
</g>
<g display="none">
	<circle display="inline" fill="#FFFFFF" cx="462.631" cy="10.005" r="7.5"/>
	<path display="inline" fill="#DCE4EF" d="M462.631,3.505c3.59,0,6.5,2.91,6.5,6.5s-2.91,6.5-6.5,6.5s-6.5-2.91-6.5-6.5
		S459.041,3.505,462.631,3.505 M462.631,1.505c-4.687,0-8.5,3.813-8.5,8.5s3.813,8.5,8.5,8.5c4.688,0,8.5-3.813,8.5-8.5
		S467.318,1.505,462.631,1.505L462.631,1.505z"/>
</g>
<g display="none">
	<circle display="inline" fill="#FFFFFF" cx="600.214" cy="10.005" r="7.5"/>
	<path display="inline" fill="#DCE4EF" d="M600.214,3.505c3.59,0,6.5,2.91,6.5,6.5s-2.91,6.5-6.5,6.5s-6.5-2.91-6.5-6.5
		S596.624,3.505,600.214,3.505 M600.214,1.505c-4.687,0-8.5,3.813-8.5,8.5s3.813,8.5,8.5,8.5c4.688,0,8.5-3.813,8.5-8.5
		S604.901,1.505,600.214,1.505L600.214,1.505z"/>
</g>
<g>
	<path fill="#0070BB" d="M29.641,30.569c0.397,0.419,0.861,0.756,1.394,1.011c0.533,0.256,1.094,0.383,1.683,0.383
		c0.737,0,1.309-0.167,1.717-0.501c0.408-0.335,0.612-0.773,0.612-1.318c0-0.282-0.048-0.523-0.145-0.722s-0.229-0.368-0.399-0.511
		c-0.17-0.142-0.369-0.269-0.595-0.382s-0.47-0.232-0.731-0.357l-1.598-0.697c-0.261-0.112-0.524-0.249-0.79-0.407
		c-0.267-0.159-0.51-0.352-0.731-0.578c-0.221-0.227-0.399-0.496-0.535-0.808c-0.136-0.312-0.204-0.672-0.204-1.08
		c0-0.419,0.087-0.81,0.264-1.173c0.175-0.362,0.422-0.677,0.739-0.943c0.317-0.266,0.688-0.473,1.114-0.62
		c0.425-0.147,0.892-0.222,1.402-0.222c0.668,0,1.283,0.128,1.844,0.383s1.04,0.587,1.437,0.995l-0.748,0.918
		c-0.34-0.329-0.72-0.587-1.139-0.774c-0.419-0.187-0.884-0.28-1.394-0.28c-0.635,0-1.142,0.145-1.521,0.434
		c-0.38,0.289-0.57,0.688-0.57,1.198c0,0.272,0.057,0.502,0.17,0.688c0.113,0.188,0.257,0.352,0.433,0.493
		c0.176,0.143,0.374,0.267,0.595,0.374c0.221,0.108,0.439,0.207,0.654,0.298l1.598,0.68c0.317,0.136,0.618,0.292,0.901,0.468
		s0.527,0.38,0.731,0.612c0.204,0.232,0.366,0.504,0.485,0.815c0.119,0.313,0.178,0.672,0.178,1.08c0,0.441-0.088,0.855-0.263,1.24
		c-0.176,0.386-0.428,0.723-0.757,1.012s-0.728,0.516-1.198,0.68c-0.471,0.165-1,0.247-1.589,0.247
		c-0.782,0-1.505-0.147-2.168-0.442c-0.663-0.294-1.238-0.696-1.725-1.207L29.641,30.569z"/>
	<path fill="#0070BB" d="M38.736,25.877h-1.224v-1.054l1.292-0.085l0.17-2.313h1.173v2.313h2.227v1.139h-2.227v4.59
		c0,0.51,0.094,0.904,0.281,1.182c0.187,0.278,0.518,0.417,0.994,0.417c0.147,0,0.306-0.023,0.476-0.068s0.323-0.097,0.459-0.153
		l0.272,1.055c-0.227,0.079-0.473,0.149-0.739,0.212c-0.267,0.063-0.53,0.094-0.791,0.094c-0.442,0-0.813-0.068-1.114-0.204
		s-0.544-0.323-0.731-0.561c-0.187-0.238-0.32-0.527-0.399-0.867c-0.08-0.34-0.119-0.714-0.119-1.122V25.877z"/>
	<path fill="#0070BB" d="M43.462,28.886c0-0.68,0.104-1.289,0.314-1.827c0.209-0.538,0.487-0.994,0.833-1.368
		c0.345-0.374,0.739-0.66,1.181-0.859c0.442-0.197,0.901-0.297,1.377-0.297c0.521,0,0.989,0.091,1.403,0.271
		c0.414,0.182,0.759,0.442,1.037,0.782c0.277,0.34,0.49,0.748,0.637,1.224c0.147,0.477,0.221,1.01,0.221,1.599
		c0,0.306-0.017,0.561-0.051,0.765h-5.576c0.057,0.896,0.332,1.604,0.824,2.125c0.493,0.521,1.136,0.782,1.93,0.782
		c0.396,0,0.762-0.06,1.096-0.179c0.334-0.119,0.655-0.274,0.961-0.468l0.493,0.918c-0.363,0.228-0.765,0.426-1.207,0.596
		c-0.442,0.17-0.946,0.255-1.513,0.255c-0.556,0-1.074-0.1-1.556-0.298c-0.482-0.198-0.901-0.481-1.258-0.85
		c-0.357-0.368-0.638-0.818-0.842-1.352C43.564,30.173,43.462,29.566,43.462,28.886z M49.242,28.257c0-0.85-0.179-1.498-0.536-1.946
		c-0.357-0.447-0.858-0.672-1.504-0.672c-0.295,0-0.575,0.06-0.841,0.179c-0.267,0.119-0.507,0.289-0.723,0.51
		c-0.215,0.222-0.394,0.493-0.536,0.816s-0.235,0.694-0.28,1.113H49.242z"/>
	<path fill="#0070BB" d="M53.9,33.697v2.788h-1.394V24.738h1.156l0.119,0.952h0.051c0.374-0.317,0.785-0.59,1.232-0.816
		c0.447-0.227,0.915-0.34,1.402-0.34c0.533,0,1.003,0.1,1.411,0.297c0.408,0.199,0.748,0.482,1.02,0.851s0.479,0.811,0.621,1.326
		c0.141,0.516,0.212,1.096,0.212,1.742c0,0.703-0.097,1.329-0.289,1.879c-0.193,0.55-0.454,1.017-0.782,1.402
		c-0.329,0.385-0.708,0.677-1.139,0.875c-0.431,0.198-0.884,0.298-1.36,0.298c-0.385,0-0.768-0.085-1.147-0.255
		s-0.762-0.402-1.147-0.697L53.9,33.697z M53.9,31.164c0.374,0.317,0.736,0.541,1.088,0.672c0.351,0.13,0.663,0.195,0.935,0.195
		c0.34,0,0.654-0.077,0.943-0.229c0.289-0.153,0.538-0.368,0.748-0.646c0.209-0.277,0.374-0.62,0.493-1.028
		c0.119-0.408,0.178-0.867,0.178-1.377c0-0.453-0.04-0.867-0.119-1.241c-0.08-0.374-0.207-0.694-0.383-0.96
		c-0.176-0.267-0.402-0.474-0.68-0.621c-0.278-0.146-0.609-0.221-0.995-0.221c-0.352,0-0.706,0.097-1.063,0.289
		s-0.74,0.471-1.147,0.833V31.164z"/>
	<path fill="#0070BB" d="M65.324,31.844h2.482v-7.99h-1.972v-0.9c0.499-0.091,0.932-0.201,1.3-0.332
		c0.368-0.13,0.7-0.286,0.995-0.467H69.2v9.689h2.244V33h-6.12V31.844z"/>
</g>
<g>
	<path fill="#0070BB" d="M578.934,30.569c0.397,0.419,0.861,0.756,1.395,1.011c0.533,0.256,1.094,0.383,1.684,0.383
		c0.736,0,1.309-0.167,1.717-0.501c0.408-0.335,0.611-0.773,0.611-1.318c0-0.282-0.048-0.523-0.145-0.722
		c-0.096-0.198-0.229-0.368-0.398-0.511c-0.17-0.142-0.369-0.269-0.596-0.382s-0.471-0.232-0.73-0.357l-1.599-0.697
		c-0.261-0.112-0.524-0.249-0.79-0.407c-0.267-0.159-0.51-0.352-0.731-0.578c-0.221-0.227-0.399-0.496-0.535-0.808
		s-0.204-0.672-0.204-1.08c0-0.419,0.088-0.81,0.264-1.173c0.176-0.362,0.422-0.677,0.739-0.943c0.317-0.266,0.688-0.473,1.114-0.62
		c0.424-0.147,0.892-0.222,1.402-0.222c0.668,0,1.283,0.128,1.844,0.383s1.04,0.587,1.437,0.995l-0.748,0.918
		c-0.34-0.329-0.72-0.587-1.139-0.774c-0.419-0.187-0.884-0.28-1.394-0.28c-0.635,0-1.143,0.145-1.521,0.434
		c-0.381,0.289-0.57,0.688-0.57,1.198c0,0.272,0.057,0.502,0.17,0.688c0.113,0.188,0.258,0.352,0.434,0.493
		c0.176,0.143,0.374,0.267,0.596,0.374c0.221,0.108,0.438,0.207,0.654,0.298l1.598,0.68c0.317,0.136,0.617,0.292,0.9,0.468
		s0.527,0.38,0.731,0.612s0.366,0.504,0.485,0.815c0.118,0.313,0.178,0.672,0.178,1.08c0,0.441-0.088,0.855-0.264,1.24
		c-0.176,0.386-0.428,0.723-0.756,1.012c-0.329,0.289-0.729,0.516-1.199,0.68c-0.471,0.165-1,0.247-1.589,0.247
		c-0.782,0-1.505-0.147-2.168-0.442c-0.663-0.294-1.238-0.696-1.726-1.207L578.934,30.569z"/>
	<path fill="#0070BB" d="M588.029,25.877h-1.225v-1.054l1.293-0.085l0.17-2.313h1.172v2.313h2.228v1.139h-2.228v4.59
		c0,0.51,0.094,0.904,0.281,1.182c0.188,0.278,0.518,0.417,0.994,0.417c0.147,0,0.307-0.023,0.477-0.068s0.322-0.097,0.459-0.153
		l0.271,1.055c-0.227,0.079-0.473,0.149-0.739,0.212s-0.53,0.094-0.79,0.094c-0.442,0-0.814-0.068-1.114-0.204
		s-0.544-0.323-0.731-0.561c-0.187-0.238-0.32-0.527-0.398-0.867c-0.08-0.34-0.119-0.714-0.119-1.122V25.877z"/>
	<path fill="#0070BB" d="M592.756,28.886c0-0.68,0.104-1.289,0.314-1.827c0.209-0.538,0.486-0.994,0.832-1.368
		s0.74-0.66,1.182-0.859c0.442-0.197,0.901-0.297,1.377-0.297c0.521,0,0.988,0.091,1.402,0.271c0.414,0.182,0.76,0.442,1.037,0.782
		s0.49,0.748,0.638,1.224c0.147,0.477,0.222,1.01,0.222,1.599c0,0.306-0.018,0.561-0.052,0.765h-5.575
		c0.057,0.896,0.331,1.604,0.824,2.125c0.492,0.521,1.136,0.782,1.93,0.782c0.396,0,0.762-0.06,1.096-0.179s0.654-0.274,0.961-0.468
		l0.492,0.918c-0.362,0.228-0.764,0.426-1.207,0.596c-0.441,0.17-0.945,0.255-1.512,0.255c-0.557,0-1.074-0.1-1.557-0.298
		c-0.481-0.198-0.9-0.481-1.258-0.85s-0.637-0.818-0.842-1.352C592.857,30.173,592.756,29.566,592.756,28.886z M598.535,28.257
		c0-0.85-0.179-1.498-0.535-1.946c-0.357-0.447-0.859-0.672-1.505-0.672c-0.295,0-0.575,0.06-0.841,0.179
		c-0.268,0.119-0.508,0.289-0.723,0.51c-0.216,0.222-0.395,0.493-0.536,0.816s-0.235,0.694-0.28,1.113H598.535z"/>
	<path fill="#0070BB" d="M603.193,33.697v2.788h-1.395V24.738h1.156l0.119,0.952h0.051c0.374-0.317,0.785-0.59,1.232-0.816
		s0.915-0.34,1.402-0.34c0.533,0,1.003,0.1,1.411,0.297c0.407,0.199,0.748,0.482,1.021,0.851c0.271,0.368,0.479,0.811,0.62,1.326
		s0.212,1.096,0.212,1.742c0,0.703-0.096,1.329-0.289,1.879c-0.192,0.55-0.453,1.017-0.781,1.402
		c-0.329,0.385-0.709,0.677-1.139,0.875c-0.432,0.198-0.885,0.298-1.361,0.298c-0.385,0-0.768-0.085-1.146-0.255
		c-0.381-0.17-0.763-0.402-1.148-0.697L603.193,33.697z M603.193,31.164c0.373,0.317,0.736,0.541,1.088,0.672
		c0.351,0.13,0.662,0.195,0.935,0.195c0.34,0,0.654-0.077,0.943-0.229c0.289-0.153,0.538-0.368,0.748-0.646
		c0.21-0.277,0.374-0.62,0.493-1.028s0.178-0.867,0.178-1.377c0-0.453-0.039-0.867-0.118-1.241s-0.207-0.694-0.383-0.96
		c-0.176-0.267-0.402-0.474-0.68-0.621c-0.278-0.146-0.609-0.221-0.995-0.221c-0.352,0-0.705,0.097-1.063,0.289
		c-0.356,0.192-0.739,0.471-1.146,0.833V31.164z"/>
	<path fill="#0070BB" d="M614.43,30.756c0.328,0.34,0.711,0.641,1.148,0.901c0.436,0.261,0.977,0.391,1.623,0.391
		c0.656,0,1.195-0.179,1.615-0.535c0.418-0.357,0.629-0.842,0.629-1.454c0-0.316-0.061-0.608-0.179-0.875
		c-0.119-0.267-0.314-0.496-0.587-0.688c-0.271-0.192-0.629-0.34-1.07-0.442c-0.442-0.102-0.986-0.152-1.633-0.152v-1.071
		c0.578,0,1.063-0.051,1.454-0.153c0.391-0.102,0.708-0.243,0.952-0.425c0.243-0.181,0.416-0.396,0.518-0.646
		c0.103-0.25,0.153-0.516,0.153-0.8c0-0.532-0.167-0.952-0.501-1.258c-0.335-0.306-0.791-0.459-1.369-0.459
		c-0.453,0-0.869,0.103-1.249,0.306c-0.38,0.204-0.733,0.471-1.063,0.8l-0.748-0.885c0.419-0.396,0.881-0.722,1.386-0.978
		c0.504-0.255,1.079-0.382,1.725-0.382c0.477,0,0.912,0.063,1.31,0.187c0.396,0.125,0.739,0.304,1.028,0.536
		s0.513,0.519,0.672,0.858c0.158,0.34,0.238,0.73,0.238,1.173c0,0.657-0.182,1.195-0.545,1.615
		c-0.362,0.419-0.838,0.742-1.428,0.969v0.068c0.328,0.079,0.635,0.195,0.918,0.348c0.283,0.153,0.533,0.347,0.748,0.578
		c0.215,0.232,0.383,0.502,0.502,0.808c0.119,0.307,0.178,0.646,0.178,1.021c0,0.476-0.094,0.906-0.28,1.292
		c-0.187,0.385-0.442,0.711-0.765,0.978c-0.323,0.266-0.7,0.47-1.131,0.611s-0.895,0.213-1.394,0.213
		c-0.431,0-0.825-0.043-1.182-0.128s-0.683-0.198-0.978-0.34s-0.559-0.303-0.791-0.484c-0.232-0.181-0.439-0.374-0.62-0.578
		L614.43,30.756z"/>
</g>
<g>
	<path fill="#0070BB" d="M304.287,30.569c0.397,0.419,0.861,0.756,1.394,1.011c0.533,0.256,1.094,0.383,1.683,0.383
		c0.737,0,1.309-0.167,1.717-0.501c0.408-0.335,0.612-0.773,0.612-1.318c0-0.282-0.048-0.523-0.145-0.722s-0.229-0.368-0.399-0.511
		c-0.17-0.142-0.369-0.269-0.595-0.382s-0.47-0.232-0.731-0.357l-1.598-0.697c-0.261-0.112-0.524-0.249-0.79-0.407
		c-0.267-0.159-0.51-0.352-0.731-0.578c-0.221-0.227-0.399-0.496-0.535-0.808c-0.136-0.312-0.204-0.672-0.204-1.08
		c0-0.419,0.087-0.81,0.264-1.173c0.175-0.362,0.422-0.677,0.739-0.943c0.317-0.266,0.688-0.473,1.114-0.62
		c0.425-0.147,0.892-0.222,1.402-0.222c0.668,0,1.283,0.128,1.844,0.383s1.04,0.587,1.437,0.995l-0.748,0.918
		c-0.34-0.329-0.72-0.587-1.139-0.774c-0.419-0.187-0.884-0.28-1.394-0.28c-0.635,0-1.142,0.145-1.521,0.434
		c-0.38,0.289-0.57,0.688-0.57,1.198c0,0.272,0.057,0.502,0.17,0.688c0.113,0.188,0.257,0.352,0.433,0.493
		c0.176,0.143,0.374,0.267,0.595,0.374c0.221,0.108,0.439,0.207,0.654,0.298l1.598,0.68c0.317,0.136,0.618,0.292,0.901,0.468
		s0.527,0.38,0.731,0.612c0.204,0.232,0.366,0.504,0.485,0.815c0.119,0.313,0.178,0.672,0.178,1.08c0,0.441-0.088,0.855-0.263,1.24
		c-0.176,0.386-0.428,0.723-0.757,1.012s-0.728,0.516-1.198,0.68c-0.471,0.165-1,0.247-1.589,0.247
		c-0.782,0-1.505-0.147-2.168-0.442c-0.663-0.294-1.238-0.696-1.725-1.207L304.287,30.569z"/>
	<path fill="#0070BB" d="M313.382,25.877h-1.224v-1.054l1.292-0.085l0.17-2.313h1.173v2.313h2.227v1.139h-2.227v4.59
		c0,0.51,0.094,0.904,0.281,1.182c0.187,0.278,0.518,0.417,0.994,0.417c0.147,0,0.306-0.023,0.476-0.068s0.323-0.097,0.459-0.153
		l0.272,1.055c-0.227,0.079-0.473,0.149-0.739,0.212c-0.267,0.063-0.53,0.094-0.791,0.094c-0.442,0-0.813-0.068-1.114-0.204
		s-0.544-0.323-0.731-0.561c-0.187-0.238-0.32-0.527-0.399-0.867c-0.08-0.34-0.119-0.714-0.119-1.122V25.877z"/>
	<path fill="#0070BB" d="M318.108,28.886c0-0.68,0.104-1.289,0.314-1.827c0.209-0.538,0.487-0.994,0.833-1.368
		c0.345-0.374,0.739-0.66,1.181-0.859c0.442-0.197,0.901-0.297,1.377-0.297c0.521,0,0.989,0.091,1.403,0.271
		c0.414,0.182,0.759,0.442,1.037,0.782c0.277,0.34,0.49,0.748,0.637,1.224c0.147,0.477,0.221,1.01,0.221,1.599
		c0,0.306-0.017,0.561-0.051,0.765h-5.576c0.057,0.896,0.332,1.604,0.824,2.125c0.493,0.521,1.136,0.782,1.93,0.782
		c0.396,0,0.762-0.06,1.096-0.179c0.334-0.119,0.655-0.274,0.961-0.468l0.493,0.918c-0.363,0.228-0.765,0.426-1.207,0.596
		c-0.442,0.17-0.946,0.255-1.513,0.255c-0.556,0-1.074-0.1-1.556-0.298c-0.482-0.198-0.901-0.481-1.258-0.85
		c-0.357-0.368-0.638-0.818-0.842-1.352C318.21,30.173,318.108,29.566,318.108,28.886z M323.888,28.257
		c0-0.85-0.179-1.498-0.536-1.946c-0.357-0.447-0.858-0.672-1.504-0.672c-0.295,0-0.575,0.06-0.841,0.179
		c-0.267,0.119-0.507,0.289-0.723,0.51c-0.215,0.222-0.394,0.493-0.536,0.816s-0.235,0.694-0.28,1.113H323.888z"/>
	<path fill="#0070BB" d="M328.546,33.697v2.788h-1.394V24.738h1.155l0.119,0.952h0.052c0.373-0.317,0.784-0.59,1.232-0.816
		c0.447-0.227,0.914-0.34,1.402-0.34c0.532,0,1.002,0.1,1.41,0.297c0.408,0.199,0.748,0.482,1.021,0.851s0.479,0.811,0.62,1.326
		s0.213,1.096,0.213,1.742c0,0.703-0.097,1.329-0.289,1.879c-0.193,0.55-0.453,1.017-0.782,1.402
		c-0.329,0.385-0.708,0.677-1.139,0.875s-0.884,0.298-1.36,0.298c-0.385,0-0.768-0.085-1.147-0.255s-0.763-0.402-1.147-0.697
		L328.546,33.697z M328.546,31.164c0.374,0.317,0.736,0.541,1.088,0.672c0.351,0.13,0.663,0.195,0.935,0.195
		c0.34,0,0.654-0.077,0.943-0.229c0.289-0.153,0.539-0.368,0.748-0.646c0.21-0.277,0.375-0.62,0.494-1.028
		c0.118-0.408,0.178-0.867,0.178-1.377c0-0.453-0.039-0.867-0.119-1.241c-0.079-0.374-0.207-0.694-0.383-0.96
		c-0.176-0.267-0.402-0.474-0.68-0.621c-0.277-0.146-0.609-0.221-0.994-0.221c-0.352,0-0.705,0.097-1.063,0.289
		s-0.74,0.471-1.147,0.833V31.164z"/>
	<path fill="#0070BB" d="M339.307,32.167c0.816-0.816,1.541-1.553,2.176-2.21s1.168-1.267,1.599-1.827
		c0.431-0.562,0.759-1.077,0.985-1.548c0.227-0.47,0.34-0.926,0.34-1.368c0-0.623-0.17-1.133-0.51-1.53
		c-0.34-0.396-0.855-0.595-1.547-0.595c-0.453,0-0.873,0.128-1.258,0.383s-0.736,0.563-1.054,0.927l-0.8-0.8
		c0.453-0.498,0.936-0.897,1.445-1.198c0.51-0.3,1.123-0.45,1.836-0.45c1.009,0,1.803,0.292,2.381,0.875
		c0.578,0.584,0.867,1.357,0.867,2.321c0,0.51-0.111,1.022-0.332,1.538s-0.527,1.049-0.918,1.598
		c-0.391,0.55-0.855,1.122-1.395,1.717c-0.538,0.596-1.13,1.228-1.775,1.896c0.294-0.022,0.6-0.045,0.918-0.067
		c0.316-0.022,0.617-0.034,0.9-0.034h3.145V33h-7.004V32.167z"/>
</g>
</svg>
