<?xml version="1.0" encoding="utf-8"?>
<!-- Generator: Adobe Illustrator 20.0.0, SVG Export Plug-In . SVG Version: 6.00 Build 0)  -->
<svg version="1.1" id="Layer_2" xmlns="http://www.w3.org/2000/svg" xmlns:xlink="http://www.w3.org/1999/xlink" x="0px" y="0px"
	 width="182px" height="57px" viewBox="0 0 182 57" enable-background="new 0 0 182 57" xml:space="preserve">
<path fill="#0070BB" d="M182,56c0,0.5-0.4,1-1,1H1c-0.6,0-1-0.5-1-1V0h182V56z"/>
<g>
	<g>
		<path fill="#FCFCFC" d="M10.9,11.1c0.7,0,1.5,0,2.2,0c0.8,0,1.3,0,1.8,0l-0.1,0.5L14,12.2v4.4h6.8v-4.4l-1-0.7l0.2-0.4
			c0.6,0,1.1,0,1.7,0c0.9,0,1.8,0,2.6,0L24,11.6l-1.6,0.6v5.1c0,2.2,0.1,5.3,0.1,5.6l1.8,0.6L24.2,24c-0.8,0-1.7,0-2.6,0
			c-0.7,0-1.3,0-1.8,0l0.1-0.5l0.8-0.6c0.1-1.9,0-3.6,0-5.5c-0.4,0.1-1.5,0.1-2.5,0.1H14c0,1.6-0.1,3.2,0,5.3l0.9,0.7L14.7,24
			c-0.5,0-1,0-1.7,0c-0.8,0-1.8,0-2.5,0l0.2-0.5l1.5-0.6c0-0.5,0.1-3.4,0.1-5.7v-5.1l-1.6-0.6L10.9,11.1z"/>
		<path fill="#FCFCFC" d="M26.4,11.4c0.9-0.2,3-0.4,4.6-0.4c3.2,0,4.8,1.1,4.8,3.3c0,2.1-1.6,3-3,3.4v0c0.4,0.7,1.9,2.8,3,4.3
			c1.1,1.4,1.4,1.8,1.6,2.1l-0.1,0.2c-1.5-0.1-2.3-0.6-3.1-1.5c-0.8-1-2.2-2.8-3.5-4.8l0.1-0.1c1.8-0.5,3.2-1.3,3.2-3.3
			c0-2.4-2-2.9-4.3-2.8v6c0,2.7,0,4.2,0,5.2l1.9,0.6L31.4,24c-0.9,0-1.8,0-2.8,0c-0.8,0-1.7,0-2.5,0l0.1-0.5l1.5-0.6
			c0-0.7,0.1-2.6,0.1-5.2v-5.7l-1.6-0.2L26.4,11.4z"/>
		<path fill="#FCFCFC" d="M43.7,11.1c0.8,0,1.6,0,2.3,0c0.7,0,1.5,0,2.1,0l-0.1,0.5l-1,0.6c0,2.4,0,4.7,0,7.5c0,0.8,0.2,1.5,0.6,2.1
			c0.6,0.9,1.8,1.5,3.2,1.5c1.4,0,2.4-0.5,3.1-1.4c0.4-0.6,0.7-1.4,0.7-2.5c0.1-2.7,0-5,0-7.2l-1.4-0.6l0.1-0.5c0.6,0,1.3,0,1.9,0
			c0.8,0,1.6,0,2.3,0l-0.1,0.5l-1.6,0.6c-0.1,0.4-0.1,0.9-0.2,7c0,1.2-0.3,2.2-0.8,3.1c-0.8,1.3-2.3,2.1-4.3,2.1
			c-1.9,0-3.6-0.6-4.5-2.2c-0.4-0.7-0.6-1.6-0.6-2.8c0-2.9,0-5.9,0-7.2l-1.6-0.6L43.7,11.1z"/>
		<path fill="#FCFCFC" d="M59.4,16.7l-1-0.4l0.1-0.4c0.3-0.2,1.9-0.7,2.5-0.7L61,16.7h0c1.5-1.2,2.3-1.5,3.1-1.5
			c2,0,2.6,1.7,2.6,3.1v4.4c0,0.2,0.1,0.3,0.3,0.4l1.1,0.5L68,24c-0.5,0-1.4,0-2.2,0c-0.5,0-1.1,0-1.7,0l0.1-0.5L65,23
			c0-0.6,0.1-2,0.1-4.5c0-1.5-0.8-2.1-1.8-2.1c-0.8,0-1.7,0.6-2.2,1.1c0,1.5,0,5.2,0,5.6l1.1,0.5L62.1,24c-0.5,0-1.2,0-1.9,0
			c-0.7,0-1.4,0-2,0l0.1-0.4l1.1-0.5c0-0.3,0.1-2.1,0.1-4.6V16.7z"/>
		<path fill="#FCFCFC" d="M69.8,15.7c0.3-0.1,1.5-0.4,2.6-0.6v3.9c0,2.2,0,3.3,0,3.9l1.4,0.6L73.7,24c-0.7,0-1.4,0-2.2,0
			c-0.6,0-1.3,0-2,0l0.1-0.4l1.1-0.6c0-0.7,0-2.3,0-3.9v-2.5l-1-0.5L69.8,15.7z M71.6,11.1c0.3,0.1,0.8,0.7,1,1.1l0,0.2
			c-0.2,0.4-0.8,1-1,1.1l-0.2,0c-0.3-0.2-0.8-0.7-1-1.1l0-0.2c0.3-0.4,0.7-0.9,1-1.1L71.6,11.1z"/>
		<path fill="#FCFCFC" d="M74.7,15.4c0.5,0,1.1,0,1.8,0c0.6,0,1.2,0,1.7,0l-0.2,0.5l-0.6,0.5c0.4,1.1,1.1,3,2.1,5.5l0,0
			c0.4-1,0.8-2.1,2-5.4l-0.8-0.6l0.1-0.5c0.3,0,0.9,0,1.3,0c0.5,0,1.2,0,1.6,0l-0.1,0.5c-0.6,0.3-0.9,0.5-1.2,0.9
			c-0.3,0.6-2,4.8-2.7,6.5c-0.2,0.4-0.5,0.8-0.7,1h-0.2c-0.2-0.4-1.7-4.4-3.1-7.6c-0.3-0.5-0.7-0.6-1.3-0.9L74.7,15.4z"/>
		<path fill="#FCFCFC" d="M86.7,19.4c0,0.1,0,0.2,0,0.3c0,2.2,1.4,3.5,3.1,3.5c0.3,0,0.5,0,0.7-0.1c0.6-0.4,1.2-0.8,1.6-1.1l0.1,0.3
			c-0.1,0.4-0.9,1.2-1.1,1.4c-0.4,0.2-1.4,0.5-2,0.5c-2.4,0-4.1-1.7-4.1-4.4c0-2.8,2-4.7,4.2-4.7c1.8,0,3.3,1.2,3.3,3.4
			c0,0.2-0.1,0.5-0.2,0.6c-0.2,0.1-0.9,0.3-1.8,0.3H86.7z M90.6,18.7c0.1-0.1,0.1-0.4,0.1-0.6c0-1.2-0.6-2.3-1.7-2.3
			c-1.6,0-2.3,2-2.3,2.9H90.6z"/>
		<path fill="#FCFCFC" d="M94.5,15.8c0.3-0.2,1.6-0.6,2.2-0.7c0.1,0.4,0.2,1.3,0.2,1.9h0c0.8-1.4,1.9-1.9,2.7-1.9
			c0.4,0,0.8,0.1,1,0.3c-0.1,0.5-0.4,1.6-0.6,2.1l-0.2,0.1c-0.2-0.3-0.4-0.7-0.7-1.3c-0.1,0-0.2-0.1-0.3-0.1c-0.6,0-1.4,0.7-1.8,1.7
			V23l2,0.6L98.9,24c-0.7,0-1.7,0-2.8,0c-0.6,0-1.4,0-2,0l0.1-0.4l1.1-0.6c0.1-2,0.1-5.3,0.1-6.2l-1-0.6L94.5,15.8z"/>
		<path fill="#FCFCFC" d="M105.3,15.2c0.4,0,1,0.2,1.4,0.5c0.3-0.2,0.7-0.4,1-0.5l0.2,0.1c0,0.4-0.3,1.9-0.5,2.4l-0.3,0.1
			c-0.2-0.4-0.5-1-0.7-1.5c-0.1-0.1-0.5-0.3-1.1-0.3c-1,0-1.5,0.6-1.5,1.3c0,0.5,0.2,0.8,0.7,1.1c0.6,0.3,1.7,0.8,2.3,1.1
			c1.1,0.5,1.5,1.3,1.5,2.1c0,2.1-2.2,2.7-3.4,2.7c-1,0-2.1-0.4-2.8-0.8c0-0.4,0.3-1.9,0.4-2.1l0.3-0.2c0.3,0.5,0.7,1.7,0.9,2.2
			c0.3,0.1,0.7,0.2,1.2,0.2c1,0,1.8-0.6,1.8-1.4c0-0.5-0.2-0.9-0.8-1.2c-0.5-0.3-1.2-0.6-1.9-0.9c-1.1-0.5-1.7-1.2-1.7-2.3
			C102.4,16.5,103.4,15.2,105.3,15.2L105.3,15.2z"/>
		<path fill="#FCFCFC" d="M110.4,15.7c0.3-0.1,1.5-0.4,2.6-0.6v3.9c0,2.2,0,3.3,0,3.9l1.4,0.6l-0.1,0.4c-0.7,0-1.4,0-2.2,0
			c-0.6,0-1.3,0-2,0l0.1-0.4l1.1-0.6c0-0.7,0-2.3,0-3.9v-2.5l-1-0.5L110.4,15.7z M112.3,11.1c0.3,0.1,0.8,0.7,1,1.1l0,0.2
			c-0.2,0.4-0.8,1-1,1.1l-0.2,0c-0.3-0.2-0.8-0.7-1-1.1l0-0.2c0.3-0.4,0.7-0.9,1-1.1L112.3,11.1z"/>
		<path fill="#FCFCFC" d="M121.5,15.4l-0.4,0.7l-2.6,0.2c0,0.9,0,3.1,0,5.5c0,0.5,0.2,0.8,0.3,0.9c0.2,0.2,0.5,0.3,1,0.3
			c0.7,0,1.3-0.2,1.6-0.5l0.1,0l0,0.6c-0.5,0.6-1.2,1-2.3,1c-0.8,0-1.4-0.3-1.9-0.8c-0.3-0.4-0.4-0.8-0.4-2.1v-5l-1.3-0.3l0.3-0.7h1
			c0.1-0.5,0.3-1.6,0.5-2.2c0.3-0.3,0.9-0.6,1.2-0.6l-0.1,2.8H121.5z"/>
		<path fill="#FCFCFC" d="M128.4,15.4c0.4,0,0.9,0,1.3,0c0.6,0,1.2,0,1.6,0l-0.1,0.4c-0.6,0.3-0.9,0.5-1.2,0.8
			c-0.7,1.6-2.3,5.5-4.1,9.8c-0.2,0.7-0.3,1.5-0.5,2.2c-0.1,0.1-0.3,0.1-0.4,0.1c-0.6,0-1.2-0.4-1.4-0.6c0.2-0.4,1-1.4,1.7-2.2
			c0.3-0.5,0.7-1.5,1-2.2c-0.2-0.4-2-5.3-2.8-7.1c-0.3-0.4-0.5-0.5-1.4-0.9l0.2-0.4c0.6,0,1.2,0,1.8,0c0.6,0,1.2,0,1.8,0l-0.1,0.5
			l-0.6,0.5c0.2,0.7,0.9,2.5,1.9,5.4h0c0.8-2,1.6-4.3,1.9-5.4l-0.9-0.5L128.4,15.4z"/>
	</g>
	<g>
		<path fill="#FCFCFC" d="M17.3,40.5l-0.1,0.4c-0.3,0.1-0.6,0.1-0.9,0.1c-0.2,0-0.6,0-1.1-0.1c-0.4,0-0.7,0-1,0c-0.5,0-1,0-1.6,0.1
			l0.1-0.4c0.5-0.1,0.9-0.2,1.1-0.3c0.2-0.1,0.3-0.3,0.4-0.6c0.1-0.3,0.4-1.3,0.8-3l1-4.1l0.1-0.2c-0.3,0-0.5,0-0.7,0
			c-0.9,0-1.7,0.1-2.2,0.3c-0.5,0.2-1,0.5-1.2,0.9c-0.3,0.4-0.4,0.8-0.4,1.3c0,0.2,0,0.3,0.1,0.4c0,0.1,0.2,0.2,0.3,0.4
			c0.2,0.2,0.3,0.4,0.3,0.5c0,0.1-0.1,0.3-0.2,0.4c-0.1,0.1-0.2,0.1-0.4,0.1c-0.2,0-0.4-0.1-0.5-0.3c-0.2-0.3-0.3-0.7-0.3-1.1
			c0-0.6,0.2-1.2,0.6-1.8c0.4-0.6,0.9-1,1.6-1.4c0.7-0.3,1.5-0.5,2.4-0.5c0.5,0,1.2,0.1,2.2,0.2c0.7,0.1,1.2,0.1,1.5,0.1
			c0.3,0,0.5-0.1,0.7-0.2c0.1-0.1,0.2-0.2,0.2-0.4c0,0,0-0.1,0-0.2c0-0.1,0-0.2,0-0.2c0-0.1,0-0.3,0.1-0.3c0.1-0.1,0.2-0.1,0.3-0.1
			c0.2,0,0.3,0.1,0.4,0.2c0.1,0.1,0.1,0.3,0.1,0.5c0,0.4-0.2,0.7-0.6,1c-0.4,0.3-1.1,0.4-2.1,0.4c-0.3,0-0.7,0-1.1,0
			c-0.1,0.2-0.2,0.8-0.5,1.9l-0.7,2.6l-0.4,1.6l-0.4,1.8c0.3,0,0.6,0.1,0.8,0.1C16.6,40.6,16.9,40.6,17.3,40.5z"/>
		<path fill="#FCFCFC" d="M22.9,39l0.3,0.3c-1.2,1.2-2.3,1.8-3.2,1.8c-0.4,0-0.6-0.1-0.8-0.4c-0.2-0.2-0.3-0.6-0.3-1.2
			c0-1.1,0.3-2.2,1-3.3c0.7-1.2,1.6-1.8,2.7-1.8c0.4,0,0.6,0.1,0.8,0.3c0.2,0.2,0.3,0.4,0.3,0.7c0,0.3-0.1,0.7-0.3,1
			c-0.2,0.3-0.6,0.7-1.2,1c-0.3,0.2-0.9,0.5-1.9,0.9c0,0.3-0.1,0.5-0.1,0.8c0,0.4,0.1,0.6,0.2,0.8c0.1,0.1,0.3,0.2,0.5,0.2
			c0.2,0,0.4-0.1,0.7-0.2C21.7,39.8,22.2,39.5,22.9,39z M20.2,37.9c0.8-0.4,1.4-0.8,1.8-1.2c0.3-0.3,0.4-0.6,0.4-0.9
			c0-0.2-0.1-0.4-0.2-0.5c-0.1-0.1-0.3-0.2-0.4-0.2c-0.2,0-0.4,0.1-0.5,0.2c-0.2,0.2-0.4,0.5-0.6,0.9C20.5,36.8,20.3,37.3,20.2,37.9
			z"/>
		<path fill="#FCFCFC" d="M29.4,34.4l0.5-0.1l-0.6,1.9c-0.2,0.8-0.4,1.7-0.6,2.7c-0.1,0.5-0.2,0.9-0.2,1.1c0,0.2,0.1,0.2,0.2,0.2
			c0.1,0,0.2-0.1,0.4-0.2c0.3-0.2,0.6-0.4,0.9-0.7l0.2,0.3c-0.6,0.5-0.9,0.9-1.1,1c-0.3,0.2-0.6,0.4-0.9,0.5
			c-0.2,0.1-0.4,0.1-0.6,0.1c-0.1,0-0.2,0-0.3-0.1c-0.1-0.1-0.1-0.2-0.1-0.3c0-0.1,0-0.2,0.1-0.3l0.3-1c-0.4,0.5-1,1-1.6,1.4
			c-0.4,0.2-0.7,0.4-1,0.4c-0.3,0-0.5-0.1-0.7-0.3c-0.2-0.3-0.3-0.6-0.3-1.1c0-0.5,0.1-1.1,0.4-1.8c0.3-0.7,0.7-1.3,1.2-1.8
			c0.5-0.5,1-0.9,1.5-1.2c0.4-0.2,0.9-0.3,1.6-0.3c0.2,0,0.3,0,0.5,0L29.4,34.4z M28.4,35.5c-0.3-0.1-0.5-0.1-0.7-0.1
			c-0.5,0-0.9,0.1-1.2,0.4c-0.3,0.3-0.7,0.7-0.9,1.4c-0.3,0.7-0.4,1.3-0.4,2c0,0.3,0.1,0.6,0.2,0.8c0.1,0.2,0.3,0.2,0.5,0.2
			c0.3,0,0.7-0.2,1.1-0.6c0.4-0.4,0.7-0.9,0.9-1.6L28.4,35.5z"/>
		<path fill="#FCFCFC" d="M34.9,39.3l0.2,0.4c-1.2,1-2.2,1.4-3.1,1.4c-0.4,0-0.8-0.2-1-0.5c-0.2-0.3-0.3-0.7-0.3-1.2
			c0-0.8,0.2-1.6,0.6-2.5c0.4-0.9,0.9-1.5,1.6-2c0.5-0.4,1-0.5,1.6-0.5c0.4,0,0.7,0.1,0.9,0.2c0.2,0.1,0.3,0.3,0.3,0.5
			c0,0.2-0.1,0.3-0.2,0.4c-0.1,0.1-0.2,0.1-0.4,0.1c-0.2,0-0.4-0.1-0.7-0.2c-0.3-0.2-0.5-0.3-0.7-0.3c-0.2,0-0.5,0.1-0.7,0.3
			c-0.2,0.2-0.5,0.7-0.7,1.3c-0.2,0.7-0.3,1.3-0.3,2c0,0.5,0.1,0.9,0.3,1.1c0.1,0.2,0.3,0.3,0.6,0.3C33.4,40.3,34.1,40,34.9,39.3z"
			/>
		<path fill="#FCFCFC" d="M42.1,39.3l0.2,0.3c-0.5,0.5-0.9,0.9-1.4,1.2c-0.3,0.2-0.6,0.3-0.8,0.3c-0.2,0-0.3-0.1-0.4-0.2
			c-0.1-0.1-0.2-0.4-0.2-0.7c0-0.2,0-0.5,0.1-0.9c0.1-0.4,0.3-1.2,0.7-2.5c0.2-0.6,0.3-1,0.3-1.1c0-0.2-0.1-0.2-0.3-0.2
			c-0.2,0-0.5,0.1-0.8,0.3c-0.4,0.3-0.8,0.7-1.2,1.1c-0.2,0.3-0.4,0.7-0.5,1.3l-0.6,2.7H36c0.2-0.9,0.4-1.6,0.6-2.2l1.1-4.9
			c0.2-0.9,0.5-1.6,0.8-2.1c0.3-0.5,0.8-0.9,1.3-1.2c0.5-0.3,1.1-0.4,1.6-0.4c0.2,0,0.4,0.1,0.5,0.2c0.1,0.1,0.2,0.2,0.2,0.4
			c0,0.1-0.1,0.3-0.2,0.4c-0.1,0.1-0.3,0.2-0.5,0.2c-0.1,0-0.3,0-0.5,0c-0.4-0.1-0.7-0.1-0.9-0.1c-0.2,0-0.4,0.1-0.6,0.3
			c-0.1,0.2-0.3,0.6-0.5,1.3l-0.8,3.8c0.6-0.6,1.3-1.2,2-1.6c0.4-0.3,0.8-0.4,1-0.4c0.2,0,0.4,0.1,0.5,0.2c0.1,0.1,0.2,0.3,0.2,0.5
			c0,0.2,0,0.3-0.1,0.5c-0.1,0.3-0.2,0.8-0.5,1.6c-0.3,1.1-0.5,1.8-0.6,2c-0.1,0.3-0.1,0.5-0.1,0.7c0,0.1,0,0.1,0,0.2
			c0,0,0.1,0.1,0.1,0.1c0.1,0,0.3-0.1,0.7-0.4C41.6,39.7,41.8,39.5,42.1,39.3z"/>
		<path fill="#FCFCFC" d="M43.1,36.3L42.8,36c0.5-0.6,1-1,1.4-1.2c0.4-0.2,0.8-0.4,1.1-0.4c0.2,0,0.3,0,0.4,0.1
			c0.1,0.1,0.1,0.2,0.1,0.3c0,0.1-0.2,0.8-0.5,1.9c-0.5,1.8-0.8,2.9-0.8,3.3c0,0.1,0,0.1,0.1,0.2c0,0,0.1,0.1,0.1,0.1
			c0.2,0,0.6-0.3,1.2-0.9l0.3,0.3c-0.7,0.7-1.2,1.1-1.5,1.3c-0.3,0.2-0.6,0.3-0.8,0.3c-0.2,0-0.3-0.1-0.4-0.2
			c-0.1-0.1-0.2-0.3-0.2-0.5c0-0.6,0.4-2.2,1.1-4.7c0-0.1,0.1-0.2,0.1-0.3c0-0.1,0-0.2-0.1-0.2c-0.1,0-0.2,0-0.3,0.1
			C43.8,35.6,43.5,35.8,43.1,36.3z M46.1,31.2c0.2,0,0.3,0.1,0.4,0.2c0.1,0.1,0.2,0.2,0.2,0.4c0,0.2-0.1,0.4-0.2,0.6
			c-0.2,0.2-0.3,0.3-0.5,0.3c-0.2,0-0.3-0.1-0.4-0.2c-0.1-0.1-0.2-0.2-0.2-0.4c0-0.2,0.1-0.4,0.2-0.6C45.7,31.3,45.9,31.2,46.1,31.2
			z"/>
		<path fill="#FCFCFC" d="M46.8,36.3L46.5,36c0.6-0.6,1.2-1,1.6-1.2c0.4-0.2,0.7-0.3,1-0.3c0.1,0,0.2,0,0.3,0.1
			c0.1,0,0.1,0.1,0.1,0.2c0,0,0,0.1,0,0.2L49,36.5c0.5-0.6,1.2-1.1,1.9-1.6c0.4-0.3,0.8-0.4,1-0.4c0.2,0,0.4,0.1,0.5,0.2
			c0.1,0.1,0.2,0.3,0.2,0.6c0,0.2,0,0.3-0.1,0.5c-0.1,0.3-0.3,1.1-0.6,2.2c-0.3,1-0.5,1.7-0.5,2.1c0,0.1,0,0.2,0,0.2
			c0,0.1,0.1,0.1,0.1,0.1c0.1,0,0.4-0.1,0.7-0.4c0.2-0.2,0.4-0.4,0.7-0.6l0.2,0.3c-0.5,0.5-1,0.9-1.5,1.2c-0.3,0.2-0.6,0.3-0.8,0.3
			c-0.2,0-0.3-0.1-0.4-0.2c-0.1-0.1-0.2-0.4-0.2-0.7c0-0.5,0.3-1.6,0.8-3.4c0.2-0.6,0.3-1,0.3-1.1c0-0.2-0.1-0.2-0.3-0.2
			c-0.2,0-0.5,0.1-0.8,0.3c-0.5,0.3-0.9,0.7-1.2,1.1c-0.2,0.3-0.4,0.7-0.5,1.3l-0.6,2.7h-1.1c0.2-0.8,0.4-1.5,0.6-2.2l0.7-2.9
			c0-0.1,0-0.2,0-0.3c0-0.1-0.1-0.2-0.2-0.2c-0.1,0-0.2,0.1-0.3,0.2C47.4,35.7,47.1,36,46.8,36.3z"/>
		<path fill="#FCFCFC" d="M58.9,34.4l0.6-0.1c-0.4,1.2-0.7,2.4-1,3.6c-0.2,0.9-0.4,1.6-0.5,2.1c0,0.3-0.1,0.6-0.1,1.1
			c0,0.7-0.1,1.3-0.2,1.8c-0.2,0.6-0.6,1.1-1.2,1.5c-0.6,0.4-1.3,0.6-2.1,0.6c-0.7,0-1.2-0.2-1.6-0.5c-0.4-0.3-0.6-0.7-0.6-1.1
			c0-0.4,0.2-0.8,0.5-1.2c0.2-0.3,0.7-0.6,1.5-1c0.4-0.2,0.7-0.4,1.1-0.6c-0.4,0.2-0.7,0.3-0.9,0.3c-0.2,0-0.4-0.1-0.5-0.3
			c-0.1-0.2-0.2-0.4-0.2-0.7c0-0.9,0.3-1.9,0.8-2.8c0.6-0.9,1.2-1.6,2-2.1c0.5-0.3,1.1-0.4,1.8-0.4c0.1,0,0.3,0,0.5,0L58.9,34.4z
			 M57,39.8c-0.3,0.3-1,0.8-2,1.5c-0.9,0.6-1.4,1-1.6,1.3c-0.2,0.3-0.3,0.5-0.3,0.8c0,0.3,0.1,0.6,0.4,0.8c0.3,0.2,0.6,0.3,0.9,0.3
			c0.3,0,0.7-0.1,1-0.3c0.3-0.2,0.6-0.4,0.8-0.7c0.2-0.3,0.4-0.7,0.5-1.1c0.1-0.4,0.1-0.9,0.1-1.6C56.9,40.6,56.9,40.3,57,39.8z
			 M58,35.6c-0.2,0-0.5-0.1-0.6-0.1c-0.5,0-0.9,0.1-1.2,0.4c-0.3,0.3-0.6,0.7-0.9,1.3c-0.3,0.9-0.5,1.6-0.5,2.2
			c0,0.2,0.1,0.4,0.2,0.6c0.1,0.2,0.3,0.2,0.5,0.2c0.2,0,0.5-0.1,0.8-0.3c0.3-0.2,0.5-0.4,0.7-0.7c0.2-0.3,0.4-0.8,0.6-1.5L58,35.6z
			"/>
		<path fill="#FCFCFC" d="M65.5,33.3l1.2-0.5L66.2,35h1.6l-0.1,0.5H66l-0.7,2.6c-0.2,0.8-0.3,1.3-0.3,1.6c0,0.1,0,0.2,0.1,0.3
			c0.1,0.1,0.1,0.1,0.2,0.1c0.2,0,0.4-0.1,0.7-0.3c0.4-0.3,0.8-0.5,1.2-0.8l0.3,0.4c-1.1,0.8-1.9,1.4-2.2,1.5
			c-0.4,0.2-0.7,0.3-0.9,0.3c-0.2,0-0.3-0.1-0.4-0.2c-0.1-0.1-0.2-0.4-0.2-0.7c0-0.4,0.1-0.9,0.3-1.7l0.8-3h-1.2l0.1-0.5h1.2
			L65.5,33.3z"/>
		<path fill="#FCFCFC" d="M74.5,39.3l0.2,0.3c-0.5,0.5-0.9,0.9-1.4,1.2c-0.3,0.2-0.6,0.3-0.8,0.3c-0.2,0-0.3-0.1-0.4-0.2
			c-0.1-0.1-0.2-0.4-0.2-0.7c0-0.2,0-0.5,0.1-0.9c0.1-0.4,0.3-1.2,0.7-2.5c0.2-0.6,0.3-1,0.3-1.1c0-0.2-0.1-0.2-0.3-0.2
			c-0.2,0-0.5,0.1-0.8,0.3c-0.4,0.3-0.8,0.7-1.2,1.1c-0.2,0.3-0.4,0.7-0.5,1.3l-0.6,2.7h-1.1c0.2-0.9,0.4-1.6,0.6-2.2l1.1-4.9
			c0.2-0.9,0.5-1.6,0.8-2.1c0.3-0.5,0.8-0.9,1.3-1.2c0.5-0.3,1.1-0.4,1.6-0.4c0.2,0,0.4,0.1,0.5,0.2c0.1,0.1,0.2,0.2,0.2,0.4
			c0,0.1-0.1,0.3-0.2,0.4c-0.1,0.1-0.3,0.2-0.5,0.2c-0.1,0-0.3,0-0.5,0c-0.4-0.1-0.7-0.1-0.9-0.1c-0.2,0-0.4,0.1-0.6,0.3
			c-0.1,0.2-0.3,0.6-0.5,1.3l-0.8,3.8c0.6-0.6,1.3-1.2,2-1.6c0.4-0.3,0.8-0.4,1-0.4c0.2,0,0.4,0.1,0.5,0.2c0.1,0.1,0.2,0.3,0.2,0.5
			c0,0.2,0,0.3-0.1,0.5c-0.1,0.3-0.2,0.8-0.5,1.6c-0.3,1.1-0.5,1.8-0.6,2c-0.1,0.3-0.1,0.5-0.1,0.7c0,0.1,0,0.1,0,0.2
			c0,0,0.1,0.1,0.1,0.1c0.1,0,0.3-0.1,0.7-0.4C74,39.7,74.2,39.5,74.5,39.3z"/>
		<path fill="#FCFCFC" d="M79.2,39l0.3,0.3c-1.2,1.2-2.3,1.8-3.2,1.8c-0.4,0-0.6-0.1-0.8-0.4c-0.2-0.2-0.3-0.6-0.3-1.2
			c0-1.1,0.3-2.2,1-3.3c0.7-1.2,1.6-1.8,2.7-1.8c0.4,0,0.6,0.1,0.8,0.3c0.2,0.2,0.3,0.4,0.3,0.7c0,0.3-0.1,0.7-0.3,1
			c-0.2,0.3-0.6,0.7-1.2,1c-0.3,0.2-0.9,0.5-1.9,0.9c0,0.3-0.1,0.5-0.1,0.8c0,0.4,0.1,0.6,0.2,0.8c0.1,0.1,0.3,0.2,0.5,0.2
			c0.2,0,0.4-0.1,0.7-0.2C78,39.8,78.5,39.5,79.2,39z M76.5,37.9c0.8-0.4,1.4-0.8,1.8-1.2c0.3-0.3,0.4-0.6,0.4-0.9
			c0-0.2-0.1-0.4-0.2-0.5c-0.1-0.1-0.3-0.2-0.4-0.2c-0.2,0-0.4,0.1-0.5,0.2c-0.2,0.2-0.4,0.5-0.6,0.9C76.8,36.8,76.6,37.3,76.5,37.9
			z"/>
		<path fill="#FCFCFC" d="M87.5,33.6l0.1-0.4c0.6,0,1.2-0.1,1.9-0.3c-0.2,0.5-0.3,1-0.4,1.3l-0.4,1.7c0.9,0,1.6-0.2,2-0.7
			c0.5-0.5,0.7-1,0.7-1.6c0-0.4-0.2-0.8-0.5-1c-0.3-0.3-0.8-0.4-1.5-0.4c-0.9,0-1.8,0.2-2.6,0.7c-0.8,0.4-1.5,1-1.9,1.7
			c-0.5,0.7-0.7,1.4-0.7,2.1c0,0.2,0,0.4,0.1,0.5c0.1,0.2,0.1,0.3,0.2,0.5c0.1,0.1,0.2,0.2,0.4,0.3c0.2,0.2,0.4,0.3,0.4,0.4
			c0.1,0.1,0.1,0.2,0.1,0.3s0,0.2-0.1,0.3C85.2,39,85.1,39,84.9,39c-0.3,0-0.6-0.2-0.9-0.6c-0.3-0.4-0.4-0.9-0.4-1.6
			c0-0.9,0.3-1.7,0.8-2.5c0.5-0.8,1.2-1.4,2.2-1.9c0.9-0.5,2-0.7,3.1-0.7c0.9,0,1.6,0.2,2.1,0.5c0.5,0.4,0.7,0.8,0.7,1.3
			c0,0.5-0.2,0.9-0.5,1.4c-0.3,0.4-0.8,0.7-1.5,0.9c0.4,0.1,0.8,0.2,1.1,0.4c0.3,0.2,0.5,0.4,0.6,0.6c0.1,0.3,0.2,0.6,0.2,0.9
			c0,0.6-0.2,1.1-0.5,1.6c-0.3,0.5-0.8,0.9-1.4,1.2c-0.6,0.3-1.3,0.5-2,0.5c-0.2,0-0.6,0-1.3-0.1c-0.3,0-0.6,0-1,0
			c-0.5,0-1,0-1.4,0.1l0.1-0.4c0.5,0,0.9-0.2,1.1-0.4c0.2-0.2,0.4-0.7,0.6-1.5l1.1-4.4c0-0.2,0.1-0.3,0.1-0.4c0-0.1,0-0.1-0.1-0.2
			c-0.1-0.1-0.1-0.1-0.2-0.1C87.6,33.6,87.5,33.6,87.5,33.6z M88.5,36.4l-0.4,1.5c-0.2,0.8-0.4,1.4-0.6,1.8
			c-0.1,0.3-0.2,0.5-0.4,0.7c0.5,0.1,0.8,0.2,1.2,0.2c0.9,0,1.6-0.3,2-0.8c0.5-0.6,0.7-1.2,0.7-1.8c0-0.3-0.1-0.6-0.3-0.9
			c-0.2-0.2-0.4-0.4-0.7-0.5C89.8,36.4,89.3,36.4,88.5,36.4z"/>
		<path fill="#FCFCFC" d="M98.4,34.7h1.1l-0.7,2.7c-0.4,1.6-0.6,2.4-0.6,2.7c0,0.1,0,0.2,0.1,0.2c0,0.1,0.1,0.1,0.2,0.1
			c0.1,0,0.2,0,0.3-0.1c0.2-0.1,0.5-0.4,0.9-0.9l0.3,0.3c-1,1.1-1.8,1.6-2.2,1.6c-0.2,0-0.3-0.1-0.4-0.2c-0.1-0.1-0.2-0.3-0.2-0.5
			c0-0.3,0.1-0.6,0.2-1.1c-0.5,0.5-1,1-1.7,1.4c-0.4,0.3-0.8,0.4-1.1,0.4c-0.2,0-0.3-0.1-0.4-0.2c-0.1-0.1-0.2-0.3-0.2-0.6
			c0-0.2,0-0.4,0.1-0.6c0.1-0.3,0.2-1,0.5-1.9c0.3-1.2,0.5-2,0.5-2.2c0-0.1-0.1-0.2-0.2-0.2c-0.1,0-0.2,0-0.4,0.1
			c-0.2,0.1-0.4,0.3-0.8,0.7L93.2,36c0.7-0.6,1.2-1,1.6-1.2c0.4-0.2,0.6-0.3,0.9-0.3c0.1,0,0.2,0,0.3,0.1c0.1,0.1,0.1,0.2,0.1,0.4
			c0,0.4-0.2,1.2-0.5,2.6c-0.3,1.2-0.5,1.9-0.5,2.1c0,0.1,0,0.2,0.1,0.3c0.1,0.1,0.1,0.1,0.2,0.1c0.3,0,0.7-0.2,1.2-0.7
			c0.5-0.5,0.9-1,1-1.6L98.4,34.7z"/>
		<path fill="#FCFCFC" d="M103.7,34.5c0.5,0,0.8,0.1,1,0.3c0.2,0.2,0.4,0.4,0.4,0.6c0,0.1-0.1,0.3-0.2,0.4c-0.1,0.1-0.2,0.2-0.4,0.2
			c-0.1,0-0.2,0-0.3-0.1c-0.1,0-0.2-0.2-0.3-0.3c-0.2-0.3-0.5-0.5-0.7-0.5c-0.2,0-0.4,0.1-0.6,0.2c-0.2,0.2-0.2,0.4-0.2,0.6
			c0,0.2,0.1,0.4,0.2,0.6c0.1,0.2,0.4,0.5,0.8,1c0.6,0.6,0.8,1.2,0.8,1.7c0,0.5-0.2,1-0.7,1.4c-0.5,0.4-1,0.6-1.8,0.6
			c-0.6,0-1.1-0.1-1.3-0.4c-0.3-0.2-0.4-0.6-0.4-0.9c0-0.2,0.1-0.3,0.2-0.4c0.1-0.1,0.2-0.2,0.4-0.2c0.1,0,0.3,0,0.4,0.1
			c0.1,0.1,0.2,0.2,0.2,0.3c0,0.1,0,0.1,0,0.2c0,0.1,0,0.1,0,0.2c0,0.2,0.1,0.3,0.2,0.4c0.1,0.1,0.3,0.2,0.6,0.2
			c0.3,0,0.5,0,0.7-0.1c0.2-0.1,0.4-0.2,0.5-0.4c0.1-0.2,0.2-0.4,0.2-0.6c0-0.2-0.1-0.4-0.2-0.6c-0.1-0.2-0.4-0.5-0.7-0.9
			c-0.5-0.6-0.8-1.2-0.8-1.7c0-0.5,0.2-0.9,0.6-1.3C102.6,34.7,103.1,34.5,103.7,34.5z"/>
		<path fill="#FCFCFC" d="M105.6,36.3l-0.3-0.3c0.5-0.6,1-1,1.4-1.2c0.4-0.2,0.8-0.4,1.1-0.4c0.2,0,0.3,0,0.4,0.1
			c0.1,0.1,0.1,0.2,0.1,0.3c0,0.1-0.2,0.8-0.5,1.9c-0.5,1.8-0.8,2.9-0.8,3.3c0,0.1,0,0.1,0.1,0.2c0,0,0.1,0.1,0.1,0.1
			c0.2,0,0.6-0.3,1.2-0.9l0.3,0.3c-0.7,0.7-1.2,1.1-1.5,1.3c-0.3,0.2-0.6,0.3-0.8,0.3c-0.2,0-0.3-0.1-0.4-0.2
			c-0.1-0.1-0.2-0.3-0.2-0.5c0-0.6,0.4-2.2,1.1-4.7c0-0.1,0.1-0.2,0.1-0.3c0-0.1,0-0.2-0.1-0.2c-0.1,0-0.2,0-0.3,0.1
			C106.4,35.6,106.1,35.8,105.6,36.3z M108.6,31.2c0.2,0,0.3,0.1,0.4,0.2c0.1,0.1,0.2,0.2,0.2,0.4c0,0.2-0.1,0.4-0.2,0.6
			c-0.2,0.2-0.3,0.3-0.5,0.3c-0.2,0-0.3-0.1-0.4-0.2c-0.1-0.1-0.2-0.2-0.2-0.4c0-0.2,0.1-0.4,0.2-0.6
			C108.2,31.3,108.4,31.2,108.6,31.2z"/>
		<path fill="#FCFCFC" d="M109.3,36.3l-0.3-0.3c0.6-0.6,1.2-1,1.6-1.2c0.4-0.2,0.7-0.3,1-0.3c0.1,0,0.2,0,0.3,0.1
			c0.1,0,0.1,0.1,0.1,0.2c0,0,0,0.1,0,0.2l-0.3,1.5c0.5-0.6,1.2-1.1,1.9-1.6c0.4-0.3,0.8-0.4,1-0.4c0.2,0,0.4,0.1,0.5,0.2
			c0.1,0.1,0.2,0.3,0.2,0.6c0,0.2,0,0.3-0.1,0.5c-0.1,0.3-0.3,1.1-0.6,2.2c-0.3,1-0.5,1.7-0.5,2.1c0,0.1,0,0.2,0,0.2
			c0,0.1,0.1,0.1,0.1,0.1c0.1,0,0.4-0.1,0.7-0.4c0.2-0.2,0.4-0.4,0.7-0.6l0.2,0.3c-0.5,0.5-1,0.9-1.5,1.2c-0.3,0.2-0.6,0.3-0.8,0.3
			c-0.2,0-0.3-0.1-0.4-0.2c-0.1-0.1-0.2-0.4-0.2-0.7c0-0.5,0.3-1.6,0.8-3.4c0.2-0.6,0.3-1,0.3-1.1c0-0.2-0.1-0.2-0.3-0.2
			c-0.2,0-0.5,0.1-0.8,0.3c-0.5,0.3-0.9,0.7-1.2,1.1c-0.2,0.3-0.4,0.7-0.5,1.3l-0.6,2.7h-1.1c0.2-0.8,0.4-1.5,0.6-2.2l0.7-2.9
			c0-0.1,0-0.2,0-0.3c0-0.1-0.1-0.2-0.2-0.2c-0.1,0-0.2,0.1-0.3,0.2C109.9,35.7,109.6,36,109.3,36.3z"/>
		<path fill="#FCFCFC" d="M120.2,39l0.3,0.3c-1.2,1.2-2.3,1.8-3.2,1.8c-0.4,0-0.6-0.1-0.8-0.4c-0.2-0.2-0.3-0.6-0.3-1.2
			c0-1.1,0.3-2.2,1-3.3c0.7-1.2,1.6-1.8,2.7-1.8c0.4,0,0.6,0.1,0.8,0.3c0.2,0.2,0.3,0.4,0.3,0.7c0,0.3-0.1,0.7-0.3,1
			c-0.2,0.3-0.6,0.7-1.2,1c-0.3,0.2-0.9,0.5-1.9,0.9c0,0.3-0.1,0.5-0.1,0.8c0,0.4,0.1,0.6,0.2,0.8c0.1,0.1,0.3,0.2,0.5,0.2
			c0.2,0,0.4-0.1,0.7-0.2C119.1,39.8,119.6,39.5,120.2,39z M117.6,37.9c0.8-0.4,1.4-0.8,1.8-1.2c0.3-0.3,0.4-0.6,0.4-0.9
			c0-0.2-0.1-0.4-0.2-0.5c-0.1-0.1-0.3-0.2-0.4-0.2c-0.2,0-0.4,0.1-0.5,0.2c-0.2,0.2-0.4,0.5-0.6,0.9
			C117.9,36.8,117.7,37.3,117.6,37.9z"/>
		<path fill="#FCFCFC" d="M124.9,34.5c0.5,0,0.8,0.1,1,0.3c0.2,0.2,0.4,0.4,0.4,0.6c0,0.1-0.1,0.3-0.2,0.4c-0.1,0.1-0.2,0.2-0.4,0.2
			c-0.1,0-0.2,0-0.3-0.1c-0.1,0-0.2-0.2-0.3-0.3c-0.2-0.3-0.5-0.5-0.7-0.5c-0.2,0-0.4,0.1-0.6,0.2c-0.2,0.2-0.2,0.4-0.2,0.6
			c0,0.2,0.1,0.4,0.2,0.6c0.1,0.2,0.4,0.5,0.8,1c0.6,0.6,0.8,1.2,0.8,1.7c0,0.5-0.2,1-0.7,1.4c-0.5,0.4-1,0.6-1.8,0.6
			c-0.6,0-1.1-0.1-1.3-0.4c-0.3-0.2-0.4-0.6-0.4-0.9c0-0.2,0.1-0.3,0.2-0.4c0.1-0.1,0.2-0.2,0.4-0.2c0.1,0,0.3,0,0.4,0.1
			c0.1,0.1,0.2,0.2,0.2,0.3c0,0.1,0,0.1,0,0.2c0,0.1,0,0.1,0,0.2c0,0.2,0.1,0.3,0.2,0.4c0.1,0.1,0.3,0.2,0.6,0.2
			c0.3,0,0.5,0,0.7-0.1c0.2-0.1,0.4-0.2,0.5-0.4c0.1-0.2,0.2-0.4,0.2-0.6c0-0.2-0.1-0.4-0.2-0.6c-0.1-0.2-0.4-0.5-0.7-0.9
			c-0.5-0.6-0.8-1.2-0.8-1.7c0-0.5,0.2-0.9,0.6-1.3C123.8,34.7,124.3,34.5,124.9,34.5z"/>
		<path fill="#FCFCFC" d="M129.9,34.5c0.5,0,0.8,0.1,1,0.3c0.2,0.2,0.4,0.4,0.4,0.6c0,0.1-0.1,0.3-0.2,0.4c-0.1,0.1-0.2,0.2-0.4,0.2
			c-0.1,0-0.2,0-0.3-0.1c-0.1,0-0.2-0.2-0.3-0.3c-0.2-0.3-0.5-0.5-0.7-0.5c-0.2,0-0.4,0.1-0.6,0.2c-0.2,0.2-0.2,0.4-0.2,0.6
			c0,0.2,0.1,0.4,0.2,0.6c0.1,0.2,0.4,0.5,0.8,1c0.6,0.6,0.8,1.2,0.8,1.7c0,0.5-0.2,1-0.7,1.4s-1,0.6-1.8,0.6
			c-0.6,0-1.1-0.1-1.3-0.4c-0.3-0.2-0.4-0.6-0.4-0.9c0-0.2,0.1-0.3,0.2-0.4c0.1-0.1,0.2-0.2,0.4-0.2c0.1,0,0.3,0,0.4,0.1
			c0.1,0.1,0.2,0.2,0.2,0.3c0,0.1,0,0.1,0,0.2c0,0.1,0,0.1,0,0.2c0,0.2,0.1,0.3,0.2,0.4c0.1,0.1,0.3,0.2,0.6,0.2
			c0.3,0,0.5,0,0.7-0.1c0.2-0.1,0.4-0.2,0.5-0.4c0.1-0.2,0.2-0.4,0.2-0.6c0-0.2-0.1-0.4-0.2-0.6c-0.1-0.2-0.4-0.5-0.7-0.9
			c-0.5-0.6-0.8-1.2-0.8-1.7c0-0.5,0.2-0.9,0.6-1.3C128.7,34.7,129.3,34.5,129.9,34.5z"/>
		<path fill="#FCFCFC" d="M138.7,34.5c0.5,0,0.9,0.2,1.2,0.6s0.5,1,0.5,1.7c0,1.1-0.4,2.1-1.2,3.1c-0.8,0.9-1.6,1.4-2.5,1.4
			c-0.5,0-1-0.2-1.3-0.5c-0.3-0.4-0.5-0.8-0.5-1.5c0-1.1,0.3-2.1,0.9-3C136.6,35.1,137.6,34.5,138.7,34.5z M138.1,35.1
			c-0.4,0-0.8,0.3-1.2,0.9c-0.4,0.6-0.6,1.5-0.6,2.6c0,0.7,0.1,1.2,0.4,1.6c0.2,0.3,0.4,0.4,0.7,0.4c0.4,0,0.8-0.3,1.2-0.8
			c0.4-0.7,0.7-1.5,0.7-2.6c0-0.8-0.1-1.3-0.3-1.6C138.6,35.2,138.4,35.1,138.1,35.1z"/>
		<path fill="#FCFCFC" d="M141.4,35h1.8c0.3-1.3,0.6-2.2,1-2.8c0.4-0.6,0.9-1.1,1.5-1.5c0.6-0.4,1.2-0.5,1.7-0.5
			c0.3,0,0.5,0.1,0.7,0.2c0.2,0.1,0.2,0.3,0.2,0.4c0,0.2-0.1,0.3-0.2,0.4c-0.1,0.1-0.2,0.2-0.4,0.2c-0.2,0-0.5-0.1-1-0.2
			c-0.2-0.1-0.4-0.1-0.6-0.1c-0.3,0-0.6,0.2-0.9,0.6c-0.3,0.4-0.5,1-0.6,1.7l-0.4,1.6h2l-0.1,0.5h-2l-1.2,4.9
			c-0.4,1.5-1,2.6-1.8,3.4c-0.8,0.8-1.7,1.1-2.6,1.1c-0.3,0-0.6-0.1-0.7-0.2c-0.2-0.1-0.2-0.3-0.2-0.5c0-0.2,0.1-0.3,0.2-0.4
			c0.1-0.1,0.3-0.1,0.5-0.1c0.1,0,0.3,0,0.5,0c0.4,0,0.7,0.1,1,0.1c0.5,0,0.9-0.1,1.1-0.4c0.2-0.2,0.5-0.8,0.7-1.7l1.5-6.2h-1.8
			L141.4,35z"/>
		<path fill="#FCFCFC" d="M158.7,40.6l-0.1,0.4c-0.3,0-0.5,0-0.6,0c-0.2,0-0.5,0-0.9-0.1c-0.4,0-0.7-0.1-1-0.1c-0.2,0-0.4,0-0.7,0.1
			c0.2-0.6,0.4-1.4,0.7-2.4l0.6-2.3l-2.1,0.1c-0.4,0-0.7,0-1.1,0.1c-0.3,1.4-0.7,2.4-1.1,3c-0.4,0.7-0.8,1.1-1.3,1.4
			c-0.5,0.3-0.9,0.5-1.3,0.5c-0.4,0-0.8-0.1-1.1-0.3c-0.2-0.1-0.3-0.3-0.3-0.5c0-0.1,0-0.2,0.1-0.3c0.1-0.1,0.2-0.1,0.3-0.1
			c0.2,0,0.4,0.1,0.6,0.4c0.1,0.2,0.2,0.3,0.3,0.3s0.2,0.1,0.3,0.1c0.4,0,0.8-0.3,1.1-1c0.3-0.6,0.9-2.2,1.5-4.8l0.7-2.8
			c-1,0-1.8,0.2-2.3,0.5c-0.5,0.3-0.8,0.7-0.8,1.1c0,0.1,0.1,0.3,0.2,0.5c0.1,0.2,0.2,0.4,0.2,0.5c0,0.1,0,0.3-0.1,0.4
			c-0.1,0.1-0.2,0.1-0.4,0.1c-0.2,0-0.3-0.1-0.5-0.3c-0.1-0.2-0.2-0.4-0.2-0.7c0-0.6,0.2-1.1,0.6-1.6c0.4-0.5,1-0.8,1.9-1
			c0.5-0.1,1.4-0.2,2.8-0.2c-0.4,0.7-0.8,2.1-1.3,4c1.3,0,2.4,0,3.2-0.1c0.4-1.5,0.8-2.5,1.2-3.1c0.3-0.6,0.7-1,1.1-1.3
			c0.4-0.3,0.9-0.4,1.4-0.4c0.4,0,0.8,0.1,1,0.3c0.2,0.2,0.4,0.4,0.4,0.6c0,0.1,0,0.2-0.1,0.3c-0.1,0.1-0.2,0.1-0.3,0.1
			c-0.2,0-0.4-0.1-0.6-0.4c-0.2-0.3-0.4-0.4-0.6-0.4c-0.4,0-0.8,0.4-1.1,1.1c-0.7,1.3-1.4,3.9-2.3,8c0.1,0,0.2,0,0.4,0.1
			c0.3,0.1,0.5,0.1,0.7,0.1C158.2,40.7,158.4,40.6,158.7,40.6z"/>
		<path fill="#FCFCFC" d="M164.4,36.6l-1,4.1c0.2,0,0.4,0.1,0.6,0.1c0.2,0,0.5,0,0.8-0.1l-0.1,0.4c-0.3,0.1-0.6,0.1-0.8,0.1
			c-0.2,0-0.5,0-0.9-0.1c-0.3,0-0.6-0.1-0.8-0.1c-0.4,0-0.9,0.1-1.4,0.2l0.1-0.4c0.6-0.1,0.9-0.3,1.1-0.4c0.3-0.2,0.4-0.6,0.6-1.2
			l1.1-4.3c0.1-0.5,0.2-0.9,0.2-1c0-0.1,0-0.2-0.1-0.2c-0.1,0-0.2-0.1-0.4-0.1l0.1-0.4c0.5,0,1.1-0.1,1.8-0.3
			c-0.1,0.2-0.1,0.5-0.2,0.9l-0.6,2.3c0.2,0.1,0.4,0.1,0.6,0.1c0.6,0,1.2-0.2,1.6-0.7c0.5-0.4,0.7-1,0.7-1.6c0-0.5-0.2-0.9-0.5-1.2
			c-0.4-0.3-0.9-0.5-1.5-0.5c-0.8,0-1.6,0.2-2.3,0.6c-0.8,0.4-1.3,0.9-1.7,1.4c-0.4,0.6-0.6,1.2-0.6,1.8c0,0.5,0.2,0.9,0.6,1.2
			c0.2,0.2,0.3,0.3,0.4,0.4c0,0.1,0.1,0.2,0.1,0.2c0,0.1,0,0.2-0.1,0.3c-0.1,0.1-0.2,0.1-0.3,0.1c-0.3,0-0.5-0.2-0.7-0.5
			c-0.3-0.4-0.4-0.9-0.4-1.5c0-0.8,0.2-1.5,0.6-2.2c0.4-0.7,1.1-1.2,2-1.7c0.9-0.4,1.8-0.7,2.8-0.7c0.9,0,1.6,0.2,2.2,0.5
			c0.6,0.3,0.9,0.8,0.9,1.5c0,0.6-0.3,1.2-0.8,1.8c-0.5,0.5-1.3,0.9-2.2,1c0.2,0.5,0.4,0.8,0.4,0.9c0.1,0.3,0.3,0.7,0.5,1.4
			c0.5,1.5,1,2.6,1.6,3.2c0.4,0.5,0.8,0.7,1.3,0.7c0.5,0,0.8-0.2,0.9-0.7c0.1-0.3,0.2-0.5,0.2-0.5c0.1-0.1,0.2-0.1,0.3-0.1
			c0.1,0,0.2,0,0.3,0.1c0.1,0.1,0.1,0.2,0.1,0.3c0,0.3-0.2,0.6-0.5,0.9c-0.3,0.3-0.8,0.4-1.3,0.4c-0.5,0-1-0.1-1.4-0.4
			c-0.4-0.2-0.9-0.6-1.3-1.2c-0.4-0.5-0.8-1.2-1.1-2c-0.2-0.4-0.4-1.1-0.7-2.1c-0.2-0.6-0.3-1-0.3-1.1l-0.2,0
			C164.6,36.5,164.5,36.5,164.4,36.6z"/>
	</g>
</g>
</svg>
