<?xml version="1.0" encoding="utf-8"?>
<!-- Generator: Adobe Illustrator 21.0.2, SVG Export Plug-In . SVG Version: 6.00 Build 0)  -->
<svg version="1.1" id="Layer_1" xmlns="http://www.w3.org/2000/svg" xmlns:xlink="http://www.w3.org/1999/xlink" x="0px" y="0px"
	 width="46px" height="33px" viewBox="0 0 46 33" style="enable-background:new 0 0 46 33;" xml:space="preserve">
<style type="text/css">
	.st0{fill:#205493;}
	.st1{fill:#FFFFFF;}
</style>
<g id="Layer_2">
	<rect y="0.3" class="st0" width="46" height="33"/>
</g>
<g id="Ñëîé_1">
	<g>
		<path class="st1" d="M29.6,12.5H16.4c-0.8,0-1.4-0.6-1.4-1.4l0,0c0-0.8,0.6-1.4,1.4-1.4h13.1c0.9,0,1.5,0.6,1.5,1.4l0,0
			C31,11.9,30.4,12.5,29.6,12.5z"/>
		<path class="st1" d="M29.8,17.5H16.7c-0.8,0-1.7-0.6-1.7-1.5s0.9-1.5,1.7-1.5h13.1c0.8,0,1.2,0.7,1.2,1.5
			C31,16.8,30.6,17.5,29.8,17.5z"/>
		<path class="st1" d="M29.6,22.5H16.4c-0.8,0-1.4-0.6-1.4-1.4l0,0c0-0.8,0.6-1.4,1.4-1.4h13.1c0.8,0,1.4,0.6,1.4,1.4l0,0
			C31,21.9,30.4,22.5,29.6,22.5z"/>
	</g>
</g>
</svg>
