<?xml version="1.0" encoding="utf-8"?>
<!-- Generator: Adobe Illustrator 20.0.0, SVG Export Plug-In . SVG Version: 6.00 Build 0)  -->
<svg version="1.1" xmlns="http://www.w3.org/2000/svg" xmlns:xlink="http://www.w3.org/1999/xlink" x="0px" y="0px" width="293px"
	 height="94px" viewBox="0 0 293 94" style="enable-background:new 0 0 293 94;" xml:space="preserve">
<style type="text/css">
	.st0{fill:#FFFFFF;}
</style>
<g id="Layer_3">
</g>
<g id="Layer_2">
	<g>
		<g>
			<g>
				<path class="st0" d="M101,42.7c0.8,0,1.8,0,2.7,0c0.9,0,1.6,0,2.2,0l-0.2,0.6l-1,0.7v5.3h8.1V44l-1.1-0.8l0.2-0.5
					c0.7,0,1.3,0,2,0c1.1,0,2.2,0,3.1,0l-0.2,0.6l-1.9,0.7v6.1c0,2.6,0.1,6.3,0.2,6.6l2.1,0.7L117,58c-0.9,0-2,0-3.1,0
					c-0.8,0-1.5,0-2.2,0l0.2-0.6l0.9-0.7c0.1-2.3,0-4.3,0-6.5c-0.5,0.1-1.8,0.1-3,0.1h-5.1c0,1.9-0.1,3.9,0,6.2l1.1,0.9l-0.2,0.5
					c-0.6,0-1.2,0-2,0c-1,0-2.1,0-3,0l0.2-0.6l1.7-0.7c0-0.6,0.1-4,0.1-6.8v-6l-1.9-0.7L101,42.7z"/>
			</g>
			<g>
				<path class="st0" d="M119.6,43c1.1-0.2,3.6-0.5,5.4-0.5c3.8,0,5.7,1.3,5.7,3.9c0,2.5-2,3.5-3.6,4.1v0c0.5,0.9,2.2,3.3,3.5,5.1
					c1.3,1.7,1.7,2.1,2,2.5l-0.2,0.2c-1.8-0.1-2.8-0.8-3.7-1.8c-1-1.1-2.6-3.4-4.1-5.7l0.1-0.1c2.2-0.6,3.8-1.5,3.8-3.9
					c0-2.9-2.4-3.4-5.1-3.3v7.1c0,3.2,0,5,0,6.1l2.3,0.7l-0.2,0.6c-1.1,0-2.2,0-3.3,0c-1,0-2,0-3,0l0.2-0.6l1.7-0.7
					c0-0.9,0.2-3.1,0.2-6.1v-6.7l-2-0.3L119.6,43z"/>
			</g>
			<g>
				<path class="st0" d="M140.3,42.7c0.9,0,1.9,0,2.8,0c0.9,0,1.8,0,2.5,0l-0.1,0.6l-1.3,0.7c0,2.9,0,5.6,0,8.9c0,1,0.2,1.8,0.7,2.5
					c0.8,1.1,2.1,1.7,3.8,1.7c1.6,0,2.9-0.6,3.7-1.6c0.5-0.7,0.8-1.6,0.8-3c0.1-3.2,0-6,0-8.5l-1.7-0.7l0.2-0.6c0.8,0,1.5,0,2.2,0
					c0.9,0,1.9,0,2.7,0l-0.1,0.6l-1.9,0.7c-0.1,0.5-0.1,1.1-0.3,8.3c0,1.4-0.3,2.6-1,3.6c-1,1.6-2.8,2.5-5.1,2.5
					c-2.2,0-4.3-0.8-5.3-2.6c-0.5-0.9-0.7-2-0.7-3.3c0-3.4,0-7,0-8.5l-1.9-0.7L140.3,42.7z"/>
			</g>
			<g>
				<path class="st0" d="M159.1,49.4l-1.2-0.5l0.2-0.5c0.4-0.2,2.3-0.8,3-0.9l-0.1,1.8h0c1.8-1.4,2.7-1.8,3.7-1.8
					c2.4,0,3.1,2,3.1,3.7v5.3c0,0.2,0.1,0.3,0.3,0.4l1.4,0.6l-0.2,0.5c-0.6,0-1.7,0-2.6,0c-0.6,0-1.3,0-2.1,0l0.2-0.6l0.9-0.7
					c0-0.7,0.1-2.3,0.1-5.4c0-1.8-1-2.5-2.2-2.5c-1,0-2,0.7-2.6,1.3c0,1.8,0,6.2,0,6.7l1.3,0.6l-0.1,0.6c-0.6,0-1.5,0-2.2,0
					c-0.8,0-1.7,0-2.4,0l0.2-0.5l1.3-0.7c0-0.4,0.1-2.5,0.1-5.4V49.4z"/>
			</g>
			<g>
				<path class="st0" d="M171.5,48.2c0.4-0.1,1.8-0.5,3.1-0.7v4.7c0,2.6,0,3.9,0,4.6l1.6,0.7l-0.2,0.5c-0.8,0-1.7,0-2.6,0
					c-0.7,0-1.5,0-2.4,0l0.2-0.5l1.3-0.7c0-0.8,0-2.8,0-4.6v-2.9l-1.3-0.6L171.5,48.2z M173.6,42.7c0.3,0.1,1,0.8,1.2,1.3l0,0.2
					c-0.2,0.4-0.9,1.1-1.2,1.3l-0.2,0c-0.4-0.2-0.9-0.9-1.1-1.3l0-0.2c0.3-0.5,0.9-1.1,1.3-1.3L173.6,42.7z"/>
			</g>
			<g>
				<path class="st0" d="M177.3,47.8c0.6,0,1.3,0,2.2,0c0.7,0,1.4,0,2.1,0l-0.2,0.6l-0.7,0.6c0.5,1.3,1.3,3.6,2.5,6.5l0,0
					c0.5-1.1,1-2.5,2.4-6.4l-1-0.7l0.2-0.6c0.4,0,1.1,0,1.6,0c0.6,0,1.4,0,1.9,0l-0.2,0.6c-0.7,0.3-1,0.5-1.4,1
					c-0.4,0.7-2.4,5.7-3.3,7.8c-0.2,0.4-0.6,1-0.9,1.2h-0.2c-0.2-0.4-2-5.2-3.7-9.1c-0.4-0.6-0.8-0.8-1.6-1L177.3,47.8z"/>
			</g>
			<g>
				<path class="st0" d="M191.6,52.6c0,0.1,0,0.2,0,0.3c0,2.6,1.6,4.2,3.7,4.2c0.3,0,0.6,0,0.8-0.1c0.7-0.5,1.4-1,1.9-1.3l0.1,0.4
					c-0.1,0.5-1,1.5-1.3,1.7c-0.4,0.2-1.6,0.6-2.4,0.6c-2.9,0-4.9-2-4.9-5.2c0-3.3,2.4-5.6,5-5.6c2.1,0,3.9,1.4,3.9,4
					c0,0.3-0.1,0.6-0.2,0.7c-0.2,0.1-1.1,0.3-2.2,0.3H191.6z M196.3,51.7c0.1-0.2,0.1-0.4,0.1-0.7c0-1.4-0.7-2.7-2-2.7
					c-1.9,0-2.7,2.4-2.7,3.4H196.3z"/>
			</g>
			<g>
				<path class="st0" d="M201,48.3c0.3-0.2,2-0.7,2.7-0.8c0.1,0.5,0.3,1.6,0.2,2.3h0c1-1.6,2.3-2.3,3.2-2.3c0.5,0,0.9,0.1,1.1,0.4
					c-0.1,0.7-0.5,2-0.8,2.5l-0.3,0.2c-0.2-0.3-0.5-0.8-0.8-1.6c-0.1,0-0.2-0.1-0.3-0.1c-0.7,0-1.7,0.9-2.1,2v5.9l2.3,0.7l-0.1,0.5
					c-0.9,0-2,0-3.3,0c-0.7,0-1.7,0-2.4,0l0.1-0.5l1.3-0.7c0.1-2.4,0.1-6.2,0.1-7.4l-1.2-0.7L201,48.3z"/>
			</g>
			<g>
				<path class="st0" d="M213.9,47.5c0.5,0,1.2,0.2,1.7,0.6c0.4-0.3,0.8-0.5,1.2-0.6l0.2,0.2c0,0.4-0.3,2.3-0.6,2.8l-0.3,0.1
					c-0.3-0.5-0.6-1.2-0.8-1.8c-0.1-0.1-0.6-0.4-1.4-0.4c-1.2,0-1.8,0.8-1.8,1.6c0,0.6,0.2,0.9,0.8,1.3c0.7,0.4,2,0.9,2.8,1.3
					c1.3,0.6,1.8,1.5,1.8,2.5c0,2.5-2.6,3.3-4.1,3.3c-1.2,0-2.6-0.4-3.4-1c0-0.4,0.4-2.2,0.5-2.5l0.3-0.2c0.3,0.6,0.8,2,1.1,2.6
					c0.3,0.1,0.9,0.2,1.4,0.2c1.2,0,2.2-0.7,2.2-1.7c0-0.6-0.2-1-0.9-1.4c-0.6-0.3-1.4-0.7-2.2-1.1c-1.3-0.6-2-1.4-2-2.7
					C210.4,49.1,211.6,47.5,213.9,47.5L213.9,47.5z"/>
			</g>
			<g>
				<path class="st0" d="M220,48.2c0.4-0.1,1.8-0.5,3.1-0.7v4.7c0,2.6,0,3.9,0,4.6l1.6,0.7l-0.2,0.5c-0.8,0-1.7,0-2.6,0
					c-0.7,0-1.5,0-2.4,0l0.2-0.5l1.3-0.7c0-0.8,0-2.8,0-4.6v-2.9l-1.3-0.6L220,48.2z M222.2,42.7c0.3,0.1,1,0.8,1.2,1.3l0,0.2
					c-0.2,0.4-0.9,1.1-1.2,1.3l-0.2,0c-0.4-0.2-0.9-0.9-1.1-1.3l0-0.2c0.3-0.5,0.9-1.1,1.3-1.3L222.2,42.7z"/>
			</g>
			<g>
				<path class="st0" d="M233.2,47.8l-0.4,0.8l-3.1,0.3c0,1.1,0,3.7,0,6.5c0,0.6,0.2,0.9,0.4,1.1c0.3,0.2,0.6,0.3,1.2,0.3
					c0.9,0,1.5-0.3,1.9-0.6l0.1,0l0,0.7c-0.6,0.7-1.5,1.2-2.7,1.2c-0.9,0-1.7-0.4-2.2-1c-0.4-0.5-0.5-1-0.5-2.5v-5.9l-1.6-0.3
					l0.4-0.8h1.2c0.1-0.6,0.3-1.9,0.6-2.7c0.3-0.4,1.1-0.7,1.4-0.7l-0.1,3.4H233.2z"/>
			</g>
			<g>
				<path class="st0" d="M241.4,47.8c0.5,0,1.1,0,1.6,0c0.7,0,1.4,0,2,0l-0.1,0.5c-0.7,0.3-1.1,0.6-1.4,1c-0.9,1.9-2.7,6.6-4.9,11.7
					c-0.2,0.9-0.4,1.8-0.6,2.6c-0.1,0.1-0.3,0.1-0.5,0.1c-0.7,0-1.5-0.5-1.7-0.7c0.2-0.4,1.2-1.6,2-2.6c0.3-0.6,0.8-1.8,1.2-2.6
					c-0.2-0.4-2.4-6.3-3.3-8.5c-0.3-0.5-0.6-0.7-1.6-1l0.2-0.5c0.7,0,1.4,0,2.2,0c0.7,0,1.5,0,2.2,0l-0.2,0.6l-0.7,0.6
					c0.3,0.9,1,2.9,2.3,6.4h0c0.9-2.3,1.9-5.1,2.3-6.4l-1.1-0.6L241.4,47.8z"/>
			</g>
		</g>
		<g>
			<g>
				<path class="st0" d="M108.7,77.6l-0.1,0.5c-0.4,0.1-0.8,0.1-1,0.1c-0.3,0-0.7,0-1.3-0.1c-0.4,0-0.8-0.1-1.2-0.1
					c-0.6,0-1.2,0.1-1.9,0.2l0.1-0.5c0.6-0.1,1.1-0.2,1.3-0.4c0.2-0.1,0.4-0.4,0.5-0.7c0.1-0.3,0.5-1.5,1-3.5l1.2-4.8l0.1-0.2
					c-0.4,0-0.6,0-0.8,0c-1.1,0-2,0.1-2.7,0.4c-0.7,0.2-1.1,0.6-1.5,1.1c-0.3,0.5-0.5,1-0.5,1.5c0,0.2,0,0.4,0.1,0.5
					c0,0.1,0.2,0.3,0.4,0.5c0.2,0.2,0.3,0.4,0.3,0.6c0,0.2-0.1,0.3-0.2,0.4c-0.1,0.1-0.3,0.2-0.4,0.2c-0.3,0-0.5-0.1-0.6-0.4
					c-0.2-0.4-0.3-0.8-0.3-1.4c0-0.7,0.2-1.5,0.7-2.2c0.5-0.7,1.1-1.2,1.9-1.6c0.8-0.4,1.8-0.6,2.9-0.6c0.5,0,1.4,0.1,2.6,0.2
					c0.8,0.1,1.5,0.2,1.8,0.2s0.7-0.1,0.8-0.2c0.2-0.1,0.2-0.3,0.2-0.5c0,0,0-0.1,0-0.3c0-0.1,0-0.2,0-0.2c0-0.2,0.1-0.3,0.2-0.4
					c0.1-0.1,0.2-0.2,0.4-0.2c0.2,0,0.3,0.1,0.4,0.2c0.1,0.1,0.2,0.3,0.2,0.5c0,0.5-0.2,0.9-0.7,1.2c-0.5,0.3-1.3,0.5-2.5,0.5
					c-0.4,0-0.8,0-1.3-0.1c-0.1,0.2-0.3,1-0.6,2.2l-0.8,3.1l-0.5,1.9l-0.5,2.2c0.4,0,0.7,0.1,1,0.1
					C107.9,77.8,108.3,77.7,108.7,77.6z"/>
			</g>
			<g>
				<path class="st0" d="M115.4,75.8l0.3,0.4c-1.5,1.4-2.8,2.1-3.8,2.1c-0.4,0-0.8-0.1-1-0.4c-0.2-0.3-0.3-0.8-0.3-1.4
					c0-1.3,0.4-2.6,1.2-3.9c0.9-1.5,1.9-2.2,3.2-2.2c0.4,0,0.8,0.1,1,0.3c0.2,0.2,0.3,0.5,0.3,0.9c0,0.4-0.1,0.8-0.4,1.2
					c-0.3,0.4-0.8,0.8-1.5,1.2c-0.4,0.2-1.1,0.6-2.3,1.1c-0.1,0.3-0.1,0.6-0.1,0.9c0,0.4,0.1,0.7,0.2,0.9c0.1,0.2,0.3,0.3,0.6,0.3
					c0.2,0,0.5-0.1,0.8-0.2C114,76.8,114.6,76.4,115.4,75.8z M112.2,74.5c1-0.4,1.7-0.9,2.2-1.4c0.3-0.4,0.5-0.7,0.5-1
					c0-0.3-0.1-0.5-0.2-0.6c-0.1-0.2-0.3-0.2-0.5-0.2c-0.2,0-0.4,0.1-0.7,0.3c-0.3,0.2-0.5,0.6-0.7,1
					C112.5,73.1,112.3,73.8,112.2,74.5z"/>
			</g>
			<g>
				<path class="st0" d="M123.1,70.3l0.6-0.1l-0.7,2.3c-0.3,0.9-0.5,2-0.8,3.2c-0.1,0.6-0.2,1.1-0.2,1.3c0,0.2,0.1,0.3,0.2,0.3
					c0.1,0,0.3-0.1,0.5-0.2c0.4-0.2,0.7-0.5,1.1-0.8l0.3,0.4c-0.7,0.6-1.1,1-1.3,1.1c-0.4,0.3-0.8,0.5-1.1,0.6
					c-0.2,0.1-0.5,0.1-0.7,0.1c-0.2,0-0.3,0-0.4-0.1c-0.1-0.1-0.1-0.2-0.1-0.3c0-0.1,0-0.2,0.1-0.4l0.4-1.2
					c-0.5,0.6-1.1,1.2-1.9,1.6c-0.4,0.3-0.8,0.4-1.2,0.4c-0.4,0-0.6-0.1-0.8-0.4c-0.3-0.3-0.4-0.8-0.4-1.3c0-0.6,0.2-1.4,0.5-2.1
					c0.3-0.8,0.8-1.5,1.4-2.1c0.6-0.6,1.2-1.1,1.8-1.4c0.5-0.2,1.1-0.3,1.9-0.3c0.2,0,0.4,0,0.6,0L123.1,70.3z M122,71.7
					c-0.3-0.1-0.6-0.1-0.8-0.1c-0.5,0-1,0.1-1.4,0.4c-0.4,0.3-0.8,0.8-1.1,1.6c-0.3,0.8-0.5,1.6-0.5,2.3c0,0.4,0.1,0.7,0.2,0.9
					c0.1,0.2,0.3,0.3,0.5,0.3c0.4,0,0.9-0.2,1.3-0.7c0.5-0.5,0.8-1.1,1.1-1.9L122,71.7z"/>
			</g>
			<g>
				<path class="st0" d="M129.7,76.1l0.2,0.5c-1.4,1.1-2.7,1.7-3.6,1.7c-0.5,0-0.9-0.2-1.1-0.6c-0.2-0.4-0.4-0.9-0.4-1.4
					c0-1,0.3-1.9,0.8-3c0.5-1,1.1-1.8,1.9-2.3c0.6-0.4,1.2-0.6,1.9-0.6c0.4,0,0.8,0.1,1,0.3c0.2,0.2,0.3,0.4,0.3,0.6
					c0,0.2-0.1,0.3-0.2,0.5c-0.1,0.1-0.3,0.2-0.5,0.2c-0.2,0-0.5-0.1-0.8-0.3c-0.3-0.2-0.6-0.3-0.9-0.3c-0.3,0-0.6,0.1-0.9,0.4
					c-0.3,0.3-0.6,0.8-0.8,1.6c-0.3,0.8-0.4,1.6-0.4,2.3c0,0.6,0.1,1,0.3,1.3c0.2,0.2,0.4,0.4,0.7,0.4
					C127.9,77.4,128.8,77,129.7,76.1z"/>
			</g>
			<g>
				<path class="st0" d="M138.4,76.2l0.2,0.3c-0.6,0.6-1.1,1.1-1.7,1.5c-0.4,0.2-0.7,0.4-1,0.4c-0.2,0-0.4-0.1-0.5-0.3
					c-0.1-0.2-0.2-0.4-0.2-0.8c0-0.2,0-0.6,0.1-1.1c0.1-0.5,0.4-1.5,0.8-3c0.2-0.8,0.3-1.2,0.3-1.3c0-0.2-0.1-0.3-0.3-0.3
					c-0.3,0-0.6,0.1-1,0.4c-0.5,0.4-1,0.8-1.4,1.3c-0.3,0.3-0.5,0.9-0.6,1.5l-0.7,3.2h-1.4c0.3-1.1,0.5-1.9,0.7-2.6l1.3-5.8
					c0.2-1.1,0.6-1.9,1-2.5c0.4-0.6,0.9-1,1.6-1.4c0.6-0.3,1.3-0.5,1.9-0.5c0.3,0,0.5,0.1,0.6,0.2s0.2,0.3,0.2,0.5
					c0,0.2-0.1,0.3-0.2,0.4c-0.1,0.1-0.4,0.2-0.6,0.2c-0.1,0-0.3,0-0.6,0c-0.5-0.1-0.9-0.1-1.1-0.1c-0.3,0-0.5,0.1-0.7,0.3
					c-0.2,0.2-0.4,0.8-0.5,1.6l-1,4.5c0.7-0.8,1.5-1.4,2.4-1.9c0.5-0.3,0.9-0.5,1.2-0.5c0.2,0,0.4,0.1,0.6,0.2
					c0.1,0.1,0.2,0.3,0.2,0.6c0,0.2,0,0.4-0.1,0.6c-0.1,0.4-0.3,1-0.6,1.9c-0.4,1.3-0.6,2.1-0.7,2.4c-0.1,0.3-0.1,0.6-0.1,0.8
					c0,0.1,0,0.2,0,0.2c0,0,0.1,0.1,0.1,0.1c0.1,0,0.4-0.2,0.8-0.5C137.8,76.7,138,76.5,138.4,76.2z"/>
			</g>
			<g>
				<path class="st0" d="M139.5,72.6l-0.4-0.3c0.6-0.7,1.2-1.1,1.7-1.4c0.5-0.3,0.9-0.4,1.3-0.4c0.2,0,0.3,0,0.4,0.1
					c0.1,0.1,0.2,0.2,0.2,0.3c0,0.2-0.2,0.9-0.6,2.2c-0.6,2.2-1,3.4-1,3.9c0,0.1,0,0.2,0.1,0.2c0,0.1,0.1,0.1,0.1,0.1
					c0.2,0,0.7-0.4,1.5-1.1l0.4,0.3c-0.8,0.8-1.4,1.3-1.8,1.5c-0.4,0.2-0.7,0.3-0.9,0.3c-0.2,0-0.4-0.1-0.5-0.2
					c-0.1-0.1-0.2-0.3-0.2-0.6c0-0.8,0.5-2.6,1.4-5.6c0-0.1,0.1-0.3,0.1-0.4c0-0.1-0.1-0.2-0.2-0.2c-0.1,0-0.3,0-0.4,0.1
					C140.4,71.8,140.1,72.1,139.5,72.6z M143.1,66.6c0.2,0,0.3,0.1,0.5,0.2c0.1,0.1,0.2,0.3,0.2,0.5c0,0.3-0.1,0.5-0.3,0.7
					c-0.2,0.2-0.4,0.3-0.6,0.3c-0.2,0-0.3-0.1-0.5-0.2c-0.1-0.1-0.2-0.3-0.2-0.5c0-0.3,0.1-0.5,0.3-0.7
					C142.7,66.7,142.9,66.6,143.1,66.6z"/>
			</g>
			<g>
				<path class="st0" d="M144,72.6l-0.3-0.3c0.8-0.7,1.4-1.2,1.9-1.5c0.5-0.2,0.9-0.4,1.2-0.4c0.1,0,0.2,0,0.3,0.1
					c0.1,0.1,0.1,0.1,0.1,0.2c0,0.1,0,0.2,0,0.3l-0.4,1.8c0.6-0.7,1.4-1.3,2.3-1.9c0.5-0.3,0.9-0.5,1.2-0.5c0.2,0,0.4,0.1,0.6,0.2
					c0.1,0.2,0.2,0.4,0.2,0.7c0,0.2,0,0.4-0.1,0.6c-0.1,0.4-0.3,1.3-0.8,2.6c-0.4,1.2-0.6,2.1-0.6,2.5c0,0.1,0,0.2,0.1,0.3
					c0,0.1,0.1,0.1,0.2,0.1c0.2,0,0.5-0.2,0.8-0.5c0.3-0.2,0.5-0.5,0.8-0.7l0.2,0.3c-0.6,0.6-1.1,1.1-1.7,1.5
					c-0.4,0.2-0.7,0.4-0.9,0.4c-0.2,0-0.4-0.1-0.5-0.3c-0.1-0.2-0.2-0.4-0.2-0.8c0-0.5,0.3-1.9,1-4c0.2-0.8,0.3-1.2,0.3-1.3
					c0-0.2-0.1-0.3-0.3-0.3c-0.2,0-0.6,0.1-0.9,0.4c-0.6,0.4-1,0.8-1.4,1.3c-0.2,0.3-0.4,0.8-0.6,1.6l-0.7,3.2h-1.4
					c0.3-0.9,0.5-1.8,0.7-2.6l0.8-3.5c0-0.1,0-0.2,0-0.3c0-0.2-0.1-0.2-0.2-0.2c-0.1,0-0.2,0.1-0.4,0.2
					C144.7,71.9,144.3,72.2,144,72.6z"/>
			</g>
			<g>
				<path class="st0" d="M158.4,70.4l0.7-0.2c-0.4,1.4-0.8,2.8-1.2,4.3c-0.3,1-0.4,1.9-0.6,2.5c-0.1,0.3-0.1,0.8-0.1,1.3
					c0,0.9-0.1,1.6-0.3,2.1c-0.3,0.7-0.7,1.3-1.4,1.8c-0.7,0.5-1.5,0.7-2.5,0.7c-0.8,0-1.5-0.2-1.9-0.6c-0.5-0.4-0.7-0.8-0.7-1.3
					c0-0.5,0.2-0.9,0.6-1.4c0.3-0.3,0.9-0.7,1.7-1.2c0.4-0.2,0.9-0.5,1.3-0.7c-0.4,0.2-0.8,0.3-1,0.3c-0.2,0-0.4-0.1-0.6-0.3
					c-0.2-0.2-0.3-0.5-0.3-0.8c0-1.1,0.3-2.2,1-3.3c0.7-1.1,1.5-1.9,2.4-2.5c0.6-0.3,1.3-0.5,2.2-0.5c0.2,0,0.4,0,0.6,0L158.4,70.4z
					 M156.1,76.7c-0.4,0.4-1.2,1-2.4,1.8c-1,0.7-1.7,1.2-1.9,1.5c-0.2,0.3-0.4,0.6-0.4,1c0,0.3,0.2,0.7,0.5,0.9
					c0.3,0.3,0.7,0.4,1.1,0.4c0.4,0,0.8-0.1,1.2-0.3c0.4-0.2,0.7-0.5,1-0.9c0.3-0.4,0.5-0.8,0.6-1.3c0.1-0.5,0.2-1.1,0.2-1.9
					C156,77.8,156.1,77.3,156.1,76.7z M157.3,71.8c-0.3-0.1-0.5-0.1-0.8-0.1c-0.6,0-1.1,0.2-1.5,0.5c-0.4,0.3-0.8,0.8-1.1,1.5
					c-0.4,1-0.6,1.9-0.6,2.6c0,0.3,0.1,0.5,0.2,0.7c0.2,0.2,0.3,0.3,0.5,0.3c0.2,0,0.5-0.1,0.9-0.3c0.4-0.2,0.6-0.5,0.9-0.9
					c0.2-0.4,0.5-1,0.7-1.8L157.3,71.8z"/>
			</g>
			<g>
				<path class="st0" d="M166.3,69.1l1.4-0.6l-0.7,2.5h1.9l-0.1,0.6H167l-0.8,3c-0.3,0.9-0.4,1.6-0.4,1.9c0,0.2,0,0.3,0.1,0.4
					c0.1,0.1,0.2,0.1,0.3,0.1c0.2,0,0.5-0.1,0.9-0.3c0.5-0.3,1-0.6,1.5-1l0.3,0.4c-1.3,1-2.2,1.6-2.7,1.8c-0.4,0.2-0.8,0.3-1.1,0.3
					c-0.2,0-0.4-0.1-0.5-0.2c-0.1-0.2-0.2-0.4-0.2-0.8c0-0.4,0.1-1.1,0.3-2l0.9-3.6h-1.5l0.2-0.6h1.5L166.3,69.1z"/>
			</g>
			<g>
				<path class="st0" d="M177,76.2l0.2,0.3c-0.6,0.6-1.1,1.1-1.7,1.5c-0.4,0.2-0.7,0.4-1,0.4c-0.2,0-0.4-0.1-0.5-0.3
					c-0.1-0.2-0.2-0.4-0.2-0.8c0-0.2,0-0.6,0.1-1.1c0.1-0.5,0.4-1.5,0.8-3c0.2-0.8,0.3-1.2,0.3-1.3c0-0.2-0.1-0.3-0.3-0.3
					c-0.3,0-0.6,0.1-1,0.4c-0.5,0.4-1,0.8-1.4,1.3c-0.3,0.3-0.5,0.9-0.6,1.5l-0.7,3.2h-1.4c0.3-1.1,0.5-1.9,0.7-2.6l1.3-5.8
					c0.2-1.1,0.6-1.9,1-2.5c0.4-0.6,0.9-1,1.6-1.4c0.6-0.3,1.3-0.5,1.9-0.5c0.3,0,0.5,0.1,0.6,0.2c0.2,0.1,0.2,0.3,0.2,0.5
					c0,0.2-0.1,0.3-0.2,0.4c-0.1,0.1-0.4,0.2-0.6,0.2c-0.1,0-0.3,0-0.6,0c-0.5-0.1-0.9-0.1-1.1-0.1c-0.3,0-0.5,0.1-0.7,0.3
					c-0.2,0.2-0.4,0.8-0.5,1.6l-1,4.5c0.7-0.8,1.5-1.4,2.4-1.9c0.5-0.3,0.9-0.5,1.2-0.5c0.2,0,0.4,0.1,0.6,0.2
					c0.1,0.1,0.2,0.3,0.2,0.6c0,0.2,0,0.4-0.1,0.6c-0.1,0.4-0.3,1-0.6,1.9c-0.4,1.3-0.6,2.1-0.7,2.4c-0.1,0.3-0.1,0.6-0.1,0.8
					c0,0.1,0,0.2,0,0.2c0,0,0.1,0.1,0.1,0.1c0.1,0,0.4-0.2,0.8-0.5C176.4,76.7,176.7,76.5,177,76.2z"/>
			</g>
			<g>
				<path class="st0" d="M182.7,75.8l0.3,0.4c-1.5,1.4-2.8,2.1-3.8,2.1c-0.4,0-0.8-0.1-1-0.4c-0.2-0.3-0.3-0.8-0.3-1.4
					c0-1.3,0.4-2.6,1.2-3.9c0.9-1.5,1.9-2.2,3.2-2.2c0.4,0,0.8,0.1,1,0.3c0.2,0.2,0.3,0.5,0.3,0.9c0,0.4-0.1,0.8-0.4,1.2
					c-0.3,0.4-0.8,0.8-1.5,1.2c-0.4,0.2-1.1,0.6-2.3,1.1c-0.1,0.3-0.1,0.6-0.1,0.9c0,0.4,0.1,0.7,0.2,0.9c0.1,0.2,0.3,0.3,0.6,0.3
					c0.2,0,0.5-0.1,0.8-0.2C181.3,76.8,181.9,76.4,182.7,75.8z M179.5,74.5c1-0.4,1.7-0.9,2.2-1.4c0.3-0.4,0.5-0.7,0.5-1
					c0-0.3-0.1-0.5-0.2-0.6c-0.1-0.2-0.3-0.2-0.5-0.2c-0.2,0-0.4,0.1-0.7,0.3c-0.3,0.2-0.5,0.6-0.7,1
					C179.8,73.1,179.6,73.8,179.5,74.5z"/>
			</g>
			<g>
				<path class="st0" d="M192.5,69.4l0.1-0.4c0.7,0,1.4-0.2,2.2-0.4c-0.2,0.6-0.4,1.1-0.5,1.5l-0.5,2c1.1,0,1.9-0.3,2.4-0.8
					c0.5-0.5,0.8-1.2,0.8-1.9c0-0.5-0.2-0.9-0.6-1.2c-0.4-0.3-1-0.5-1.7-0.5c-1.1,0-2.1,0.3-3.1,0.8c-1,0.5-1.8,1.2-2.3,2
					c-0.6,0.8-0.8,1.7-0.8,2.5c0,0.2,0,0.4,0.1,0.6c0.1,0.2,0.2,0.4,0.3,0.5c0.1,0.1,0.2,0.2,0.5,0.4c0.3,0.2,0.5,0.3,0.5,0.4
					c0.1,0.1,0.1,0.2,0.1,0.3s0,0.2-0.1,0.3s-0.2,0.1-0.3,0.1c-0.3,0-0.7-0.3-1-0.8c-0.4-0.5-0.5-1.1-0.5-1.9c0-1,0.3-2,0.9-3
					c0.6-1,1.5-1.7,2.6-2.3c1.1-0.6,2.3-0.9,3.7-0.9c1.1,0,1.9,0.2,2.5,0.6s0.8,1,0.8,1.6c0,0.6-0.2,1.1-0.6,1.6
					c-0.4,0.5-1,0.9-1.7,1.1c0.5,0.1,1,0.2,1.3,0.4c0.3,0.2,0.5,0.5,0.7,0.8c0.2,0.3,0.2,0.7,0.2,1.1c0,0.7-0.2,1.3-0.6,1.9
					c-0.4,0.6-1,1.1-1.7,1.5c-0.7,0.4-1.5,0.6-2.3,0.6c-0.2,0-0.7,0-1.5-0.1c-0.4,0-0.8,0-1.2,0c-0.6,0-1.2,0-1.6,0.1l0.1-0.5
					c0.6,0,1.1-0.2,1.4-0.5c0.3-0.3,0.5-0.9,0.8-1.8l1.3-5.3c0.1-0.2,0.1-0.4,0.1-0.5c0-0.1,0-0.2-0.1-0.2c-0.1-0.1-0.2-0.1-0.3-0.1
					C192.7,69.4,192.6,69.4,192.5,69.4z M193.8,72.7l-0.5,1.8c-0.2,0.9-0.5,1.7-0.7,2.2c-0.1,0.3-0.3,0.6-0.5,0.8
					c0.5,0.1,1,0.2,1.4,0.2c1.1,0,1.9-0.3,2.4-1c0.5-0.7,0.8-1.4,0.8-2.2c0-0.4-0.1-0.7-0.3-1c-0.2-0.3-0.5-0.5-0.8-0.6
					C195.3,72.7,194.7,72.7,193.8,72.7z"/>
			</g>
			<g>
				<path class="st0" d="M205.6,70.7h1.3l-0.9,3.2c-0.5,1.8-0.8,2.9-0.8,3.2c0,0.1,0,0.2,0.1,0.3c0.1,0.1,0.1,0.1,0.2,0.1
					c0.1,0,0.2,0,0.4-0.1c0.2-0.1,0.6-0.5,1.1-1.1l0.3,0.3c-1.2,1.3-2.1,1.9-2.7,1.9c-0.2,0-0.4-0.1-0.5-0.2
					c-0.1-0.1-0.2-0.4-0.2-0.6c0-0.3,0.1-0.7,0.2-1.3c-0.5,0.6-1.2,1.2-2,1.6c-0.5,0.3-1,0.5-1.4,0.5c-0.2,0-0.4-0.1-0.5-0.2
					c-0.1-0.1-0.2-0.4-0.2-0.7c0-0.2,0-0.5,0.1-0.8c0.1-0.4,0.3-1.2,0.6-2.3c0.4-1.5,0.6-2.3,0.6-2.6c0-0.2-0.1-0.3-0.2-0.3
					c-0.1,0-0.3,0.1-0.4,0.2c-0.2,0.1-0.5,0.4-1,0.8l-0.4-0.3c0.8-0.7,1.4-1.2,1.9-1.4c0.4-0.2,0.8-0.3,1-0.3c0.1,0,0.3,0.1,0.4,0.2
					c0.1,0.1,0.1,0.3,0.1,0.5c0,0.4-0.2,1.4-0.7,3.1c-0.4,1.5-0.6,2.3-0.6,2.5c0,0.1,0,0.2,0.1,0.3c0.1,0.1,0.2,0.1,0.3,0.1
					c0.3,0,0.8-0.3,1.4-0.8c0.6-0.6,1-1.2,1.2-1.9L205.6,70.7z"/>
			</g>
			<g>
				<path class="st0" d="M212,70.5c0.5,0,1,0.1,1.2,0.3c0.3,0.2,0.4,0.5,0.4,0.7c0,0.2-0.1,0.3-0.2,0.4c-0.1,0.1-0.3,0.2-0.4,0.2
					c-0.1,0-0.2,0-0.3-0.1c-0.1-0.1-0.2-0.2-0.4-0.4c-0.3-0.4-0.6-0.6-0.9-0.6c-0.2,0-0.5,0.1-0.7,0.3c-0.2,0.2-0.3,0.4-0.3,0.7
					c0,0.2,0.1,0.5,0.2,0.7c0.1,0.2,0.4,0.6,0.9,1.1c0.7,0.7,1,1.4,1,2c0,0.6-0.3,1.2-0.8,1.7s-1.2,0.7-2.1,0.7
					c-0.7,0-1.3-0.1-1.6-0.4c-0.4-0.3-0.5-0.7-0.5-1.1c0-0.2,0.1-0.4,0.2-0.5c0.1-0.1,0.3-0.2,0.5-0.2c0.2,0,0.3,0.1,0.4,0.2
					c0.1,0.1,0.2,0.2,0.2,0.4c0,0.1,0,0.1,0,0.2c0,0.1,0,0.1,0,0.2c0,0.2,0.1,0.4,0.3,0.5c0.2,0.1,0.4,0.2,0.7,0.2
					c0.3,0,0.6-0.1,0.9-0.2c0.2-0.1,0.4-0.3,0.6-0.5c0.1-0.2,0.2-0.5,0.2-0.7c0-0.2-0.1-0.4-0.2-0.7c-0.1-0.2-0.4-0.6-0.9-1.1
					c-0.6-0.7-0.9-1.4-0.9-2c0-0.6,0.2-1.1,0.7-1.6C210.6,70.7,211.2,70.5,212,70.5z"/>
			</g>
			<g>
				<path class="st0" d="M214.2,72.6l-0.4-0.3c0.6-0.7,1.2-1.1,1.7-1.4c0.5-0.3,0.9-0.4,1.3-0.4c0.2,0,0.3,0,0.4,0.1
					c0.1,0.1,0.2,0.2,0.2,0.3c0,0.2-0.2,0.9-0.6,2.2c-0.6,2.2-1,3.4-1,3.9c0,0.1,0,0.2,0.1,0.2c0,0.1,0.1,0.1,0.1,0.1
					c0.2,0,0.7-0.4,1.5-1.1l0.4,0.3c-0.8,0.8-1.4,1.3-1.8,1.5c-0.4,0.2-0.7,0.3-0.9,0.3c-0.2,0-0.4-0.1-0.5-0.2
					c-0.1-0.1-0.2-0.3-0.2-0.6c0-0.8,0.5-2.6,1.4-5.6c0-0.1,0.1-0.3,0.1-0.4c0-0.1-0.1-0.2-0.2-0.2c-0.1,0-0.3,0-0.4,0.1
					C215.1,71.8,214.8,72.1,214.2,72.6z M217.8,66.6c0.2,0,0.3,0.1,0.5,0.2c0.1,0.1,0.2,0.3,0.2,0.5c0,0.3-0.1,0.5-0.3,0.7
					c-0.2,0.2-0.4,0.3-0.6,0.3c-0.2,0-0.3-0.1-0.5-0.2c-0.1-0.1-0.2-0.3-0.2-0.5c0-0.3,0.1-0.5,0.3-0.7
					C217.4,66.7,217.6,66.6,217.8,66.6z"/>
			</g>
			<g>
				<path class="st0" d="M218.7,72.6l-0.3-0.3c0.8-0.7,1.4-1.2,1.9-1.5c0.5-0.2,0.9-0.4,1.2-0.4c0.1,0,0.2,0,0.3,0.1
					c0.1,0.1,0.1,0.1,0.1,0.2c0,0.1,0,0.2,0,0.3l-0.4,1.8c0.6-0.7,1.4-1.3,2.3-1.9c0.5-0.3,0.9-0.5,1.2-0.5c0.2,0,0.4,0.1,0.6,0.2
					c0.1,0.2,0.2,0.4,0.2,0.7c0,0.2,0,0.4-0.1,0.6c-0.1,0.4-0.3,1.3-0.8,2.6c-0.4,1.2-0.6,2.1-0.6,2.5c0,0.1,0,0.2,0.1,0.3
					c0,0.1,0.1,0.1,0.2,0.1c0.2,0,0.5-0.2,0.8-0.5c0.3-0.2,0.5-0.5,0.8-0.7l0.2,0.3c-0.6,0.6-1.1,1.1-1.7,1.5
					c-0.4,0.2-0.7,0.4-0.9,0.4c-0.2,0-0.4-0.1-0.5-0.3c-0.1-0.2-0.2-0.4-0.2-0.8c0-0.5,0.3-1.9,1-4c0.2-0.8,0.3-1.2,0.3-1.3
					c0-0.2-0.1-0.3-0.3-0.3c-0.2,0-0.6,0.1-0.9,0.4c-0.6,0.4-1,0.8-1.4,1.3c-0.2,0.3-0.4,0.8-0.6,1.6l-0.7,3.2h-1.4
					c0.3-0.9,0.5-1.8,0.7-2.6l0.8-3.5c0-0.1,0-0.2,0-0.3c0-0.2-0.1-0.2-0.2-0.2c-0.1,0-0.2,0.1-0.4,0.2
					C219.4,71.9,219,72.2,218.7,72.6z"/>
			</g>
			<g>
				<path class="st0" d="M231.7,75.8l0.3,0.4c-1.5,1.4-2.8,2.1-3.8,2.1c-0.4,0-0.8-0.1-1-0.4c-0.2-0.3-0.3-0.8-0.3-1.4
					c0-1.3,0.4-2.6,1.2-3.9c0.9-1.5,1.9-2.2,3.2-2.2c0.4,0,0.8,0.1,1,0.3c0.2,0.2,0.3,0.5,0.3,0.9c0,0.4-0.1,0.8-0.4,1.2
					c-0.3,0.4-0.8,0.8-1.5,1.2c-0.4,0.2-1.1,0.6-2.3,1.1c-0.1,0.3-0.1,0.6-0.1,0.9c0,0.4,0.1,0.7,0.2,0.9c0.1,0.2,0.3,0.3,0.6,0.3
					c0.2,0,0.5-0.1,0.8-0.2C230.4,76.8,230.9,76.4,231.7,75.8z M228.5,74.5c1-0.4,1.7-0.9,2.2-1.4c0.3-0.4,0.5-0.7,0.5-1
					c0-0.3-0.1-0.5-0.2-0.6c-0.1-0.2-0.3-0.2-0.5-0.2c-0.2,0-0.4,0.1-0.7,0.3c-0.3,0.2-0.5,0.6-0.7,1
					C228.8,73.1,228.6,73.8,228.5,74.5z"/>
			</g>
			<g>
				<path class="st0" d="M237.3,70.5c0.5,0,1,0.1,1.2,0.3c0.3,0.2,0.4,0.5,0.4,0.7c0,0.2-0.1,0.3-0.2,0.4c-0.1,0.1-0.3,0.2-0.4,0.2
					c-0.1,0-0.2,0-0.3-0.1c-0.1-0.1-0.2-0.2-0.4-0.4c-0.3-0.4-0.6-0.6-0.9-0.6c-0.2,0-0.5,0.1-0.7,0.3c-0.2,0.2-0.3,0.4-0.3,0.7
					c0,0.2,0.1,0.5,0.2,0.7c0.1,0.2,0.4,0.6,0.9,1.1c0.7,0.7,1,1.4,1,2c0,0.6-0.3,1.2-0.8,1.7c-0.5,0.5-1.2,0.7-2.1,0.7
					c-0.7,0-1.3-0.1-1.6-0.4c-0.4-0.3-0.5-0.7-0.5-1.1c0-0.2,0.1-0.4,0.2-0.5c0.1-0.1,0.3-0.2,0.5-0.2c0.2,0,0.3,0.1,0.4,0.2
					c0.1,0.1,0.2,0.2,0.2,0.4c0,0.1,0,0.1,0,0.2c0,0.1,0,0.1,0,0.2c0,0.2,0.1,0.4,0.3,0.5c0.2,0.1,0.4,0.2,0.7,0.2
					c0.3,0,0.6-0.1,0.9-0.2c0.2-0.1,0.4-0.3,0.6-0.5c0.1-0.2,0.2-0.5,0.2-0.7c0-0.2-0.1-0.4-0.2-0.7c-0.1-0.2-0.4-0.6-0.9-1.1
					c-0.6-0.7-0.9-1.4-0.9-2c0-0.6,0.2-1.1,0.7-1.6C235.9,70.7,236.5,70.5,237.3,70.5z"/>
			</g>
			<g>
				<path class="st0" d="M243.2,70.5c0.5,0,1,0.1,1.2,0.3c0.3,0.2,0.4,0.5,0.4,0.7c0,0.2-0.1,0.3-0.2,0.4c-0.1,0.1-0.3,0.2-0.4,0.2
					c-0.1,0-0.2,0-0.3-0.1c-0.1-0.1-0.2-0.2-0.4-0.4c-0.3-0.4-0.6-0.6-0.9-0.6c-0.2,0-0.5,0.1-0.7,0.3c-0.2,0.2-0.3,0.4-0.3,0.7
					c0,0.2,0.1,0.5,0.2,0.7c0.1,0.2,0.4,0.6,0.9,1.1c0.7,0.7,1,1.4,1,2c0,0.6-0.3,1.2-0.8,1.7s-1.2,0.7-2.1,0.7
					c-0.7,0-1.3-0.1-1.6-0.4c-0.4-0.3-0.5-0.7-0.5-1.1c0-0.2,0.1-0.4,0.2-0.5c0.1-0.1,0.3-0.2,0.5-0.2c0.2,0,0.3,0.1,0.4,0.2
					c0.1,0.1,0.2,0.2,0.2,0.4c0,0.1,0,0.1,0,0.2c0,0.1,0,0.1,0,0.2c0,0.2,0.1,0.4,0.3,0.5c0.2,0.1,0.4,0.2,0.7,0.2
					c0.3,0,0.6-0.1,0.9-0.2c0.2-0.1,0.4-0.3,0.6-0.5c0.1-0.2,0.2-0.5,0.2-0.7c0-0.2-0.1-0.4-0.2-0.7c-0.1-0.2-0.4-0.6-0.9-1.1
					c-0.6-0.7-0.9-1.4-0.9-2c0-0.6,0.2-1.1,0.7-1.6C241.9,70.7,242.5,70.5,243.2,70.5z"/>
			</g>
			<g>
				<path class="st0" d="M253.8,70.5c0.6,0,1.1,0.2,1.5,0.7c0.4,0.5,0.6,1.1,0.6,2c0,1.3-0.5,2.6-1.4,3.6c-0.9,1.1-1.9,1.6-3,1.6
					c-0.6,0-1.2-0.2-1.6-0.6c-0.4-0.4-0.6-1-0.6-1.7c0-1.3,0.4-2.4,1.1-3.5C251.3,71.1,252.4,70.5,253.8,70.5z M253,71.2
					c-0.5,0-1,0.4-1.5,1.1c-0.5,0.7-0.7,1.8-0.7,3.1c0,0.8,0.1,1.4,0.4,1.9c0.2,0.3,0.5,0.5,0.9,0.5c0.5,0,1-0.3,1.4-0.9
					c0.5-0.8,0.8-1.8,0.8-3c0-0.9-0.1-1.6-0.4-1.9C253.7,71.3,253.3,71.2,253,71.2z"/>
			</g>
			<g>
				<path class="st0" d="M257,71.1h2.2c0.4-1.5,0.8-2.6,1.2-3.4c0.5-0.7,1.1-1.3,1.8-1.8c0.7-0.4,1.4-0.6,2.1-0.6
					c0.4,0,0.6,0.1,0.8,0.2c0.2,0.1,0.3,0.3,0.3,0.5c0,0.2-0.1,0.3-0.2,0.5c-0.1,0.1-0.3,0.2-0.5,0.2c-0.2,0-0.6-0.1-1.2-0.2
					c-0.3-0.1-0.5-0.1-0.7-0.1c-0.4,0-0.8,0.2-1.1,0.7c-0.3,0.5-0.6,1.2-0.8,2l-0.5,1.9h2.4l-0.1,0.6h-2.4l-1.4,5.8
					c-0.4,1.8-1.1,3.1-2.1,4c-1,0.9-2,1.4-3.2,1.4c-0.4,0-0.7-0.1-0.9-0.2c-0.2-0.1-0.3-0.3-0.3-0.6c0-0.2,0.1-0.3,0.2-0.5
					c0.1-0.1,0.3-0.2,0.6-0.2c0.1,0,0.3,0,0.6,0c0.4,0.1,0.8,0.1,1.2,0.1c0.6,0,1-0.1,1.3-0.4c0.3-0.3,0.5-1,0.8-2.1l1.8-7.4h-2.2
					L257,71.1z"/>
			</g>
			<g>
				<path class="st0" d="M277.7,77.7l-0.1,0.5c-0.3,0-0.5,0.1-0.7,0.1c-0.3,0-0.6,0-1-0.1c-0.5,0-0.9-0.1-1.2-0.1
					c-0.3,0-0.5,0-0.8,0.1c0.2-0.7,0.5-1.7,0.9-2.9l0.7-2.7l-2.5,0.1c-0.4,0-0.9,0.1-1.3,0.1c-0.4,1.6-0.8,2.8-1.3,3.6
					c-0.4,0.8-0.9,1.3-1.5,1.7c-0.6,0.4-1.1,0.5-1.6,0.5c-0.5,0-0.9-0.1-1.3-0.4c-0.3-0.2-0.4-0.4-0.4-0.6c0-0.2,0.1-0.3,0.2-0.4
					c0.1-0.1,0.2-0.2,0.4-0.2c0.2,0,0.5,0.2,0.7,0.5c0.2,0.2,0.3,0.3,0.4,0.4c0.1,0.1,0.2,0.1,0.3,0.1c0.5,0,0.9-0.4,1.3-1.1
					c0.4-0.8,1-2.7,1.8-5.7l0.9-3.3c-1.2,0-2.1,0.2-2.7,0.6c-0.6,0.4-0.9,0.9-0.9,1.4c0,0.2,0.1,0.4,0.2,0.6
					c0.1,0.2,0.2,0.4,0.2,0.6c0,0.2-0.1,0.3-0.2,0.4c-0.1,0.1-0.3,0.2-0.4,0.2c-0.2,0-0.4-0.1-0.5-0.3c-0.2-0.2-0.2-0.5-0.2-0.9
					c0-0.7,0.3-1.3,0.8-1.9c0.5-0.5,1.2-0.9,2.2-1.1c0.6-0.1,1.7-0.2,3.3-0.2c-0.4,0.9-0.9,2.4-1.5,4.7c1.6,0,2.9-0.1,3.8-0.2
					c0.5-1.8,1-3,1.4-3.7c0.4-0.7,0.8-1.2,1.3-1.5c0.5-0.3,1.1-0.5,1.7-0.5c0.5,0,0.9,0.1,1.2,0.3c0.3,0.2,0.4,0.4,0.4,0.7
					c0,0.2-0.1,0.3-0.2,0.4c-0.1,0.1-0.2,0.1-0.4,0.1c-0.2,0-0.4-0.2-0.7-0.5c-0.3-0.3-0.5-0.5-0.7-0.5c-0.5,0-0.9,0.4-1.3,1.3
					c-0.8,1.5-1.7,4.7-2.7,9.5c0.1,0,0.2,0,0.4,0.1c0.3,0.1,0.6,0.1,0.8,0.1C277.1,77.8,277.3,77.8,277.7,77.7z"/>
			</g>
			<g>
				<path class="st0" d="M284.5,72.9l-1.2,4.8c0.3,0,0.5,0.1,0.7,0.1c0.3,0,0.6,0,1-0.1l-0.1,0.4c-0.4,0.1-0.7,0.1-0.9,0.1
					c-0.2,0-0.6,0-1-0.1c-0.4,0-0.7-0.1-1-0.1c-0.5,0-1,0.1-1.7,0.2l0.1-0.5c0.7-0.2,1.1-0.3,1.3-0.5c0.3-0.3,0.5-0.7,0.7-1.4
					l1.3-5.1c0.2-0.6,0.2-1,0.2-1.1c0-0.1,0-0.2-0.1-0.2c-0.1-0.1-0.2-0.1-0.4-0.1l0.1-0.4c0.6,0,1.3-0.1,2.2-0.3
					c-0.1,0.2-0.2,0.6-0.3,1l-0.7,2.7c0.3,0.1,0.5,0.1,0.7,0.1c0.8,0,1.4-0.3,1.9-0.8c0.5-0.5,0.8-1.2,0.8-1.9c0-0.6-0.2-1-0.6-1.4
					c-0.4-0.4-1-0.5-1.8-0.5c-0.9,0-1.9,0.2-2.8,0.7c-0.9,0.5-1.6,1-2,1.7c-0.5,0.7-0.7,1.4-0.7,2.1c0,0.6,0.2,1,0.7,1.5
					c0.2,0.2,0.4,0.3,0.4,0.4c0.1,0.1,0.1,0.2,0.1,0.3c0,0.1,0,0.2-0.1,0.3c-0.1,0.1-0.2,0.1-0.3,0.1c-0.3,0-0.6-0.2-0.9-0.6
					c-0.3-0.5-0.5-1.1-0.5-1.8c0-0.9,0.3-1.8,0.8-2.6c0.5-0.8,1.3-1.5,2.3-2c1-0.5,2.1-0.8,3.3-0.8c1.1,0,2,0.2,2.7,0.6
					c0.7,0.4,1,1,1,1.8c0,0.7-0.3,1.4-1,2.1c-0.6,0.6-1.5,1.1-2.6,1.2c0.3,0.6,0.5,0.9,0.5,1.1c0.1,0.3,0.3,0.9,0.6,1.7
					c0.6,1.8,1.2,3.1,1.9,3.8c0.5,0.5,1,0.8,1.6,0.8c0.6,0,1-0.3,1.1-0.8c0.1-0.3,0.2-0.5,0.3-0.6c0.1-0.1,0.2-0.2,0.4-0.2
					s0.3,0.1,0.4,0.2c0.1,0.1,0.2,0.2,0.2,0.4c0,0.4-0.2,0.7-0.6,1.1c-0.4,0.3-0.9,0.5-1.6,0.5c-0.6,0-1.1-0.1-1.7-0.4
					c-0.5-0.3-1.1-0.7-1.6-1.4s-0.9-1.4-1.3-2.3c-0.2-0.5-0.5-1.3-0.8-2.5c-0.2-0.7-0.4-1.2-0.4-1.3l-0.2,0
					C284.7,72.9,284.6,72.9,284.5,72.9z"/>
			</g>
		</g>
		<g>
			<rect x="100.5" y="62.3" class="st0" width="193" height="1.6"/>
		</g>
		<g>
			<g>
				<path class="st0" d="M66.4,89.4c-1.5,0-3.1-0.1-4.9-0.2c-4.1-0.2-7.7-1.1-11.3-2.8c-4.5-2.1-7.4-4.6-9.6-8.3
					c-2-3.4-2.5-7.4-2.7-13.6l-0.3-23.3c0-1.9-0.1-6.6-0.3-14.3c0-0.7,0-1.3,0-1.9c0-1.4,0-2.7-0.3-3.2c-0.2-0.4-0.6-0.7-1.1-1
					c-0.2-0.1-1.3-0.2-2.4-0.2c-1.2,0-2.7-0.1-4.4-0.3l-0.4,0v-5.6l0.4,0c6.8,0.2,12.9,0.4,18.1,0.4c2.3,0,3.7-0.1,6.3-0.2
					c1.1-0.1,2.5-0.1,4.3-0.2l0.4,0v5.5h-0.4c-1.1,0-2.4,0-3.4,0.7c-0.2,0.1-0.7,0.7-0.9,1.3c-0.1,0.4-0.3,1.9-0.4,2.9
					c0,0.4-0.1,0.8-0.1,1.2c-0.1,1-0.1,2.5-0.1,5c0,2.2,0,5.3,0,9.5c-0.1,3.6,0,7.5,0.1,11.2c0.1,2.8,0.1,5.7,0.1,8.6
					c0,5.5,0.5,9,1.7,11.5c1.2,2.4,2.9,4.3,5.1,5.5c3.2,1.7,5.5,2,9.6,2.2c4.1,0.2,7-1.6,8.4-2.7c2-1.6,4.6-4.1,5.5-6.8
					c0.9-2.9,1.2-9,1.2-21l-0.1-8c0-5.3-0.3-7.1-0.6-7.6c-0.2-0.4-0.4-0.7-0.9-0.9c-0.4-0.3-2-0.7-7.6-1.1l-0.4,0v-5.2l0.4,0
					c4.2,0.2,8.6,0.4,12.4,0.4c3.1,0,7.1-0.1,11.6-0.4l0.4,0v5.2h-0.4c-3.1,0-4.8,0.3-5.5,1c-0.7,0.7-1.6,2.5-1.8,5.6
					c-0.3,5.3-0.3,6-0.2,9c0,1.4,0,3.3,0,6.3c0,6.5-0.1,10.9-0.4,12.8c-0.5,4.1-1.3,7.5-3.3,11.1c-2.1,3.7-6.1,7.4-10.2,9.4
					C75,88.7,71.6,89.4,66.4,89.4z M29.8,19.7c1.6,0.1,2.9,0.2,4,0.2c1.6,0.1,2.3,0.1,2.7,0.3c0.6,0.3,1.1,0.8,1.4,1.3
					c0.4,0.7,0.4,2,0.4,3.6c0,0.6,0,1.2,0,1.9c0.2,7.7,0.3,12.4,0.3,14.3l0.3,23.3c0.2,6.1,0.7,10,2.6,13.2c2.1,3.6,4.8,5.9,9.2,7.9
					c3.5,1.6,7,2.4,11,2.7c8,0.5,12.3-0.1,16.4-2.1c4-2,7.9-5.6,9.8-9.1c1.9-3.4,2.7-6.8,3.2-10.8c0.2-1.8,0.4-6.2,0.4-12.7
					c0-3,0-4.9,0-6.3c0-3.1,0-3.7,0.2-9.1c0.2-3.3,1.2-5.4,2-6.2c0.9-0.8,2.6-1.2,5.7-1.2v-3.5c-4.4,0.2-8.2,0.3-11.2,0.3
					c-3.7,0-7.9-0.1-12-0.3v3.5c6.4,0.4,7.3,1,7.6,1.2c0.6,0.3,1,0.7,1.2,1.3c0.4,0.9,0.6,3.5,0.6,7.9l0.1,8
					c0,12.1-0.4,18.3-1.3,21.3c-0.9,3-3.6,5.6-5.7,7.3c-1.5,1.2-4.6,3-8.9,2.8c-3.8-0.2-6.4-0.4-9.9-2.3c-2.4-1.3-4.2-3.3-5.5-5.9
					c-1.2-2.5-1.8-6.2-1.8-11.8c0-2.8-0.1-5.7-0.1-8.5c-0.1-3.7-0.1-7.6-0.1-11.2c0.1-4.3,0.1-7.3,0-9.5c0-2.6,0-4,0.1-5.1
					c0-0.3,0.1-0.7,0.1-1.1c0.1-1.2,0.3-2.6,0.4-3.1c0.3-0.8,0.8-1.5,1.2-1.8c1.1-0.7,2.4-0.8,3.4-0.8v-3.8
					c-1.6,0.1-2.8,0.1-3.9,0.2c-2.7,0.1-4,0.2-6.4,0.2c-5.1,0-11-0.1-17.7-0.3V19.7z"/>
			</g>
		</g>
		<g>
			<g>
				<path class="st0" d="M43.3,56.8l-0.5,1.3c-1,0.1-1.8,0.1-2.4,0.1c-0.9,0-0.3-0.1-1.7-0.2C37.1,58,36.2,58,35.2,58
					c-0.9,0-1.8,0.1-2.7,0.3c1-1.8,1.4-4.2,2.8-7.4l2.3-6.9L29,44.2c-1.4,0.1-3.2,0.2-4,0.2c-1.4,3.8-2.9,7.3-4.5,9.3
					c-2,2.6-3.9,3.6-5.9,4.5c-2,0.9-4.2,1.1-5.9,1.1c-1.7,0-4.5-0.4-5.6-1c-0.8-0.4-1.5-1-1.4-1.6c0-0.4,0.3-0.8,0.7-1.1
					c0.4-0.3,1.1-0.3,1.7-0.2c0.8,0.1,1.2,0.6,1.5,0.9c0.5,0.4,1.3,1.3,1.7,1.3c1,0.3,2,0.3,2.4,0.3c1.6,0,4.3-0.8,5.7-2.9
					c1.5-2.3,3.9-7.5,6.4-14.8l3.1-8c-4,0-6.3,0.5-8.4,1.5c-2.1,1-3.3,2.2-3.4,3.4c0,0.4,0.2,1,0.6,1.6c0.4,0.6,0.6,1.1,0.6,1.5
					c-0.1,0.4-0.3,0.8-0.7,1.1c-0.4,0.3-0.9,0.4-1.4,0.4c-0.7,0-1.7-0.3-2.1-0.8c-0.4-0.5-0.8-1.8-0.7-2.8c0.2-1.8,1.4-3.2,3.2-4.6
					c1.8-1.4,4-1.9,7.3-2.5c1.9-0.3,5.6-0.5,11.1-0.5c-1.7,2.3-2.6,6.2-5.1,11.9c5.3,0,10.6-0.3,12.6-0.5c2-4.5,3.5-8,5-9.7
					c1.5-1.8,2.7-2.7,4.4-3.5c1.7-0.8,3.6-1.1,5.6-1.1c1.8,0,3.3,0.3,4.2,0.8c0.9,0.5,1.4,1.1,1.3,1.8c0,0.4-0.1,0.6-0.5,0.9
					c-0.4,0.2-0.8,0.3-1,0.4c-0.6,0.1-1.2,0-2.3-0.8c-0.8-0.6-1.9-1.5-2.6-1.5c-1.5,0-2.6,1-4.3,3.1c-3.8,4.8-6.2,11.7-9.7,24.1
					c0.6,0.1,0.8,0.2,1.4,0.3c0.7,0.1,1.2,0,1.5,0C42.2,56.9,42.2,57,43.3,56.8z"/>
			</g>
		</g>
		<g>
			<g>
				<path class="st0" d="M59.2,57.8l-4.1,12.2c1,0.1,1.8,0.2,2.4,0.2c0.9,0,2-0.1,3.3-0.3L60.5,71c-1.4,0.2-2.4,0.3-3.2,0.3
					c-0.8,0-2-0.1-3.5-0.2c-1.4-0.1-2.5-0.2-3.4-0.2c-1.6,0-3.5,0.2-5.7,0.5l0.5-1.3c2.3-0.4,3.7-0.9,4.4-1.3c1-0.7,1.8-1.8,2.4-3.5
					l4.3-12.9C56.7,51,57,50,57,49.7c0-0.3-0.1-0.5-0.4-0.6c-0.3-0.1-0.8-0.2-1.5-0.2l0.4-1.1c2.1,0,4.5-0.3,7.4-0.8
					c-0.2,0.6-0.6,1.4-1,2.6l-2.3,6.8c1,0.2,1.8,0.2,2.5,0.2c2.6,0,4.8-0.7,6.6-2c1.8-1.3,2.7-2.9,2.7-4.8c0-1.4-0.7-2.6-2.2-3.5
					c-1.5-0.9-3.5-1.4-6-1.4c-3.2,0-6.4,0.6-9.4,1.7c-3.1,1.2-5.4,2.6-6.9,4.3c-1.5,1.7-2.3,3.5-2.3,5.4c0,1.4,0.8,2.7,2.4,3.7
					c0.8,0.5,1.3,0.9,1.5,1.1c0.2,0.2,0.3,0.5,0.3,0.7c0,0.3-0.2,0.6-0.5,0.8c-0.3,0.2-0.7,0.4-1.2,0.4c-1.1,0-2.1-0.5-3-1.5
					c-1.1-1.3-1.7-2.8-1.7-4.7c0-2.4,0.9-4.6,2.6-6.6c1.7-2,4.4-3.7,7.9-5.1c3.5-1.3,7.3-2,11.2-2c3.7,0,6.7,0.5,9,1.5
					c2.4,1,3.5,2.5,3.5,4.6c0,1.9-1.1,3.6-3.2,5.3c-2.2,1.6-5.1,2.7-8.9,3.1c0.9,1.4,1.5,2.4,1.8,2.9c0.4,0.8,1.1,2.2,2,4.2
					c2.1,4.6,4.2,7.8,6.4,9.7c1.6,1.4,3.4,2.1,5.3,2.1c2,0,3.2-0.7,3.8-2c0.3-0.8,0.6-1.4,0.9-1.6c0.4-0.3,0.8-0.4,1.3-0.4
					c0.5,0,0.9,0.1,1.2,0.4c0.3,0.3,0.5,0.6,0.5,0.9c0,1-0.7,1.9-2.1,2.7c-1.4,0.9-3.2,1.3-5.4,1.3c-2,0-3.9-0.4-5.7-1.1
					c-1.8-0.7-3.6-1.9-5.3-3.5c-1.7-1.6-3.2-3.6-4.5-5.9c-0.6-1.2-1.6-3.3-2.8-6.3c-0.7-1.9-1.2-3-1.4-3.4l-0.8,0
					C59.8,57.8,59.5,57.8,59.2,57.8z"/>
			</g>
		</g>
		<g>
			<path class="st0" d="M54.1,90.3c-2.3,0.4-4.7,0.3-7.1,0.3c-18.8,0-34.9-12-41-28.7c-1.1,0.3-2.3,0.3-3.5,0.1
				C8.8,80.6,26.3,94,47,94c5.1,0,11.7-1.2,16.3-2.6c-1.3,0.2-4.8,0.1-6.1-0.2C56,90.9,54.7,90.5,54.1,90.3z"/>
		</g>
		<g>
			<path class="st0" d="M88.4,24.1C80.4,9.6,65.2,0,47.4,0C21.5,0,0.5,21,0.5,47c0,2.5,0.2,5,0.6,7.4c0.9-0.9,2-1.6,3.1-2.2
				c-0.2-1.7-0.3-3.4-0.3-5.1c0-24.1,19.5-43.7,43.6-43.7c15.8,0,29.5,8.1,37.1,20.8C84.6,24.1,87.9,24.1,88.4,24.1z"/>
		</g>
	</g>
</g>
</svg>
